<svg id="svg" version="1.1" xmlns="http://www.w3.org/2000/svg" xmlns:xlink="http://www.w3.org/1999/xlink" width="400" height="403.94736842105266" viewBox="0, 0, 400,403.94736842105266"><g id="svgg"><path id="path0" d="M194.965 2.218 C 193.774 3.438,192.800 4.593,192.800 4.785 C 192.800 4.977,192.080 5.884,191.200 6.800 C 190.320 7.716,189.600 8.612,189.600 8.790 C 189.600 8.969,189.105 9.652,188.500 10.309 C 186.412 12.574,185.600 13.607,185.600 14.001 C 185.600 14.218,184.700 15.315,183.600 16.439 C 182.500 17.562,181.600 18.657,181.600 18.872 C 181.600 19.087,180.880 19.954,180.000 20.800 C 179.120 21.646,178.400 22.530,178.400 22.767 C 178.400 23.003,177.500 24.115,176.400 25.239 C 175.300 26.362,174.400 27.457,174.400 27.672 C 174.400 27.887,173.680 28.754,172.800 29.600 C 171.920 30.446,171.200 31.330,171.200 31.567 C 171.200 31.803,170.300 32.915,169.200 34.039 C 168.100 35.162,167.200 36.257,167.200 36.472 C 167.200 36.687,166.480 37.554,165.600 38.400 C 164.720 39.246,164.000 40.103,164.000 40.305 C 164.000 40.507,163.235 41.521,162.300 42.557 C 159.929 45.185,158.310 47.163,157.189 48.800 C 156.662 49.570,155.729 50.677,155.115 51.260 C 154.502 51.844,154.000 52.519,154.000 52.760 C 154.000 53.002,153.820 53.200,153.600 53.200 C 153.380 53.200,153.200 53.398,153.200 53.640 C 153.200 53.881,152.698 54.556,152.085 55.140 C 151.471 55.723,150.527 56.830,149.987 57.600 C 149.446 58.370,148.328 59.697,147.502 60.548 C 146.676 61.400,146.000 62.273,146.000 62.488 C 146.000 62.703,145.460 63.383,144.800 64.000 C 142.870 65.803,143.010 69.552,145.078 71.446 L 146.556 72.800 158.478 72.800 L 170.400 72.800 170.397 98.900 L 170.394 125.000 169.317 125.500 C 168.725 125.775,167.974 126.000,167.649 126.000 C 167.093 126.000,165.217 126.533,163.400 127.208 C 162.960 127.371,161.250 127.919,159.600 128.424 C 157.950 128.930,156.429 129.492,156.220 129.672 C 156.011 129.852,155.426 130.000,154.920 130.000 C 154.414 130.000,154.000 130.180,154.000 130.400 C 154.000 130.620,153.728 130.800,153.395 130.800 C 153.062 130.800,152.432 130.980,151.995 131.200 C 151.558 131.420,150.842 131.780,150.405 132.000 C 149.968 132.220,149.338 132.400,149.005 132.400 C 148.672 132.400,148.400 132.580,148.400 132.800 C 148.400 133.020,148.040 133.200,147.600 133.200 C 147.160 133.200,146.800 133.380,146.800 133.600 C 146.800 133.820,146.440 134.000,146.000 134.000 C 145.560 134.000,145.200 134.180,145.200 134.400 C 145.200 134.620,144.840 134.800,144.400 134.800 C 143.960 134.800,143.600 134.980,143.600 135.200 C 143.600 135.420,143.240 135.600,142.800 135.600 C 142.360 135.600,142.000 135.780,142.000 136.000 C 142.000 136.220,141.640 136.400,141.200 136.400 C 140.760 136.400,140.400 136.580,140.400 136.800 C 140.400 137.020,140.040 137.200,139.600 137.200 C 139.160 137.200,138.800 137.380,138.800 137.600 C 138.800 137.820,138.575 138.004,138.300 138.009 C 138.025 138.014,137.350 138.370,136.800 138.800 C 134.865 140.314,135.224 140.585,124.566 129.559 C 118.337 123.115,116.441 121.600,114.605 121.600 C 114.052 121.600,113.600 121.420,113.600 121.200 C 113.600 120.709,105.094 120.652,104.095 121.137 C 103.713 121.322,102.506 121.907,101.413 122.437 C 99.198 123.510,75.600 146.699,75.600 147.802 C 75.600 148.131,75.441 148.400,75.247 148.400 C 75.052 148.400,74.789 148.715,74.661 149.100 C 74.533 149.485,74.155 150.520,73.820 151.400 C 73.138 153.194,72.958 160.353,73.566 161.505 C 73.768 161.887,74.229 162.880,74.591 163.712 C 75.368 165.498,77.611 167.985,86.100 176.479 C 91.981 182.363,93.006 183.600,92.000 183.600 C 91.780 183.600,91.600 183.960,91.600 184.400 C 91.600 184.840,91.420 185.200,91.200 185.200 C 90.980 185.200,90.800 185.560,90.800 186.000 C 90.800 186.440,90.620 186.800,90.400 186.800 C 90.180 186.800,90.000 187.160,90.000 187.600 C 90.000 188.040,89.865 188.401,89.700 188.403 C 89.535 188.405,89.202 188.810,88.960 189.303 C 88.717 189.796,88.110 191.010,87.610 192.000 C 87.109 192.990,86.542 194.113,86.350 194.495 C 86.157 194.877,86.000 195.462,86.000 195.795 C 86.000 196.128,85.820 196.400,85.600 196.400 C 85.380 196.400,85.200 196.760,85.200 197.200 C 85.200 197.640,85.020 198.000,84.800 198.000 C 84.580 198.000,84.400 198.360,84.400 198.800 C 84.400 199.240,84.220 199.600,84.000 199.600 C 83.780 199.600,83.600 200.140,83.600 200.800 C 83.600 201.460,83.420 202.000,83.200 202.000 C 82.980 202.000,82.800 202.349,82.800 202.776 C 82.800 203.203,82.620 203.664,82.400 203.800 C 82.180 203.936,82.000 204.487,82.000 205.024 C 82.000 205.561,81.820 206.000,81.600 206.000 C 81.380 206.000,81.200 206.540,81.200 207.200 C 81.200 207.860,81.020 208.400,80.800 208.400 C 80.580 208.400,80.400 208.929,80.400 209.576 C 80.400 210.223,80.220 210.864,80.000 211.000 C 79.780 211.136,79.600 211.766,79.600 212.400 C 79.600 213.034,79.420 213.664,79.200 213.800 C 78.980 213.936,78.800 214.566,78.800 215.200 C 78.800 215.834,78.620 216.464,78.400 216.600 C 78.180 216.736,78.000 217.197,78.000 217.624 C 78.000 218.376,77.604 218.400,65.224 218.400 C 57.137 218.400,52.356 218.547,52.200 218.800 C 52.064 219.020,51.591 219.200,51.148 219.200 C 48.645 219.200,42.800 225.124,42.800 227.661 C 42.800 228.068,42.620 228.400,42.400 228.400 C 41.882 228.400,41.850 267.726,42.366 268.705 C 42.568 269.087,43.005 270.030,43.339 270.800 C 44.038 272.417,47.245 275.771,49.000 276.721 C 51.934 278.309,52.707 278.388,65.500 278.394 C 77.605 278.400,78.000 278.425,78.000 279.176 C 78.000 279.603,78.160 280.052,78.356 280.173 C 78.692 280.380,78.814 280.873,79.432 284.500 C 79.573 285.325,79.848 286.000,80.044 286.000 C 80.240 286.000,80.400 286.540,80.400 287.200 C 80.400 287.860,80.580 288.400,80.800 288.400 C 81.020 288.400,81.200 288.940,81.200 289.600 C 81.200 290.260,81.380 290.800,81.600 290.800 C 81.820 290.800,82.000 291.340,82.000 292.000 C 82.000 292.660,82.180 293.200,82.400 293.200 C 82.620 293.200,82.800 293.560,82.800 294.000 C 82.800 294.440,82.980 294.800,83.200 294.800 C 83.420 294.800,83.600 295.340,83.600 296.000 C 83.600 296.660,83.780 297.200,84.000 297.200 C 84.220 297.200,84.400 297.560,84.400 298.000 C 84.400 298.440,84.580 298.800,84.800 298.800 C 85.020 298.800,85.200 299.160,85.200 299.600 C 85.200 300.040,85.380 300.400,85.600 300.400 C 85.820 300.400,86.000 300.839,86.000 301.376 C 86.000 301.913,86.180 302.464,86.400 302.600 C 86.620 302.736,86.800 303.197,86.800 303.624 C 86.800 304.051,86.980 304.400,87.200 304.400 C 87.420 304.400,87.600 304.745,87.600 305.167 C 87.600 305.588,87.735 305.993,87.900 306.067 C 88.276 306.234,89.575 308.364,89.871 309.300 C 89.993 309.685,90.252 310.000,90.447 310.000 C 90.641 310.000,90.800 310.360,90.800 310.800 C 90.800 311.240,90.980 311.600,91.200 311.600 C 91.420 311.600,91.600 311.960,91.600 312.400 C 91.600 312.840,91.780 313.200,92.000 313.200 C 93.267 313.200,91.540 315.272,83.993 322.807 C 75.879 330.908,74.000 333.161,74.000 334.789 C 74.000 335.209,73.820 335.664,73.600 335.800 C 73.103 336.107,73.065 344.148,73.556 345.105 C 73.752 345.487,74.337 346.693,74.856 347.785 C 75.538 349.218,77.667 351.606,82.523 356.385 C 86.221 360.023,91.844 365.565,95.020 368.700 C 98.195 371.835,101.065 374.400,101.397 374.400 C 101.728 374.400,102.000 374.580,102.000 374.800 C 102.000 375.020,102.450 375.200,103.000 375.200 C 103.550 375.200,104.000 375.380,104.000 375.600 C 104.000 375.846,106.000 376.000,109.200 376.000 C 112.400 376.000,114.400 375.846,114.400 375.600 C 114.400 375.380,114.760 375.200,115.200 375.200 C 115.640 375.200,116.000 375.020,116.000 374.800 C 116.000 374.580,116.320 374.400,116.712 374.400 C 117.103 374.400,117.683 374.040,118.000 373.600 C 118.317 373.160,118.718 372.800,118.891 372.800 C 119.064 372.800,122.715 369.290,127.005 365.000 C 131.295 360.710,134.911 357.200,135.041 357.200 C 135.170 357.200,136.294 357.768,137.538 358.462 C 142.511 361.237,146.294 363.083,148.100 363.615 C 149.145 363.923,150.000 364.315,150.000 364.487 C 150.000 364.659,150.360 364.800,150.800 364.800 C 151.240 364.800,151.600 364.980,151.600 365.200 C 151.600 365.420,152.140 365.600,152.800 365.600 C 153.460 365.600,154.000 365.780,154.000 366.000 C 154.000 366.220,154.360 366.400,154.800 366.400 C 155.240 366.400,155.600 366.580,155.600 366.800 C 155.600 367.020,156.140 367.200,156.800 367.200 C 157.460 367.200,158.000 367.380,158.000 367.600 C 158.000 367.820,158.450 368.000,159.000 368.000 C 159.550 368.000,160.000 368.180,160.000 368.400 C 160.000 368.620,160.540 368.800,161.200 368.800 C 161.860 368.800,162.400 368.980,162.400 369.200 C 162.400 369.420,162.929 369.600,163.576 369.600 C 164.223 369.600,164.864 369.780,165.000 370.000 C 165.136 370.220,165.867 370.400,166.624 370.400 C 167.381 370.400,168.000 370.580,168.000 370.800 C 168.000 371.020,168.540 371.200,169.200 371.200 L 170.400 371.200 170.400 384.376 C 170.400 392.729,170.546 397.643,170.800 397.800 C 171.020 397.936,171.200 398.487,171.200 399.024 C 171.200 399.561,171.380 400.000,171.600 400.000 C 171.820 400.000,172.000 400.272,172.000 400.604 C 172.000 400.936,172.514 401.746,173.143 402.404 L 174.287 403.600 199.901 403.600 L 225.515 403.600 226.758 402.440 C 227.441 401.801,228.000 400.991,228.000 400.640 C 228.000 400.288,228.180 400.000,228.400 400.000 C 228.620 400.000,228.800 399.561,228.800 399.024 C 228.800 398.487,228.980 397.936,229.200 397.800 C 229.454 397.643,229.600 392.729,229.600 384.376 L 229.600 371.200 230.800 371.200 C 231.460 371.200,232.000 371.020,232.000 370.800 C 232.000 370.580,232.619 370.400,233.376 370.400 C 234.133 370.400,234.864 370.220,235.000 370.000 C 235.136 369.780,235.777 369.600,236.424 369.600 C 237.071 369.600,237.600 369.420,237.600 369.200 C 237.600 368.980,238.140 368.800,238.800 368.800 C 239.460 368.800,240.000 368.620,240.000 368.400 C 240.000 368.180,240.450 368.000,241.000 368.000 C 241.550 368.000,242.000 367.820,242.000 367.600 C 242.000 367.380,242.540 367.200,243.200 367.200 C 243.860 367.200,244.400 367.020,244.400 366.800 C 244.400 366.580,244.760 366.400,245.200 366.400 C 245.640 366.400,246.000 366.220,246.000 366.000 C 246.000 365.780,246.540 365.600,247.200 365.600 C 247.860 365.600,248.400 365.420,248.400 365.200 C 248.400 364.980,248.760 364.800,249.200 364.800 C 249.640 364.800,250.000 364.659,250.000 364.487 C 250.000 364.315,250.855 363.923,251.900 363.615 C 253.706 363.083,257.489 361.237,262.462 358.462 C 263.706 357.768,264.830 357.200,264.959 357.200 C 265.089 357.200,268.705 360.710,272.995 365.000 C 277.285 369.290,280.936 372.800,281.109 372.800 C 281.282 372.800,281.683 373.160,282.000 373.600 C 282.317 374.040,282.897 374.400,283.288 374.400 C 283.680 374.400,284.000 374.580,284.000 374.800 C 284.000 375.020,284.360 375.200,284.800 375.200 C 285.240 375.200,285.600 375.380,285.600 375.600 C 285.600 375.846,287.600 376.000,290.800 376.000 C 294.000 376.000,296.000 375.846,296.000 375.600 C 296.000 375.380,296.450 375.200,297.000 375.200 C 297.550 375.200,298.000 375.020,298.000 374.800 C 298.000 374.580,298.272 374.400,298.603 374.400 C 298.935 374.400,301.805 371.835,304.980 368.700 C 308.156 365.565,313.779 360.023,317.477 356.385 C 322.333 351.606,324.462 349.218,325.144 347.785 C 325.663 346.693,326.248 345.487,326.444 345.105 C 326.935 344.148,326.897 336.107,326.400 335.800 C 326.180 335.664,326.000 335.209,326.000 334.789 C 326.000 333.161,324.121 330.908,316.007 322.807 C 308.460 315.272,306.733 313.200,308.000 313.200 C 308.220 313.200,308.400 312.840,308.400 312.400 C 308.400 311.960,308.580 311.600,308.800 311.600 C 309.020 311.600,309.200 311.255,309.200 310.833 C 309.200 310.412,309.335 310.007,309.500 309.933 C 309.876 309.766,311.175 307.636,311.471 306.700 C 311.593 306.315,311.852 306.000,312.047 306.000 C 312.241 306.000,312.400 305.640,312.400 305.200 C 312.400 304.760,312.580 304.400,312.800 304.400 C 313.020 304.400,313.200 304.051,313.200 303.624 C 313.200 303.197,313.380 302.736,313.600 302.600 C 313.820 302.464,314.000 301.913,314.000 301.376 C 314.000 300.839,314.180 300.400,314.400 300.400 C 314.620 300.400,314.800 300.040,314.800 299.600 C 314.800 299.160,314.980 298.800,315.200 298.800 C 315.420 298.800,315.600 298.440,315.600 298.000 C 315.600 297.560,315.780 297.200,316.000 297.200 C 316.220 297.200,316.400 296.660,316.400 296.000 C 316.400 295.340,316.580 294.800,316.800 294.800 C 317.020 294.800,317.200 294.440,317.200 294.000 C 317.200 293.560,317.380 293.200,317.600 293.200 C 317.820 293.200,318.000 292.660,318.000 292.000 C 318.000 291.340,318.180 290.800,318.400 290.800 C 318.620 290.800,318.800 290.260,318.800 289.600 C 318.800 288.940,318.980 288.400,319.200 288.400 C 319.420 288.400,319.600 287.860,319.600 287.200 C 319.600 286.540,319.780 286.000,320.000 286.000 C 320.220 286.000,320.400 285.381,320.400 284.624 C 320.400 283.867,320.580 283.136,320.800 283.000 C 321.020 282.864,321.200 282.234,321.200 281.600 C 321.200 280.966,321.380 280.336,321.600 280.200 C 321.820 280.064,322.000 279.603,322.000 279.176 C 322.000 278.425,322.395 278.400,334.500 278.394 C 349.377 278.387,350.089 278.232,354.108 274.136 C 356.154 272.050,357.200 270.365,357.200 269.154 C 357.200 268.739,357.380 268.400,357.600 268.400 C 357.861 268.400,358.000 261.541,358.000 248.624 C 358.000 235.871,357.858 228.759,357.600 228.600 C 357.380 228.464,357.200 228.031,357.200 227.638 C 357.200 225.122,351.341 219.200,348.852 219.200 C 348.409 219.200,347.936 219.020,347.800 218.800 C 347.644 218.547,342.863 218.400,334.776 218.400 C 322.396 218.400,322.000 218.376,322.000 217.624 C 322.000 217.197,321.820 216.736,321.600 216.600 C 321.380 216.464,321.200 215.834,321.200 215.200 C 321.200 214.566,321.020 213.936,320.800 213.800 C 320.580 213.664,320.400 213.034,320.400 212.400 C 320.400 211.766,320.220 211.136,320.000 211.000 C 319.780 210.864,319.600 210.223,319.600 209.576 C 319.600 208.929,319.420 208.400,319.200 208.400 C 318.980 208.400,318.800 207.860,318.800 207.200 C 318.800 206.540,318.620 206.000,318.400 206.000 C 318.180 206.000,318.000 205.561,318.000 205.024 C 318.000 204.487,317.820 203.936,317.600 203.800 C 317.380 203.664,317.200 203.203,317.200 202.776 C 317.200 202.349,317.020 202.000,316.800 202.000 C 316.580 202.000,316.400 201.460,316.400 200.800 C 316.400 200.140,316.220 199.600,316.000 199.600 C 315.780 199.600,315.600 199.240,315.600 198.800 C 315.600 198.360,315.420 198.000,315.200 198.000 C 314.980 198.000,314.800 197.640,314.800 197.200 C 314.800 196.760,314.620 196.400,314.400 196.400 C 314.180 196.400,314.000 196.040,314.000 195.600 C 314.000 195.160,313.820 194.800,313.600 194.800 C 313.380 194.800,313.200 194.528,313.200 194.195 C 313.200 193.549,312.929 192.914,311.836 191.000 C 311.459 190.340,311.051 189.485,310.929 189.100 C 310.807 188.715,310.548 188.400,310.353 188.400 C 310.159 188.400,310.000 188.040,310.000 187.600 C 310.000 187.160,309.820 186.800,309.600 186.800 C 309.380 186.800,309.200 186.440,309.200 186.000 C 309.200 185.560,309.020 185.200,308.800 185.200 C 308.580 185.200,308.400 184.840,308.400 184.400 C 308.400 183.960,308.220 183.600,308.000 183.600 C 306.989 183.600,308.093 182.299,315.100 175.233 C 323.856 166.403,324.615 165.553,325.444 163.638 C 325.787 162.847,326.232 161.887,326.434 161.505 C 327.042 160.353,326.862 153.194,326.180 151.400 C 325.845 150.520,325.467 149.485,325.339 149.100 C 325.211 148.715,324.948 148.400,324.753 148.400 C 324.559 148.400,324.400 148.131,324.400 147.802 C 324.400 146.699,300.802 123.510,298.587 122.437 C 297.494 121.907,296.287 121.322,295.905 121.137 C 294.906 120.652,286.400 120.709,286.400 121.200 C 286.400 121.420,285.948 121.600,285.395 121.600 C 283.582 121.600,281.472 123.305,275.044 129.959 C 264.858 140.506,265.126 140.306,263.200 138.800 C 262.650 138.370,261.975 138.014,261.700 138.009 C 261.425 138.004,261.200 137.820,261.200 137.600 C 261.200 137.380,260.840 137.200,260.400 137.200 C 259.960 137.200,259.600 137.020,259.600 136.800 C 259.600 136.580,259.240 136.400,258.800 136.400 C 258.360 136.400,258.000 136.220,258.000 136.000 C 258.000 135.780,257.640 135.600,257.200 135.600 C 256.760 135.600,256.400 135.420,256.400 135.200 C 256.400 134.980,256.040 134.800,255.600 134.800 C 255.160 134.800,254.800 134.620,254.800 134.400 C 254.800 134.180,254.440 134.000,254.000 134.000 C 253.560 134.000,253.200 133.820,253.200 133.600 C 253.200 133.380,252.840 133.200,252.400 133.200 C 251.960 133.200,251.600 133.020,251.600 132.800 C 251.600 132.580,251.364 132.400,251.075 132.400 C 250.786 132.400,249.805 132.040,248.894 131.600 C 247.984 131.160,246.960 130.800,246.619 130.800 C 246.279 130.800,246.000 130.620,246.000 130.400 C 246.000 130.180,245.460 130.000,244.800 130.000 C 244.140 130.000,243.599 129.865,243.598 129.700 C 243.597 129.535,242.202 128.980,240.498 128.467 C 238.794 127.953,237.087 127.368,236.705 127.167 C 236.323 126.965,235.659 126.800,235.229 126.800 C 234.799 126.800,234.336 126.620,234.200 126.400 C 234.064 126.180,233.459 126.000,232.856 126.000 C 232.253 126.000,231.275 125.775,230.683 125.500 L 229.606 125.000 229.603 98.900 L 229.600 72.800 241.522 72.800 L 253.444 72.800 254.922 71.446 C 256.990 69.552,257.130 65.803,255.200 64.000 C 254.540 63.383,254.000 62.713,254.000 62.510 C 254.000 62.307,253.100 61.178,252.000 60.000 C 250.900 58.822,250.000 57.696,250.000 57.498 C 250.000 57.300,249.280 56.446,248.400 55.600 C 247.520 54.754,246.800 53.869,246.800 53.631 C 246.800 53.394,246.620 53.200,246.400 53.200 C 246.180 53.200,246.000 53.002,246.000 52.760 C 246.000 52.519,245.498 51.844,244.885 51.260 C 244.271 50.677,243.335 49.570,242.803 48.800 C 241.449 46.837,239.686 44.665,237.700 42.514 C 236.765 41.501,236.000 40.507,236.000 40.305 C 236.000 40.103,235.280 39.246,234.400 38.400 C 233.520 37.554,232.800 36.687,232.800 36.472 C 232.800 36.257,231.900 35.162,230.800 34.039 C 229.700 32.915,228.800 31.803,228.800 31.567 C 228.800 31.330,228.080 30.446,227.200 29.600 C 226.320 28.754,225.600 27.887,225.600 27.672 C 225.600 27.457,224.700 26.362,223.600 25.239 C 222.500 24.115,221.600 23.003,221.600 22.767 C 221.600 22.530,220.880 21.646,220.000 20.800 C 219.120 19.954,218.400 19.087,218.400 18.872 C 218.400 18.657,217.500 17.562,216.400 16.439 C 215.300 15.315,214.400 14.218,214.400 14.001 C 214.400 13.598,213.316 12.217,211.700 10.559 C 211.205 10.052,210.800 9.477,210.800 9.282 C 210.800 9.087,209.990 8.070,209.000 7.022 C 208.010 5.974,207.200 4.963,207.200 4.776 C 207.200 4.589,206.226 3.438,205.035 2.218 L 202.869 -0.000 200.000 -0.000 L 197.131 -0.000 194.965 2.218 M204.091 15.100 C 205.976 17.465,207.917 19.850,208.404 20.400 C 208.892 20.950,209.764 22.030,210.343 22.800 C 210.922 23.570,211.495 24.290,211.617 24.400 C 211.738 24.510,213.351 26.490,215.200 28.800 C 217.049 31.110,218.670 33.090,218.802 33.200 C 218.934 33.310,221.723 36.730,225.000 40.800 C 232.761 50.438,234.157 52.159,234.410 52.400 C 234.526 52.510,235.241 53.410,236.000 54.400 C 236.759 55.390,237.484 56.290,237.611 56.400 C 238.671 57.314,243.150 63.358,242.976 63.639 C 242.853 63.838,238.614 64.000,233.557 64.000 C 223.052 64.000,222.334 64.162,221.596 66.702 C 221.291 67.751,221.196 80.829,221.280 110.335 L 221.400 152.469 222.522 153.435 C 224.006 154.711,225.994 154.711,227.478 153.435 L 228.600 152.471 228.722 143.735 C 228.867 133.317,228.676 133.622,233.800 135.600 C 234.240 135.770,235.410 136.141,236.400 136.424 C 237.390 136.707,238.371 137.088,238.580 137.270 C 238.789 137.451,239.286 137.600,239.685 137.600 C 240.084 137.600,240.723 137.759,241.105 137.953 C 241.487 138.148,242.295 138.508,242.900 138.753 C 243.505 138.999,244.405 139.368,244.900 139.573 C 249.279 141.386,258.929 146.425,261.782 148.388 C 266.162 151.401,265.548 151.734,277.600 139.813 C 292.086 125.484,289.818 125.390,305.503 140.971 C 322.154 157.514,322.033 155.645,307.408 170.400 C 296.150 181.758,296.172 181.719,298.823 185.600 C 304.320 193.650,310.582 208.655,313.652 221.130 C 314.284 223.701,314.871 225.162,315.539 225.830 L 316.509 226.800 329.995 226.800 C 351.245 226.800,350.000 225.456,350.000 248.389 C 350.000 261.185,349.889 264.567,349.435 265.653 C 348.809 267.153,346.726 269.200,345.827 269.200 C 345.508 269.200,345.136 269.380,345.000 269.600 C 344.843 269.854,339.614 270.000,330.631 270.000 L 316.509 270.000 315.519 270.991 C 314.802 271.707,314.276 273.064,313.619 275.891 C 311.780 283.795,307.432 295.653,303.972 302.200 C 301.822 306.270,300.244 309.042,299.193 310.600 C 296.072 315.225,295.845 314.794,307.661 326.686 C 321.960 341.075,322.072 339.237,305.906 355.468 C 289.898 371.540,292.169 371.414,277.697 357.037 L 267.594 347.000 265.697 347.000 C 264.223 347.000,263.398 347.279,262.000 348.250 C 259.371 350.076,257.237 351.257,251.200 354.228 C 246.077 356.750,245.013 357.240,242.900 358.054 C 242.405 358.244,241.595 358.572,241.100 358.782 C 240.605 358.992,238.400 359.735,236.200 360.433 C 234.000 361.131,231.840 361.846,231.400 362.021 C 230.626 362.330,230.002 362.478,226.600 363.167 C 221.195 364.260,221.436 363.475,221.200 380.773 L 221.000 395.464 219.847 396.974 C 217.845 399.599,217.834 399.600,200.000 399.600 C 182.166 399.600,182.155 399.599,180.153 396.974 L 179.000 395.464 178.800 380.773 C 178.610 366.846,178.559 366.037,177.808 365.208 C 176.883 364.187,174.702 363.200,173.370 363.200 C 172.857 363.200,172.024 363.043,171.519 362.851 C 170.622 362.510,169.669 362.227,166.000 361.208 C 165.010 360.934,163.840 360.567,163.400 360.395 C 162.960 360.222,161.970 359.864,161.200 359.600 C 160.430 359.336,159.350 358.933,158.800 358.706 C 158.250 358.479,157.440 358.161,157.000 358.000 C 152.582 356.382,141.582 350.738,138.000 348.250 C 136.602 347.279,135.777 347.000,134.303 347.000 L 132.406 347.000 122.303 357.037 C 107.831 371.414,110.102 371.540,94.094 355.468 C 77.932 339.241,78.044 341.086,92.347 326.678 C 104.198 314.739,103.951 315.218,100.715 310.487 C 99.623 308.890,98.975 307.745,96.085 302.300 C 92.593 295.720,88.236 283.864,86.381 275.891 C 85.724 273.064,85.198 271.707,84.481 270.991 L 83.491 270.000 69.369 270.000 C 60.386 270.000,55.157 269.854,55.000 269.600 C 54.864 269.380,54.492 269.200,54.173 269.200 C 53.274 269.200,51.191 267.153,50.565 265.653 C 50.110 264.566,50.000 261.163,50.000 248.229 L 50.000 232.157 51.146 230.349 C 53.245 227.040,53.367 227.017,69.460 226.886 L 83.520 226.771 84.499 225.792 C 85.159 225.132,85.710 223.803,86.193 221.707 C 88.931 209.817,95.579 193.799,101.177 185.600 C 103.825 181.723,103.935 181.916,92.359 170.200 C 78.006 155.674,77.873 157.487,94.497 140.971 C 110.166 125.405,107.999 125.521,122.028 139.505 C 134.318 151.756,133.693 151.417,138.272 148.328 C 139.192 147.708,140.064 147.200,140.210 147.200 C 140.357 147.200,140.957 146.858,141.544 146.440 C 143.091 145.338,151.392 141.125,154.200 140.017 C 155.520 139.496,156.780 138.951,157.000 138.807 C 157.220 138.662,158.210 138.299,159.200 138.000 C 160.190 137.701,161.180 137.341,161.400 137.200 C 161.620 137.059,162.610 136.711,163.600 136.426 C 164.590 136.142,165.760 135.770,166.200 135.600 C 171.324 133.622,171.133 133.317,171.278 143.735 L 171.400 152.471 172.522 153.435 C 174.006 154.711,175.994 154.711,177.478 153.435 L 178.600 152.469 178.720 110.335 C 178.804 80.829,178.709 67.751,178.404 66.702 C 177.666 64.162,176.948 64.000,166.443 64.000 C 161.386 64.000,157.147 63.838,157.024 63.639 C 156.852 63.361,161.265 57.396,162.381 56.400 C 162.504 56.290,163.096 55.541,163.696 54.735 C 164.297 53.929,165.021 53.029,165.306 52.735 C 165.591 52.441,167.789 49.770,170.190 46.800 C 172.591 43.830,175.658 40.050,177.006 38.400 C 179.199 35.715,187.258 25.770,188.797 23.848 C 189.129 23.434,190.030 22.349,190.800 21.436 C 191.570 20.524,193.806 17.757,195.768 15.289 C 200.120 9.813,199.882 9.818,204.091 15.100 M122.400 79.553 C 122.400 79.748,122.040 80.001,121.600 80.116 C 121.160 80.231,120.800 80.612,120.800 80.963 C 120.800 81.313,120.620 81.600,120.400 81.600 C 120.171 81.600,120.000 82.800,120.000 84.400 L 120.000 87.200 117.091 87.200 C 112.766 87.200,111.200 88.542,111.200 92.247 C 111.200 96.101,112.026 96.800,116.582 96.800 L 120.000 96.800 120.000 100.218 C 120.000 103.796,120.865 105.600,122.582 105.600 C 122.922 105.600,123.200 105.780,123.200 106.000 C 123.200 106.566,125.441 106.497,126.483 105.900 C 128.877 104.528,129.200 103.853,129.200 100.218 L 129.200 96.800 132.618 96.800 C 137.123 96.800,138.000 96.083,138.000 92.400 C 138.000 88.753,136.150 87.200,131.805 87.200 L 129.200 87.200 129.200 84.560 C 129.200 80.959,127.638 79.200,124.440 79.200 C 123.318 79.200,122.400 79.359,122.400 79.553 M272.100 80.582 C 270.902 81.826,270.800 82.137,270.800 84.566 L 270.800 87.200 268.195 87.200 C 263.850 87.200,262.000 88.753,262.000 92.400 C 262.000 96.083,262.877 96.800,267.382 96.800 L 270.800 96.800 270.800 100.218 C 270.800 103.853,271.123 104.528,273.517 105.900 C 274.559 106.497,276.800 106.566,276.800 106.000 C 276.800 105.780,277.078 105.600,277.418 105.600 C 279.135 105.600,280.000 103.796,280.000 100.218 L 280.000 96.800 283.418 96.800 C 287.974 96.800,288.800 96.101,288.800 92.247 C 288.800 88.542,287.234 87.200,282.909 87.200 L 280.000 87.200 280.000 84.400 C 280.000 82.860,279.841 81.600,279.647 81.600 C 279.452 81.600,279.199 81.240,279.084 80.800 C 278.969 80.360,278.588 80.000,278.237 80.000 C 277.887 80.000,277.600 79.820,277.600 79.600 C 277.600 78.477,273.406 79.225,272.100 80.582 M195.200 170.612 C 194.870 170.709,192.980 170.970,191.000 171.193 C 176.880 172.781,161.639 179.151,151.857 187.552 C 140.755 197.085,132.684 208.061,128.435 219.400 C 127.941 220.720,127.370 222.113,127.168 222.495 C 126.966 222.877,126.800 223.464,126.800 223.800 C 126.800 224.136,126.638 224.723,126.439 225.105 C 125.657 226.610,123.994 234.220,123.315 239.400 C 122.837 243.042,122.961 254.988,123.513 258.600 C 124.141 262.701,124.636 265.345,125.200 267.600 C 125.447 268.590,125.749 269.897,125.871 270.505 C 125.993 271.113,126.251 271.708,126.446 271.829 C 126.641 271.949,126.800 272.451,126.800 272.944 C 126.800 273.437,126.949 274.011,127.130 274.220 C 127.312 274.429,127.712 275.410,128.019 276.400 C 128.925 279.323,133.141 287.521,135.731 291.400 C 140.927 299.180,148.052 306.735,154.400 311.195 C 155.170 311.736,155.980 312.322,156.200 312.497 C 158.707 314.496,170.461 320.800,171.682 320.800 C 171.989 320.800,172.411 320.948,172.620 321.128 C 172.829 321.308,174.350 321.870,176.000 322.376 C 177.650 322.883,179.450 323.438,180.000 323.610 C 196.030 328.634,217.197 326.591,233.621 318.433 C 237.415 316.549,246.431 310.978,247.200 310.043 C 247.310 309.909,248.570 308.814,250.000 307.609 C 259.070 299.966,267.482 288.178,271.556 277.400 C 272.056 276.080,272.630 274.687,272.832 274.305 C 273.034 273.923,273.200 273.336,273.200 273.000 C 273.200 272.664,273.362 272.077,273.561 271.695 C 274.502 269.884,276.078 262.213,276.826 255.800 C 277.659 248.660,276.667 235.763,274.796 229.400 C 274.537 228.520,274.232 227.213,274.119 226.496 C 274.005 225.779,273.751 225.094,273.556 224.973 C 273.360 224.852,273.200 224.349,273.200 223.856 C 273.200 223.363,273.057 222.789,272.882 222.580 C 272.707 222.371,272.324 221.480,272.031 220.600 C 270.526 216.074,265.469 206.582,263.679 204.923 C 260.408 201.891,255.780 206.450,258.270 210.250 C 260.702 213.962,264.558 221.953,265.774 225.800 C 269.302 236.964,270.293 246.352,269.003 256.400 C 268.678 258.930,268.328 261.360,268.225 261.800 C 268.122 262.240,267.742 263.860,267.379 265.400 C 261.483 290.440,240.521 311.142,215.400 316.733 C 209.083 318.139,206.655 318.400,199.921 318.400 C 193.787 318.400,192.234 318.256,186.400 317.147 C 160.733 312.269,138.654 291.023,132.621 265.400 C 132.258 263.860,131.878 262.240,131.775 261.800 C 129.774 253.250,130.145 240.832,132.688 231.200 C 133.008 229.990,133.412 228.460,133.587 227.800 C 134.390 224.771,135.449 222.195,138.030 217.000 C 155.806 181.220,199.044 167.893,234.085 187.393 C 240.910 191.191,244.336 190.335,243.317 185.085 C 243.001 183.455,236.581 179.332,230.800 177.046 C 229.810 176.655,228.460 176.091,227.800 175.794 C 223.461 173.841,216.193 172.027,209.400 171.201 C 205.702 170.752,196.085 170.353,195.200 170.612 M254.877 187.700 C 251.451 191.055,244.768 197.759,240.024 202.598 C 235.281 207.437,226.329 216.521,220.131 222.784 L 208.861 234.172 207.003 233.244 C 199.488 229.491,188.875 233.005,185.351 240.414 C 183.744 243.791,183.600 244.449,183.600 248.400 C 183.600 250.579,183.803 252.866,184.051 253.481 C 190.395 269.235,209.605 269.235,215.949 253.481 C 216.485 252.151,216.555 244.689,216.041 243.695 C 215.844 243.313,215.363 242.227,214.972 241.281 L 214.262 239.563 216.631 237.081 C 217.934 235.717,226.830 226.760,236.400 217.179 C 268.841 184.698,267.581 186.174,265.291 183.347 C 262.897 180.391,261.923 180.799,254.877 187.700 M194.000 195.029 C 186.844 195.936,182.723 197.129,176.863 199.993 C 162.823 206.854,152.998 218.814,148.436 234.600 C 144.618 247.808,147.335 265.532,154.978 277.278 C 158.195 282.222,164.884 279.234,161.953 274.162 C 160.097 270.949,157.217 264.976,157.208 264.324 C 157.204 263.952,157.041 263.549,156.846 263.429 C 156.651 263.308,156.393 262.713,156.271 262.105 C 156.149 261.497,155.846 260.190,155.598 259.200 C 154.079 253.144,154.084 243.853,155.610 237.600 C 155.852 236.610,156.149 235.303,156.271 234.695 C 156.393 234.087,156.651 233.492,156.846 233.371 C 157.041 233.251,157.200 232.888,157.200 232.565 C 157.200 230.592,162.038 222.327,165.600 218.217 C 170.320 212.769,181.227 205.200,184.357 205.200 C 184.606 205.200,185.123 205.038,185.505 204.839 C 185.887 204.640,187.010 204.268,188.000 204.012 C 188.990 203.756,190.340 203.383,191.000 203.184 C 192.980 202.587,201.974 202.317,205.400 202.751 C 211.676 203.548,214.701 204.428,220.161 207.044 C 223.368 208.580,226.232 207.032,226.162 203.801 C 226.109 201.354,223.892 199.738,217.800 197.707 C 208.800 194.707,202.305 193.976,194.000 195.029 M240.878 220.996 C 239.045 222.538,239.124 224.452,241.190 228.604 C 242.064 230.362,242.784 232.104,242.790 232.476 C 242.795 232.848,242.959 233.251,243.154 233.371 C 243.349 233.492,243.607 234.087,243.729 234.695 C 243.851 235.303,244.149 236.610,244.392 237.600 C 244.634 238.590,245.059 241.425,245.335 243.900 C 245.853 248.540,245.466 254.813,244.392 259.200 C 244.149 260.190,243.851 261.497,243.729 262.105 C 243.607 262.713,243.349 263.308,243.154 263.429 C 242.959 263.549,242.796 263.952,242.792 264.324 C 242.783 264.976,239.903 270.949,238.047 274.162 C 237.002 275.969,237.132 276.982,238.635 278.769 C 240.642 281.154,243.191 280.293,245.465 276.462 C 251.642 266.058,254.121 255.050,252.935 243.300 C 252.343 237.430,251.805 234.846,250.207 230.200 C 247.207 221.475,244.031 218.342,240.878 220.996 M203.651 240.170 C 209.163 242.498,210.628 250.386,206.356 254.729 C 200.619 260.560,191.200 256.629,191.200 248.403 C 191.200 241.934,197.681 237.648,203.651 240.170 " stroke="none" fill="#212227" fill-rule="evenodd"></path><path id="path1" d="M194.200 179.000 C 188.004 179.594,186.190 179.928,180.200 181.575 C 136.153 193.687,116.778 248.923,142.968 287.718 C 156.738 308.115,181.681 320.325,204.900 318.035 C 214.900 317.049,223.958 314.529,231.000 310.774 C 235.466 308.392,236.348 307.854,239.682 305.473 C 269.408 284.247,277.732 244.942,259.332 212.685 C 256.857 208.348,256.597 206.180,258.377 204.738 C 258.832 204.370,259.063 204.008,258.891 203.934 C 258.718 203.860,257.743 202.768,256.723 201.506 L 254.869 199.211 246.302 207.858 L 237.736 216.505 238.716 217.553 C 239.256 218.129,239.964 219.001,240.289 219.492 C 240.754 220.192,241.040 220.300,241.615 219.992 C 243.877 218.781,246.133 220.387,248.205 224.683 C 256.360 241.590,255.202 261.703,245.156 277.636 C 243.436 280.365,241.098 281.136,238.901 279.700 C 238.287 279.299,237.966 279.220,238.148 279.515 C 238.587 280.226,232.797 286.098,228.866 288.928 C 208.742 303.418,181.786 300.958,164.469 283.053 C 162.524 281.041,161.645 279.851,161.854 279.511 C 162.031 279.224,161.701 279.306,161.099 279.700 C 157.309 282.178,153.311 277.627,149.413 266.400 C 136.673 229.706,166.070 191.016,204.100 194.424 C 211.708 195.106,216.209 196.351,223.947 199.915 C 226.728 201.196,227.545 204.226,225.714 206.469 C 224.893 207.475,224.845 207.613,225.517 207.035 C 226.420 206.258,229.533 207.792,231.248 209.858 C 231.660 210.354,232.424 209.736,236.110 205.923 C 238.516 203.436,242.360 199.502,244.654 197.181 L 248.824 192.963 246.227 190.881 C 243.243 188.490,243.432 188.552,242.308 189.600 C 240.937 190.877,238.880 190.640,235.941 188.867 C 229.949 185.252,224.391 182.825,218.500 181.254 C 212.985 179.782,210.319 179.312,205.800 179.012 C 203.820 178.881,201.570 178.712,200.800 178.638 C 200.030 178.563,197.060 178.726,194.200 179.000 M197.100 203.082 C 197.595 203.178,198.405 203.178,198.900 203.082 C 199.395 202.987,198.990 202.909,198.000 202.909 C 197.010 202.909,196.605 202.987,197.100 203.082 M201.500 203.082 C 201.995 203.178,202.805 203.178,203.300 203.082 C 203.795 202.987,203.390 202.909,202.400 202.909 C 201.410 202.909,201.005 202.987,201.500 203.082 M196.660 240.866 C 194.980 241.714,193.200 243.318,193.200 243.982 C 193.200 244.212,193.020 244.400,192.800 244.400 C 192.580 244.400,192.400 244.749,192.400 245.176 C 192.400 245.603,192.220 246.064,192.000 246.200 C 191.780 246.336,191.600 247.326,191.600 248.400 C 191.600 249.474,191.780 250.464,192.000 250.600 C 192.220 250.736,192.400 251.182,192.400 251.592 C 192.400 252.559,195.841 256.000,196.808 256.000 C 197.218 256.000,197.664 256.180,197.800 256.400 C 197.936 256.620,198.926 256.800,200.000 256.800 C 201.074 256.800,202.064 256.620,202.200 256.400 C 202.336 256.180,202.761 256.000,203.145 256.000 C 203.936 256.000,206.800 253.528,206.800 252.846 C 206.800 252.601,206.980 252.400,207.200 252.400 C 207.420 252.400,207.600 252.051,207.600 251.624 C 207.600 251.197,207.780 250.736,208.000 250.600 C 208.220 250.464,208.400 249.474,208.400 248.400 C 208.400 247.326,208.220 246.336,208.000 246.200 C 207.780 246.064,207.600 245.603,207.600 245.176 C 207.600 244.749,207.420 244.400,207.200 244.400 C 206.980 244.400,206.800 244.212,206.800 243.982 C 206.800 241.311,199.946 239.205,196.660 240.866 M154.901 245.800 C 154.905 246.680,154.987 246.993,155.083 246.495 C 155.179 245.998,155.175 245.278,155.075 244.895 C 154.975 244.513,154.896 244.920,154.901 245.800 M244.893 245.600 C 244.893 246.370,244.975 246.685,245.076 246.300 C 245.176 245.915,245.176 245.285,245.076 244.900 C 244.975 244.515,244.893 244.830,244.893 245.600 M154.901 251.000 C 154.905 251.880,154.987 252.193,155.083 251.695 C 155.179 251.198,155.175 250.478,155.075 250.095 C 154.975 249.713,154.896 250.120,154.901 251.000 M244.901 251.000 C 244.905 251.880,244.987 252.193,245.083 251.695 C 245.179 251.198,245.175 250.478,245.075 250.095 C 244.975 249.713,244.896 250.120,244.901 251.000 M198.900 265.887 C 199.505 265.978,200.495 265.978,201.100 265.887 C 201.705 265.795,201.210 265.720,200.000 265.720 C 198.790 265.720,198.295 265.795,198.900 265.887 " stroke="none" fill="#83e2e2" fill-rule="evenodd"></path><path id="path2" d="M196.767 14.900 C 195.115 16.935,191.799 21.030,189.398 24.000 C 186.997 26.970,184.930 29.490,184.806 29.600 C 184.681 29.710,183.959 30.610,183.200 31.600 C 182.441 32.590,181.724 33.490,181.605 33.600 C 181.486 33.710,180.584 34.790,179.600 36.000 C 178.616 37.210,177.717 38.290,177.603 38.400 C 177.489 38.510,176.904 39.259,176.304 40.065 C 175.703 40.871,174.984 41.771,174.706 42.065 C 174.428 42.359,172.676 44.490,170.814 46.800 C 162.729 56.828,158.969 61.451,158.308 62.175 C 157.063 63.539,157.436 63.600,167.100 63.600 L 176.600 63.601 177.800 64.633 L 179.000 65.665 179.098 108.732 C 179.175 142.598,179.089 152.014,178.695 152.800 C 177.896 154.393,175.519 155.367,173.809 154.803 C 170.961 153.863,170.800 153.296,170.800 144.179 C 170.800 134.885,170.777 134.748,169.274 135.244 C 168.683 135.439,166.310 136.211,164.000 136.959 C 155.948 139.568,147.026 143.626,140.573 147.618 C 133.150 152.208,134.806 152.880,121.800 140.005 C 107.896 126.241,110.210 126.127,94.911 141.330 C 78.482 157.654,78.584 155.714,93.386 170.400 C 104.777 181.702,104.716 181.563,100.814 187.200 C 99.425 189.207,95.307 197.056,93.889 200.400 C 93.562 201.170,93.023 202.430,92.691 203.200 C 90.781 207.630,88.344 215.129,87.204 220.083 C 85.376 228.024,86.408 227.600,68.913 227.601 C 49.111 227.602,50.799 225.667,50.801 248.359 C 50.804 271.111,48.880 268.922,69.113 269.200 L 83.663 269.400 85.031 270.894 C 85.784 271.716,86.400 272.752,86.400 273.196 C 86.400 275.347,90.293 288.005,92.644 293.500 C 92.950 294.215,93.489 295.475,93.841 296.300 C 95.320 299.759,99.511 307.787,100.748 309.532 C 104.763 315.191,104.985 314.705,92.779 327.000 C 78.772 341.111,78.630 339.145,94.828 355.523 C 109.995 370.861,108.025 370.770,121.873 356.774 C 133.816 344.705,133.424 344.919,138.200 347.831 C 139.520 348.636,141.230 349.666,142.000 350.120 C 144.117 351.369,152.774 355.702,154.807 356.531 C 155.793 356.933,157.050 357.452,157.600 357.685 C 158.150 357.917,158.960 358.255,159.400 358.436 C 160.345 358.824,167.673 361.127,169.400 361.578 C 176.479 363.429,177.113 363.656,178.086 364.691 C 178.996 365.658,179.001 365.731,179.200 380.395 L 179.400 395.127 180.638 396.664 C 182.614 399.117,182.911 399.155,200.000 399.155 C 217.089 399.155,217.386 399.117,219.362 396.664 L 220.600 395.127 220.800 380.395 C 221.041 362.653,220.474 364.135,227.700 362.367 C 231.434 361.453,238.373 359.337,240.600 358.432 C 241.040 358.253,241.850 357.927,242.400 357.707 C 242.950 357.487,243.850 357.123,244.400 356.897 C 246.242 356.143,256.181 351.209,257.800 350.246 C 258.680 349.722,260.480 348.635,261.800 347.831 C 266.575 344.920,266.174 344.701,278.144 356.784 C 292.002 370.772,289.989 370.866,305.167 355.523 C 316.682 343.881,317.600 342.760,317.600 340.332 C 317.600 337.663,316.852 336.702,307.221 327.000 C 295.025 314.715,295.273 315.253,299.186 309.600 C 300.586 307.577,304.659 299.808,306.159 296.300 C 306.511 295.475,307.050 294.215,307.356 293.500 C 309.707 288.005,313.600 275.347,313.600 273.196 C 313.600 272.752,314.216 271.716,314.969 270.894 L 316.337 269.400 330.887 269.200 C 351.120 268.922,349.196 271.111,349.199 248.359 C 349.201 225.667,350.889 227.602,331.087 227.601 C 314.086 227.600,314.495 227.733,313.216 221.800 C 312.041 216.352,309.476 208.253,307.356 203.300 C 307.050 202.585,306.511 201.325,306.159 200.500 C 304.659 196.992,300.586 189.223,299.186 187.200 C 295.284 181.563,295.223 181.702,306.614 170.400 C 321.416 155.714,321.518 157.656,305.089 141.325 C 289.800 126.127,292.115 126.240,278.200 140.009 C 265.209 152.864,266.831 152.198,259.529 147.679 C 251.647 142.802,231.011 134.128,229.504 135.059 C 229.337 135.163,229.200 139.082,229.200 143.770 C 229.200 153.343,229.060 153.856,226.191 154.803 C 224.481 155.367,222.104 154.393,221.305 152.800 C 220.911 152.014,220.825 142.598,220.902 108.732 L 221.000 65.665 222.200 64.633 L 223.400 63.601 232.900 63.600 C 242.564 63.600,242.938 63.539,241.691 62.175 C 241.301 61.749,237.656 57.279,233.591 52.242 C 229.526 47.205,226.017 42.885,225.794 42.642 C 225.571 42.399,224.766 41.390,224.005 40.400 C 223.243 39.410,222.519 38.510,222.396 38.400 C 222.272 38.290,220.647 36.310,218.785 34.000 C 216.923 31.690,215.172 29.559,214.894 29.265 C 214.616 28.971,213.897 28.071,213.296 27.265 C 212.696 26.459,212.104 25.710,211.981 25.600 C 211.858 25.490,210.231 23.510,208.367 21.200 C 202.081 13.413,200.230 11.200,199.999 11.200 C 199.873 11.200,198.419 12.865,196.767 14.900 M212.000 170.997 C 221.805 172.644,230.738 175.852,239.030 180.704 C 243.462 183.297,243.798 183.693,243.811 186.334 C 243.825 189.068,243.816 189.052,246.601 191.201 L 248.826 192.918 254.767 187.059 C 259.910 181.987,260.879 181.200,261.980 181.200 C 264.708 181.200,266.378 182.893,266.391 185.671 L 266.400 187.542 260.800 193.200 C 254.388 199.678,254.690 199.018,256.898 201.742 L 258.595 203.837 260.830 203.675 C 264.223 203.430,267.951 208.565,271.957 219.000 C 272.463 220.320,273.022 221.760,273.199 222.200 C 274.287 224.917,275.481 229.386,276.349 234.000 C 278.401 244.905,277.971 257.960,275.228 268.000 C 273.338 274.917,272.757 276.469,269.769 282.600 C 267.168 287.935,263.210 294.582,262.028 295.600 C 261.900 295.710,261.263 296.520,260.612 297.400 C 243.859 320.041,210.868 331.566,182.400 324.723 C 165.535 320.668,148.685 309.965,139.388 297.400 C 138.737 296.520,138.099 295.710,137.970 295.600 C 137.424 295.134,133.600 289.200,133.600 288.818 C 133.600 288.588,133.465 288.399,133.300 288.397 C 133.135 288.395,132.809 287.990,132.575 287.497 C 132.342 287.004,131.598 285.520,130.922 284.200 C 125.073 272.778,122.400 261.551,122.400 248.400 C 122.400 239.356,123.549 232.024,126.319 223.400 C 127.533 219.620,130.951 212.227,133.427 208.024 C 134.589 206.052,137.611 201.512,137.970 201.200 C 138.096 201.090,138.911 200.100,139.781 199.000 C 156.563 177.764,185.497 166.544,212.000 170.997 M223.592 230.700 L 219.800 234.600 223.700 230.808 C 227.322 227.286,227.782 226.800,227.492 226.800 C 227.433 226.800,225.678 228.555,223.592 230.700 M244.901 248.200 C 244.905 249.080,244.987 249.393,245.083 248.895 C 245.179 248.398,245.175 247.678,245.075 247.295 C 244.975 246.913,244.896 247.320,244.901 248.200 M154.893 248.400 C 154.893 249.170,154.975 249.485,155.076 249.100 C 155.176 248.715,155.176 248.085,155.076 247.700 C 154.975 247.315,154.893 247.630,154.893 248.400 M182.493 248.400 C 182.493 249.170,182.575 249.485,182.676 249.100 C 182.776 248.715,182.776 248.085,182.676 247.700 C 182.575 247.315,182.493 247.630,182.493 248.400 " stroke="none" fill="#fbdb7c" fill-rule="evenodd"></path><path id="path3" d="M192.800 203.600 C 192.470 203.813,191.673 203.991,191.028 203.994 C 189.848 204.000,187.590 204.600,186.305 205.249 C 185.923 205.442,185.336 205.600,185.000 205.600 C 184.664 205.600,184.077 205.760,183.695 205.956 C 183.313 206.152,182.101 206.737,181.002 207.256 C 173.297 210.897,167.181 216.288,162.231 223.805 C 161.004 225.668,160.000 227.280,160.000 227.386 C 160.000 227.493,159.460 228.759,158.800 230.200 C 158.140 231.641,157.600 233.075,157.600 233.386 C 157.600 233.698,157.440 234.052,157.244 234.173 C 157.049 234.294,156.788 234.979,156.666 235.696 C 156.544 236.413,156.233 237.900,155.974 239.000 C 155.289 241.915,155.032 253.725,155.596 256.400 C 156.291 259.696,156.836 261.720,157.239 262.495 C 157.438 262.877,157.600 263.428,157.600 263.719 C 157.600 264.740,161.761 273.051,162.838 274.180 C 163.479 274.853,163.224 277.267,162.364 278.658 L 161.528 280.011 164.464 283.047 C 184.066 303.316,215.599 303.458,235.211 283.365 L 238.477 280.019 237.638 278.662 C 236.776 277.267,236.520 274.854,237.162 274.180 C 238.353 272.931,242.400 264.716,242.400 263.548 C 242.400 263.163,242.580 262.736,242.800 262.600 C 243.020 262.464,243.200 261.859,243.200 261.256 C 243.200 260.653,243.362 259.989,243.559 259.780 C 244.552 258.729,244.946 242.894,244.077 239.000 C 243.831 237.900,243.513 236.413,243.369 235.695 C 243.225 234.977,242.949 234.292,242.754 234.171 C 242.559 234.051,242.400 233.691,242.400 233.372 C 242.400 232.805,241.731 231.187,239.707 226.865 C 238.559 224.414,238.653 222.434,239.985 221.016 L 240.801 220.147 239.515 218.474 C 237.797 216.239,238.909 215.425,226.476 228.027 C 214.319 240.350,214.903 239.645,215.607 241.139 C 223.853 258.631,201.050 274.479,187.706 260.529 C 174.596 246.824,189.021 225.545,206.721 232.479 L 208.842 233.310 220.212 221.785 C 228.642 213.238,231.475 210.131,231.171 209.765 C 230.945 209.492,229.778 208.594,228.578 207.767 L 226.396 206.264 225.366 207.232 C 224.003 208.513,221.606 208.519,218.972 207.249 C 215.460 205.556,213.696 204.982,207.894 203.641 C 205.549 203.098,193.626 203.066,192.800 203.600 " stroke="none" fill="#f8fafa" fill-rule="evenodd"></path><path id="path4" d="M195.768 15.289 C 193.806 17.757,191.570 20.524,190.800 21.436 C 190.030 22.349,189.129 23.434,188.797 23.848 C 187.258 25.770,179.199 35.715,177.006 38.400 C 175.658 40.050,172.591 43.830,170.190 46.800 C 167.789 49.770,165.591 52.441,165.306 52.735 C 165.021 53.029,164.297 53.929,163.696 54.735 C 163.096 55.541,162.504 56.290,162.381 56.400 C 161.265 57.396,156.852 63.361,157.024 63.639 C 157.147 63.838,161.386 64.000,166.443 64.000 C 176.948 64.000,177.666 64.162,178.404 66.702 C 178.709 67.751,178.804 80.829,178.720 110.335 L 178.600 152.469 177.478 153.435 C 175.994 154.711,174.006 154.711,172.522 153.435 L 171.400 152.471 171.278 143.735 C 171.133 133.317,171.324 133.622,166.200 135.600 C 165.760 135.770,164.590 136.142,163.600 136.426 C 162.610 136.711,161.620 137.059,161.400 137.200 C 161.180 137.341,160.190 137.701,159.200 138.000 C 158.210 138.299,157.220 138.662,157.000 138.807 C 156.780 138.951,155.520 139.496,154.200 140.017 C 151.392 141.125,143.091 145.338,141.544 146.440 C 140.957 146.858,140.357 147.200,140.210 147.200 C 140.064 147.200,139.192 147.708,138.272 148.328 C 133.693 151.417,134.318 151.756,122.028 139.505 C 107.999 125.521,110.166 125.405,94.497 140.971 C 77.873 157.487,78.006 155.674,92.359 170.200 C 103.935 181.916,103.825 181.723,101.177 185.600 C 95.579 193.799,88.931 209.817,86.193 221.707 C 85.710 223.803,85.159 225.132,84.499 225.792 L 83.520 226.771 69.460 226.886 C 53.367 227.017,53.245 227.040,51.146 230.349 L 50.000 232.157 50.000 248.229 C 50.000 261.163,50.110 264.566,50.565 265.653 C 51.191 267.153,53.274 269.200,54.173 269.200 C 54.492 269.200,54.864 269.380,55.000 269.600 C 55.157 269.854,60.386 270.000,69.369 270.000 L 83.491 270.000 84.481 270.991 C 85.198 271.707,85.724 273.064,86.381 275.891 C 88.236 283.864,92.593 295.720,96.085 302.300 C 98.975 307.745,99.623 308.890,100.715 310.487 C 103.951 315.218,104.198 314.739,92.347 326.678 C 78.044 341.086,77.932 339.241,94.094 355.468 C 110.102 371.540,107.831 371.414,122.303 357.037 L 132.406 347.000 134.303 347.000 C 135.777 347.000,136.602 347.279,138.000 348.250 C 141.582 350.738,152.582 356.382,157.000 358.000 C 157.440 358.161,158.250 358.479,158.800 358.706 C 159.350 358.933,160.430 359.336,161.200 359.600 C 161.970 359.864,162.960 360.222,163.400 360.395 C 163.840 360.567,165.010 360.934,166.000 361.208 C 169.669 362.227,170.622 362.510,171.519 362.851 C 172.024 363.043,172.857 363.200,173.370 363.200 C 174.702 363.200,176.883 364.187,177.808 365.208 C 178.559 366.037,178.610 366.846,178.800 380.773 L 179.000 395.464 180.153 396.974 C 182.155 399.599,182.166 399.600,200.000 399.600 C 217.834 399.600,217.845 399.599,219.847 396.974 L 221.000 395.464 221.200 380.773 C 221.436 363.475,221.195 364.260,226.600 363.167 C 230.002 362.478,230.626 362.330,231.400 362.021 C 231.840 361.846,234.000 361.131,236.200 360.433 C 238.400 359.735,240.605 358.992,241.100 358.782 C 241.595 358.572,242.405 358.244,242.900 358.054 C 248.047 356.072,258.354 350.782,262.000 348.250 C 263.398 347.279,264.223 347.000,265.697 347.000 L 267.594 347.000 277.697 357.037 C 292.169 371.414,289.898 371.540,305.906 355.468 C 322.072 339.237,321.960 341.075,307.661 326.686 C 295.845 314.794,296.072 315.225,299.193 310.600 C 300.244 309.042,301.822 306.270,303.972 302.200 C 307.432 295.653,311.780 283.795,313.619 275.891 C 314.276 273.064,314.802 271.707,315.519 270.991 L 316.509 270.000 330.631 270.000 C 339.614 270.000,344.843 269.854,345.000 269.600 C 345.136 269.380,345.508 269.200,345.827 269.200 C 346.726 269.200,348.809 267.153,349.435 265.653 C 349.889 264.567,350.000 261.185,350.000 248.389 C 350.000 225.456,351.245 226.800,329.995 226.800 L 316.509 226.800 315.539 225.830 C 314.871 225.162,314.284 223.701,313.652 221.130 C 310.582 208.655,304.320 193.650,298.823 185.600 C 296.172 181.719,296.150 181.758,307.408 170.400 C 322.033 155.645,322.154 157.514,305.503 140.971 C 289.818 125.390,292.086 125.484,277.600 139.813 C 265.548 151.734,266.162 151.401,261.782 148.388 C 258.929 146.425,249.279 141.386,244.900 139.573 C 244.405 139.368,243.505 138.999,242.900 138.753 C 242.295 138.508,241.487 138.148,241.105 137.953 C 240.723 137.759,240.084 137.600,239.685 137.600 C 239.286 137.600,238.789 137.451,238.580 137.270 C 238.371 137.088,237.390 136.707,236.400 136.424 C 235.410 136.141,234.240 135.770,233.800 135.600 C 228.676 133.622,228.867 133.317,228.722 143.735 L 228.600 152.471 227.478 153.435 C 225.994 154.711,224.006 154.711,222.522 153.435 L 221.400 152.469 221.280 110.335 C 221.196 80.829,221.291 67.751,221.596 66.702 C 222.334 64.162,223.052 64.000,233.557 64.000 C 238.614 64.000,242.853 63.838,242.976 63.639 C 243.150 63.358,238.671 57.314,237.611 56.400 C 237.484 56.290,236.759 55.390,236.000 54.400 C 235.241 53.410,234.526 52.510,234.410 52.400 C 234.157 52.159,232.761 50.438,225.000 40.800 C 221.723 36.730,218.934 33.310,218.802 33.200 C 218.670 33.090,217.049 31.110,215.200 28.800 C 213.351 26.490,211.738 24.510,211.617 24.400 C 211.495 24.290,210.922 23.570,210.343 22.800 C 209.764 22.030,208.892 20.950,208.404 20.400 C 207.917 19.850,205.976 17.465,204.091 15.100 C 199.882 9.818,200.120 9.813,195.768 15.289 M202.603 14.100 C 203.908 15.695,206.502 18.890,208.367 21.200 C 210.231 23.510,211.858 25.490,211.981 25.600 C 212.104 25.710,212.696 26.459,213.296 27.265 C 213.897 28.071,214.616 28.971,214.894 29.265 C 215.172 29.559,216.923 31.690,218.785 34.000 C 220.647 36.310,222.272 38.290,222.396 38.400 C 222.519 38.510,223.243 39.410,224.005 40.400 C 224.766 41.390,225.571 42.399,225.794 42.642 C 226.017 42.885,229.526 47.205,233.591 52.242 C 237.656 57.279,241.301 61.749,241.691 62.175 C 242.938 63.539,242.564 63.600,232.900 63.600 L 223.400 63.601 222.200 64.633 L 221.000 65.665 220.902 108.732 C 220.825 142.598,220.911 152.014,221.305 152.800 C 222.104 154.393,224.481 155.367,226.191 154.803 C 229.060 153.856,229.200 153.343,229.200 143.770 C 229.200 139.082,229.337 135.163,229.504 135.059 C 231.011 134.128,251.647 142.802,259.529 147.679 C 266.831 152.198,265.209 152.864,278.200 140.009 C 292.115 126.240,289.800 126.127,305.089 141.325 C 321.518 157.656,321.416 155.714,306.614 170.400 C 295.223 181.702,295.284 181.563,299.186 187.200 C 300.586 189.223,304.659 196.992,306.159 200.500 C 306.511 201.325,307.050 202.585,307.356 203.300 C 309.476 208.253,312.041 216.352,313.216 221.800 C 314.495 227.733,314.086 227.600,331.087 227.601 C 350.889 227.602,349.201 225.667,349.199 248.359 C 349.196 271.111,351.120 268.922,330.887 269.200 L 316.337 269.400 314.969 270.894 C 314.216 271.716,313.600 272.752,313.600 273.196 C 313.600 275.347,309.707 288.005,307.356 293.500 C 307.050 294.215,306.511 295.475,306.159 296.300 C 304.659 299.808,300.586 307.577,299.186 309.600 C 295.273 315.253,295.025 314.715,307.221 327.000 C 321.229 341.111,321.370 339.142,305.167 355.523 C 289.989 370.866,292.002 370.772,278.144 356.784 C 266.174 344.701,266.575 344.920,261.800 347.831 C 260.480 348.635,258.680 349.722,257.800 350.246 C 256.181 351.209,246.242 356.143,244.400 356.897 C 243.850 357.123,242.950 357.487,242.400 357.707 C 241.850 357.927,241.040 358.253,240.600 358.432 C 238.373 359.337,231.434 361.453,227.700 362.367 C 220.474 364.135,221.041 362.653,220.800 380.395 L 220.600 395.127 219.362 396.664 C 217.386 399.117,217.089 399.155,200.000 399.155 C 182.911 399.155,182.614 399.117,180.638 396.664 L 179.400 395.127 179.200 380.395 C 179.001 365.731,178.996 365.658,178.086 364.691 C 177.113 363.656,176.479 363.429,169.400 361.578 C 167.673 361.127,160.345 358.824,159.400 358.436 C 158.960 358.255,158.150 357.917,157.600 357.685 C 157.050 357.452,155.793 356.933,154.807 356.531 C 152.774 355.702,144.117 351.369,142.000 350.120 C 141.230 349.666,139.520 348.636,138.200 347.831 C 133.424 344.919,133.816 344.705,121.873 356.774 C 108.025 370.770,109.995 370.861,94.828 355.523 C 83.321 343.888,82.400 342.762,82.400 340.332 C 82.400 337.663,83.148 336.702,92.779 327.000 C 104.985 314.705,104.763 315.191,100.748 309.532 C 99.511 307.787,95.320 299.759,93.841 296.300 C 93.489 295.475,92.950 294.215,92.644 293.500 C 90.293 288.005,86.400 275.347,86.400 273.196 C 86.400 272.752,85.784 271.716,85.031 270.894 L 83.663 269.400 69.113 269.200 C 48.880 268.922,50.804 271.111,50.801 248.359 C 50.799 225.667,49.111 227.602,68.913 227.601 C 86.408 227.600,85.376 228.024,87.204 220.083 C 88.344 215.129,90.781 207.630,92.691 203.200 C 93.023 202.430,93.562 201.170,93.889 200.400 C 95.307 197.056,99.425 189.207,100.814 187.200 C 104.716 181.563,104.777 181.702,93.386 170.400 C 78.584 155.714,78.482 157.654,94.911 141.330 C 110.210 126.127,107.896 126.241,121.800 140.005 C 134.806 152.880,133.150 152.208,140.573 147.618 C 147.026 143.626,155.948 139.568,164.000 136.959 C 166.310 136.211,168.683 135.439,169.274 135.244 C 170.777 134.748,170.800 134.885,170.800 144.179 C 170.800 153.296,170.961 153.863,173.809 154.803 C 175.519 155.367,177.896 154.393,178.695 152.800 C 179.089 152.014,179.175 142.598,179.098 108.732 L 179.000 65.665 177.800 64.633 L 176.600 63.601 167.100 63.600 C 157.436 63.600,157.063 63.539,158.308 62.175 C 158.969 61.451,162.729 56.828,170.814 46.800 C 172.676 44.490,174.428 42.359,174.706 42.065 C 174.984 41.771,175.703 40.871,176.304 40.065 C 176.904 39.259,177.489 38.510,177.603 38.400 C 177.717 38.290,178.616 37.210,179.600 36.000 C 180.584 34.790,181.486 33.710,181.605 33.600 C 181.724 33.490,182.441 32.590,183.200 31.600 C 183.959 30.610,184.681 29.710,184.806 29.600 C 184.930 29.490,186.997 26.970,189.398 24.000 C 198.491 12.752,199.777 11.200,199.999 11.200 C 200.126 11.200,201.297 12.505,202.603 14.100 M192.111 170.399 C 171.946 172.522,152.159 183.336,139.781 199.000 C 138.911 200.100,138.096 201.090,137.970 201.200 C 136.950 202.087,132.966 208.637,130.670 213.200 C 127.416 219.668,125.381 225.441,123.973 232.200 C 121.577 243.699,121.889 257.340,124.795 268.100 C 126.653 274.980,127.962 278.420,130.922 284.200 C 131.598 285.520,132.342 287.004,132.575 287.497 C 132.809 287.990,133.135 288.395,133.300 288.397 C 133.465 288.399,133.600 288.588,133.600 288.818 C 133.600 289.200,137.424 295.134,137.970 295.600 C 138.099 295.710,138.737 296.520,139.388 297.400 C 148.685 309.965,165.535 320.668,182.400 324.723 C 210.868 331.566,243.859 320.041,260.612 297.400 C 261.263 296.520,261.900 295.710,262.028 295.600 C 263.210 294.582,267.168 287.935,269.769 282.600 C 272.757 276.469,273.338 274.917,275.228 268.000 C 277.971 257.960,278.401 244.905,276.349 234.000 C 275.481 229.386,274.287 224.917,273.199 222.200 C 273.022 221.760,272.463 220.320,271.957 219.000 C 270.054 214.043,265.972 206.496,264.222 204.700 C 262.418 202.850,257.549 203.639,257.613 205.772 C 257.620 206.007,257.845 205.914,258.113 205.565 C 259.454 203.818,262.151 203.507,263.679 204.923 C 265.469 206.582,270.526 216.074,272.031 220.600 C 272.324 221.480,272.707 222.371,272.882 222.580 C 273.057 222.789,273.200 223.363,273.200 223.856 C 273.200 224.349,273.360 224.852,273.556 224.973 C 273.751 225.094,274.005 225.779,274.119 226.496 C 274.232 227.213,274.537 228.520,274.796 229.400 C 276.667 235.763,277.659 248.660,276.826 255.800 C 276.078 262.213,274.502 269.884,273.561 271.695 C 273.362 272.077,273.200 272.664,273.200 273.000 C 273.200 273.336,273.034 273.923,272.832 274.305 C 272.630 274.687,272.056 276.080,271.556 277.400 C 267.482 288.178,259.070 299.966,250.000 307.609 C 248.570 308.814,247.310 309.909,247.200 310.043 C 246.431 310.978,237.415 316.549,233.621 318.433 C 217.197 326.591,196.030 328.634,180.000 323.610 C 179.450 323.438,177.650 322.883,176.000 322.376 C 174.350 321.870,172.829 321.308,172.620 321.128 C 172.411 320.948,171.989 320.800,171.682 320.800 C 170.461 320.800,158.707 314.496,156.200 312.497 C 155.980 312.322,155.170 311.736,154.400 311.195 C 143.761 303.721,131.461 287.498,128.019 276.400 C 127.712 275.410,127.312 274.429,127.130 274.220 C 126.949 274.011,126.800 273.437,126.800 272.944 C 126.800 272.451,126.641 271.949,126.446 271.829 C 126.251 271.708,125.993 271.113,125.871 270.505 C 125.749 269.897,125.447 268.590,125.200 267.600 C 122.694 257.571,122.230 244.365,124.047 234.800 C 124.997 229.802,125.899 226.145,126.439 225.105 C 126.638 224.723,126.800 224.136,126.800 223.800 C 126.800 223.464,126.966 222.877,127.168 222.495 C 127.370 222.113,127.941 220.720,128.435 219.400 C 132.684 208.061,140.755 197.085,151.857 187.552 C 159.046 181.377,171.121 175.408,181.800 172.748 C 196.342 169.127,215.860 170.419,227.800 175.794 C 228.460 176.091,229.810 176.655,230.800 177.046 C 236.580 179.332,242.991 183.449,243.313 185.082 C 244.240 189.781,240.783 191.210,235.639 188.253 C 231.788 186.040,229.200 184.726,229.200 184.985 C 229.200 185.096,230.145 185.665,231.300 186.250 C 232.455 186.835,234.543 188.008,235.941 188.857 C 240.472 191.609,243.800 190.484,243.800 186.201 C 243.800 183.710,243.421 183.273,239.030 180.704 C 225.153 172.584,207.724 168.756,192.111 170.399 M191.800 178.823 C 190.880 179.000,192.069 179.041,194.600 178.918 C 197.020 178.801,199.075 178.636,199.167 178.553 C 199.462 178.283,193.455 178.503,191.800 178.823 M200.833 178.553 C 200.925 178.636,202.980 178.803,205.400 178.922 C 208.418 179.070,209.172 179.033,207.800 178.804 C 205.764 178.464,200.530 178.275,200.833 178.553 M186.800 179.600 L 185.800 179.920 186.800 179.932 C 187.350 179.938,188.160 179.789,188.600 179.600 L 189.400 179.256 188.600 179.268 C 188.160 179.274,187.350 179.424,186.800 179.600 M211.200 179.600 C 211.750 179.776,212.650 179.917,213.200 179.913 C 214.098 179.906,214.078 179.874,213.000 179.600 C 211.308 179.169,209.856 179.169,211.200 179.600 M183.200 180.400 C 182.396 180.657,182.357 180.723,183.000 180.732 C 183.440 180.738,184.160 180.589,184.600 180.400 C 185.619 179.962,184.568 179.962,183.200 180.400 M215.200 180.400 C 215.530 180.613,216.250 180.773,216.800 180.754 L 217.800 180.720 216.800 180.400 C 215.258 179.906,214.436 179.906,215.200 180.400 M180.200 181.200 L 179.400 181.544 180.200 181.566 C 180.640 181.578,181.270 181.413,181.600 181.200 C 182.395 180.686,181.396 180.686,180.200 181.200 M218.400 181.200 C 218.730 181.413,219.360 181.578,219.800 181.566 L 220.600 181.544 219.800 181.200 C 218.604 180.686,217.605 180.686,218.400 181.200 M234.747 207.293 L 208.894 233.400 206.947 232.653 C 189.192 225.845,174.851 246.739,187.876 260.438 C 189.757 262.416,190.788 263.092,194.761 264.951 C 195.289 265.198,197.647 265.400,200.000 265.400 C 202.353 265.400,204.711 265.198,205.239 264.951 C 209.258 263.071,210.307 262.375,212.190 260.341 C 217.646 254.448,218.571 247.380,214.870 239.859 C 214.778 239.672,222.957 231.257,233.045 221.159 C 243.134 211.062,251.264 202.800,251.112 202.800 C 250.847 202.800,221.488 231.987,216.629 237.081 L 214.262 239.563 214.972 241.281 C 215.363 242.227,215.844 243.313,216.041 243.695 C 216.555 244.689,216.485 252.151,215.949 253.481 C 210.263 267.601,191.529 269.380,185.351 256.387 C 183.744 253.007,183.600 252.351,183.600 248.400 C 183.600 244.449,183.744 243.791,185.351 240.414 C 188.875 233.005,199.488 229.491,207.003 233.244 L 208.861 234.172 220.296 222.586 C 264.923 177.367,262.076 179.882,265.034 183.075 C 267.254 185.470,266.734 186.515,259.831 193.528 C 256.438 196.975,253.736 199.870,253.827 199.961 C 253.918 200.051,256.784 197.289,260.196 193.823 L 266.400 187.521 266.391 185.660 C 266.378 182.875,264.712 181.208,261.926 181.193 C 260.699 181.186,258.665 183.139,234.747 207.293 M170.800 184.800 C 170.030 185.222,169.513 185.574,169.651 185.583 C 170.065 185.611,172.800 184.405,172.800 184.195 C 172.800 183.846,172.225 184.020,170.800 184.800 M165.810 187.428 C 154.860 193.683,144.953 203.876,138.906 215.109 C 137.754 217.249,136.812 219.180,136.813 219.400 C 136.814 219.620,137.676 218.180,138.727 216.200 C 145.208 203.997,154.700 194.065,165.875 187.793 C 168.693 186.211,169.611 185.588,169.100 185.603 C 169.045 185.605,167.565 186.426,165.810 187.428 M199.300 194.276 C 199.685 194.376,200.315 194.376,200.700 194.276 C 201.085 194.175,200.770 194.093,200.000 194.093 C 199.230 194.093,198.915 194.175,199.300 194.276 M195.305 194.687 C 195.914 194.779,196.814 194.777,197.305 194.682 C 197.797 194.587,197.300 194.511,196.200 194.514 C 195.100 194.517,194.697 194.595,195.305 194.687 M202.905 194.687 C 203.514 194.779,204.414 194.777,204.905 194.682 C 205.397 194.587,204.900 194.511,203.800 194.514 C 202.700 194.517,202.297 194.595,202.905 194.687 M191.500 195.082 C 191.995 195.178,192.805 195.178,193.300 195.082 C 193.795 194.987,193.390 194.909,192.400 194.909 C 191.410 194.909,191.005 194.987,191.500 195.082 M208.000 195.238 C 210.870 195.672,213.719 196.363,217.573 197.560 C 218.328 197.794,218.778 197.846,218.573 197.675 C 218.368 197.503,217.570 197.171,216.800 196.936 C 215.484 196.534,214.596 196.292,210.554 195.232 C 209.648 194.994,208.208 194.824,207.354 194.852 C 205.958 194.900,206.023 194.939,208.000 195.238 M188.000 195.616 C 187.230 195.794,185.880 196.145,185.000 196.397 C 184.120 196.649,182.992 196.955,182.494 197.076 C 181.996 197.197,181.497 197.442,181.386 197.622 C 181.275 197.802,181.773 197.765,182.492 197.541 C 184.732 196.843,186.533 196.363,188.367 195.974 C 189.339 195.768,190.224 195.509,190.334 195.400 C 190.597 195.136,189.725 195.217,188.000 195.616 M176.200 199.928 C 171.071 202.595,166.963 205.502,163.343 209.026 L 160.200 212.085 163.400 209.219 C 167.605 205.452,172.675 202.010,177.276 199.799 C 179.324 198.815,180.730 198.021,180.400 198.033 C 180.070 198.046,178.180 198.898,176.200 199.928 M223.000 199.871 C 224.100 200.439,225.060 201.061,225.133 201.252 C 225.207 201.443,225.454 201.600,225.682 201.600 C 226.486 201.600,225.168 200.473,223.384 199.634 C 220.880 198.457,220.599 198.630,223.000 199.871 M226.161 203.743 C 226.233 207.034,223.398 208.594,220.161 207.044 C 214.701 204.428,211.676 203.548,205.400 202.751 C 201.974 202.317,192.980 202.587,191.000 203.184 C 190.340 203.383,188.990 203.756,188.000 204.012 C 187.010 204.268,185.887 204.640,185.505 204.839 C 185.123 205.038,184.606 205.200,184.357 205.200 C 181.227 205.200,170.320 212.769,165.600 218.217 C 162.038 222.327,157.200 230.592,157.200 232.565 C 157.200 232.888,157.041 233.251,156.846 233.371 C 156.651 233.492,156.393 234.087,156.271 234.695 C 156.149 235.303,155.852 236.610,155.610 237.600 C 154.084 243.853,154.079 253.144,155.598 259.200 C 155.846 260.190,156.149 261.497,156.271 262.105 C 156.393 262.713,156.651 263.308,156.846 263.429 C 157.041 263.549,157.204 263.952,157.208 264.324 C 157.213 264.696,158.087 266.710,159.150 268.800 C 162.160 274.718,162.469 275.264,162.690 275.043 C 162.804 274.929,162.436 274.049,161.872 273.087 C 150.418 253.541,153.024 231.224,168.566 215.787 C 181.660 202.781,201.835 199.188,218.710 206.859 C 223.711 209.132,228.837 206.231,226.455 202.475 C 226.252 202.155,226.137 202.648,226.161 203.743 M257.301 207.800 C 257.305 208.680,257.387 208.993,257.483 208.495 C 257.579 207.998,257.575 207.278,257.475 206.895 C 257.375 206.513,257.296 206.920,257.301 207.800 M258.186 210.700 C 258.535 211.415,258.906 212.000,259.010 212.000 C 259.408 212.000,259.152 211.363,258.367 210.400 L 257.552 209.400 258.186 210.700 M158.164 214.519 C 155.436 217.990,152.378 222.927,151.488 225.300 C 150.922 226.809,151.569 225.866,152.987 223.119 C 154.765 219.671,156.320 217.324,158.695 214.500 C 159.667 213.345,160.313 212.409,160.131 212.419 C 159.949 212.429,159.064 213.374,158.164 214.519 M261.104 215.866 C 262.147 217.882,263.057 219.475,263.126 219.407 C 263.301 219.232,260.601 213.973,259.837 213.000 C 259.491 212.560,260.061 213.850,261.104 215.866 M241.405 220.085 C 238.248 221.915,238.261 223.249,241.509 230.600 C 246.211 241.243,246.323 255.846,241.781 265.844 C 241.470 266.528,241.077 267.431,240.908 267.850 C 240.739 268.269,239.816 270.015,238.858 271.731 C 237.900 273.446,237.206 274.940,237.317 275.050 C 237.530 275.264,237.850 274.699,240.850 268.800 C 241.913 266.710,242.787 264.696,242.792 264.324 C 242.796 263.952,242.959 263.549,243.154 263.429 C 243.349 263.308,243.607 262.713,243.729 262.105 C 243.851 261.497,244.149 260.190,244.392 259.200 C 244.634 258.210,245.059 255.375,245.335 252.900 C 245.853 248.260,245.466 241.987,244.392 237.600 C 244.149 236.610,243.851 235.303,243.729 234.695 C 243.607 234.087,243.349 233.492,243.154 233.371 C 242.959 233.251,242.795 232.848,242.790 232.476 C 242.784 232.104,242.064 230.362,241.190 228.604 C 238.571 223.341,239.611 219.508,243.487 220.137 C 244.270 220.264,244.722 220.198,244.585 219.976 C 244.266 219.460,242.372 219.525,241.405 220.085 M135.947 221.100 C 134.574 224.589,133.603 227.472,133.625 227.998 C 133.639 228.329,133.980 227.610,134.383 226.400 C 134.786 225.190,135.492 223.255,135.952 222.100 C 136.412 220.945,136.696 220.000,136.584 220.000 C 136.472 220.000,136.185 220.495,135.947 221.100 M246.061 221.600 C 246.616 222.370,247.378 223.675,247.754 224.500 C 248.130 225.325,248.530 226.000,248.642 226.000 C 248.755 226.000,248.782 225.865,248.702 225.700 C 247.191 222.590,246.547 221.499,245.868 220.910 C 245.231 220.355,245.273 220.507,246.061 221.600 M265.101 225.094 C 265.706 226.883,266.258 228.183,266.330 227.984 C 266.488 227.541,264.846 222.749,264.355 222.221 C 264.161 222.013,264.497 223.306,265.101 225.094 M150.250 227.991 C 149.347 230.247,149.487 230.583,150.437 228.442 C 150.866 227.475,151.145 226.612,151.058 226.525 C 150.971 226.438,150.608 227.098,150.250 227.991 M248.846 226.600 C 248.853 226.820,249.206 227.720,249.629 228.600 C 250.052 229.480,250.286 229.750,250.149 229.200 C 249.867 228.067,248.825 225.988,248.846 226.600 M133.049 229.415 C 132.912 229.773,132.815 230.366,132.834 230.733 C 132.853 231.100,133.027 230.869,133.221 230.220 C 133.598 228.958,133.465 228.333,133.049 229.415 M266.601 229.801 C 266.747 230.460,267.031 231.522,267.233 232.160 C 267.435 232.798,267.625 233.788,267.654 234.360 C 267.697 235.173,267.744 235.222,267.871 234.584 C 267.961 234.135,267.759 232.713,267.423 231.423 C 266.788 228.987,266.135 227.698,266.601 229.801 M132.383 231.833 C 132.373 232.035,132.196 233.010,131.989 234.000 C 129.969 243.653,130.348 262.882,132.603 265.136 C 132.874 265.408,132.828 264.899,132.389 262.800 C 130.425 253.414,130.420 243.843,132.373 234.035 C 132.610 232.845,132.713 231.780,132.602 231.669 C 132.491 231.558,132.392 231.632,132.383 231.833 M148.229 233.829 C 148.081 234.415,148.051 234.984,148.161 235.094 C 148.271 235.204,148.481 234.815,148.629 234.229 C 148.776 233.642,148.806 233.073,148.696 232.963 C 148.586 232.853,148.376 233.242,148.229 233.829 M251.234 233.400 C 251.222 233.840,251.387 234.470,251.600 234.800 C 252.114 235.595,252.114 234.596,251.600 233.400 L 251.256 232.600 251.234 233.400 M147.440 237.240 C 147.293 238.157,147.252 238.985,147.347 239.080 C 147.442 239.176,147.646 238.510,147.800 237.600 C 147.954 236.690,147.996 235.862,147.893 235.760 C 147.790 235.657,147.587 236.323,147.440 237.240 M268.255 237.400 C 268.364 238.500,268.621 240.604,268.826 242.077 C 269.540 247.192,269.020 256.067,267.611 262.800 C 267.172 264.899,267.126 265.408,267.397 265.136 C 269.397 263.136,270.128 241.799,268.381 236.400 C 268.166 235.735,268.124 236.070,268.255 237.400 M252.080 236.600 C 252.080 237.040,252.224 237.850,252.400 238.400 C 252.654 239.192,252.720 239.233,252.720 238.600 C 252.720 238.160,252.576 237.350,252.400 236.800 C 252.146 236.008,252.080 235.967,252.080 236.600 M196.303 240.151 C 189.842 243.015,189.356 252.679,195.492 256.275 C 204.278 261.424,213.394 249.748,206.426 242.270 C 204.061 239.732,199.433 238.764,196.303 240.151 M146.668 241.759 C 146.520 242.833,146.424 244.632,146.454 245.756 C 146.495 247.299,146.593 246.917,146.854 244.200 C 147.229 240.289,147.101 238.600,146.668 241.759 M203.259 240.900 C 205.146 241.879,206.800 243.319,206.800 243.982 C 206.800 244.212,206.980 244.400,207.200 244.400 C 207.420 244.400,207.600 244.749,207.600 245.176 C 207.600 245.603,207.780 246.064,208.000 246.200 C 208.220 246.336,208.400 247.326,208.400 248.400 C 208.400 249.474,208.220 250.464,208.000 250.600 C 207.780 250.736,207.600 251.197,207.600 251.624 C 207.600 252.051,207.420 252.400,207.200 252.400 C 206.980 252.400,206.800 252.601,206.800 252.846 C 206.800 253.528,203.936 256.000,203.145 256.000 C 202.761 256.000,202.336 256.180,202.200 256.400 C 202.064 256.620,201.074 256.800,200.000 256.800 C 198.926 256.800,197.936 256.620,197.800 256.400 C 197.664 256.180,197.218 256.000,196.808 256.000 C 196.398 256.000,195.239 255.176,194.232 254.168 C 193.224 253.161,192.400 252.002,192.400 251.592 C 192.400 251.182,192.220 250.736,192.000 250.600 C 191.780 250.464,191.600 249.474,191.600 248.400 C 191.600 247.326,191.780 246.336,192.000 246.200 C 192.220 246.064,192.400 245.603,192.400 245.176 C 192.400 244.749,192.580 244.400,192.800 244.400 C 193.020 244.400,193.200 244.212,193.200 243.982 C 193.200 241.245,199.942 239.179,203.259 240.900 M253.087 243.800 C 253.207 246.000,253.371 247.875,253.453 247.967 C 253.731 248.281,253.541 243.400,253.205 241.600 C 252.975 240.370,252.938 241.066,253.087 243.800 M253.081 252.555 C 252.913 254.730,252.855 256.588,252.951 256.684 C 253.212 256.945,253.696 251.187,253.530 249.800 C 253.451 249.140,253.249 250.380,253.081 252.555 M146.430 251.233 C 146.446 252.425,146.612 254.210,146.798 255.200 C 147.036 256.462,147.072 255.863,146.918 253.200 C 146.676 249.011,146.383 247.831,146.430 251.233 M147.287 258.200 C 147.291 258.640,147.432 259.540,147.600 260.200 C 147.874 261.278,147.906 261.298,147.913 260.400 C 147.917 259.850,147.776 258.950,147.600 258.400 C 147.349 257.616,147.281 257.573,147.287 258.200 M252.200 259.200 C 252.046 260.110,252.004 260.938,252.107 261.040 C 252.210 261.143,252.413 260.477,252.560 259.560 C 252.707 258.643,252.748 257.815,252.653 257.720 C 252.558 257.624,252.354 258.290,252.200 259.200 M148.034 262.000 C 148.046 262.330,148.211 262.960,148.400 263.400 L 148.744 264.200 148.766 263.400 C 148.778 262.960,148.613 262.330,148.400 262.000 C 148.055 261.467,148.015 261.467,148.034 262.000 M251.473 262.153 C 251.323 262.545,251.211 263.166,251.225 263.533 C 251.242 263.975,251.381 263.874,251.637 263.234 C 251.849 262.703,251.961 262.082,251.885 261.854 C 251.809 261.627,251.624 261.761,251.473 262.153 M132.832 266.047 C 132.798 266.738,134.732 272.808,135.780 275.300 C 136.749 277.605,136.899 277.079,135.951 274.700 C 135.491 273.545,134.670 271.160,134.127 269.400 C 132.839 265.222,132.868 265.297,132.832 266.047 M266.832 266.005 C 266.791 266.788,265.121 272.003,264.048 274.700 C 263.588 275.855,263.297 276.800,263.400 276.800 C 263.962 276.800,267.374 266.672,267.069 265.912 C 266.923 265.550,266.854 265.577,266.832 266.005 M149.836 267.600 C 150.664 271.053,155.422 279.208,157.039 279.945 C 159.327 280.987,162.822 279.403,162.788 277.340 C 162.777 276.655,162.743 276.659,162.333 277.400 C 161.431 279.032,160.245 280.000,159.149 280.000 C 156.209 280.000,155.346 278.822,150.066 267.600 L 149.596 266.600 149.836 267.600 M249.387 268.691 C 247.670 273.189,244.221 278.971,242.895 279.575 C 240.539 280.648,238.702 279.713,237.437 276.797 C 237.104 276.029,236.824 275.631,236.816 275.913 C 236.723 278.962,240.174 281.215,242.980 279.936 C 244.707 279.149,251.096 267.762,250.272 266.939 C 250.186 266.853,249.788 267.641,249.387 268.691 M136.808 277.367 C 136.783 278.535,144.076 290.705,145.226 291.416 C 145.468 291.565,144.581 290.093,143.256 288.144 C 141.931 286.195,139.940 282.890,138.831 280.800 C 137.722 278.710,136.812 277.165,136.808 277.367 M261.274 280.591 C 256.409 290.092,248.693 299.044,240.068 305.193 C 235.205 308.660,234.898 308.904,236.600 307.946 C 243.138 304.265,252.455 295.271,257.503 287.767 C 259.372 284.987,263.370 277.637,263.139 277.405 C 263.054 277.321,262.215 278.754,261.274 280.591 M147.133 293.900 C 151.573 299.147,159.556 305.938,164.400 308.589 C 165.758 309.332,164.051 308.010,161.197 306.108 C 157.245 303.474,151.652 298.503,148.628 294.936 C 147.293 293.360,146.048 292.055,145.863 292.036 C 145.677 292.016,146.249 292.855,147.133 293.900 M165.200 308.990 C 165.200 309.094,165.785 309.465,166.500 309.814 L 167.800 310.448 166.800 309.633 C 165.837 308.848,165.200 308.592,165.200 308.990 M233.200 309.633 L 232.200 310.448 233.500 309.814 C 234.215 309.465,234.800 309.094,234.800 308.990 C 234.800 308.592,234.163 308.848,233.200 309.633 M177.600 314.800 C 177.930 315.013,178.470 315.188,178.800 315.188 C 179.333 315.188,179.333 315.145,178.800 314.800 C 178.470 314.587,177.930 314.412,177.600 314.412 C 177.067 314.412,177.067 314.455,177.600 314.800 M221.200 314.800 C 220.667 315.145,220.667 315.188,221.200 315.188 C 221.530 315.188,222.070 315.013,222.400 314.800 C 222.933 314.455,222.933 314.412,222.400 314.412 C 222.070 314.412,221.530 314.587,221.200 314.800 M180.200 315.600 C 180.640 315.789,181.270 315.944,181.600 315.944 C 181.978 315.944,181.904 315.817,181.400 315.600 C 180.960 315.411,180.330 315.256,180.000 315.256 C 179.622 315.256,179.696 315.383,180.200 315.600 M218.800 315.600 C 218.267 315.945,218.267 315.988,218.800 315.988 C 219.130 315.988,219.670 315.813,220.000 315.600 C 220.533 315.255,220.533 315.212,220.000 315.212 C 219.670 315.212,219.130 315.387,218.800 315.600 M183.000 316.400 C 184.196 316.914,185.195 316.914,184.400 316.400 C 184.070 316.187,183.440 316.022,183.000 316.034 L 182.200 316.056 183.000 316.400 M215.600 316.400 C 214.805 316.914,215.804 316.914,217.000 316.400 L 217.800 316.056 217.000 316.034 C 216.560 316.022,215.930 316.187,215.600 316.400 M186.400 317.200 C 186.950 317.376,187.850 317.520,188.400 317.520 L 189.400 317.520 188.400 317.200 C 187.850 317.024,186.950 316.880,186.400 316.880 L 185.400 316.880 186.400 317.200 M211.600 317.200 L 210.600 317.520 211.600 317.520 C 212.150 317.520,213.050 317.376,213.600 317.200 L 214.600 316.880 213.600 316.880 C 213.050 316.880,212.150 317.024,211.600 317.200 M191.400 317.978 C 192.605 318.307,197.079 318.532,196.767 318.249 C 196.675 318.165,195.160 317.997,193.400 317.874 C 191.438 317.737,190.664 317.778,191.400 317.978 M205.000 318.000 L 203.000 318.274 205.200 318.290 C 206.410 318.298,207.940 318.168,208.600 318.000 L 209.800 317.695 208.400 317.710 C 207.630 317.719,206.100 317.849,205.000 318.000 " stroke="none" fill="#8c7c50" fill-rule="evenodd"></path></g></svg>