<svg id="svg" version="1.1" xmlns="http://www.w3.org/2000/svg" xmlns:xlink="http://www.w3.org/1999/xlink" width="400" height="403.94736842105266" viewBox="0, 0, 400,403.94736842105266"><g id="svgg"><path id="path0" d="M17.200 203.800 L 17.200 388.400 23.200 388.400 L 29.200 388.400 29.200 203.800 L 29.200 19.200 23.200 19.200 L 17.200 19.200 17.200 203.800 M370.400 203.800 L 370.400 388.400 376.700 388.311 L 383.000 388.222 376.900 388.101 L 370.800 387.979 370.800 203.800 L 370.800 19.621 376.900 19.499 L 383.000 19.378 376.700 19.289 L 370.400 19.200 370.400 203.800 M338.246 135.405 C 336.430 137.010,332.603 138.908,329.894 139.549 C 328.499 139.879,289.727 140.000,185.194 140.000 L 42.400 140.000 42.400 143.200 L 42.400 146.400 200.000 146.400 L 357.600 146.400 357.600 140.200 L 357.600 134.000 348.700 134.017 L 339.800 134.033 338.246 135.405 M190.954 248.700 L 339.707 248.801 338.354 250.013 C 336.389 251.771,331.804 253.850,328.767 254.359 C 326.883 254.675,285.786 254.800,184.267 254.800 L 42.400 254.800 42.400 257.800 L 42.400 260.800 200.000 260.800 L 357.600 260.800 357.600 254.865 L 357.600 248.929 344.700 248.665 C 337.605 248.520,266.640 248.446,187.000 248.500 L 42.200 248.599 190.954 248.700 M338.385 364.503 C 336.134 366.567,333.866 367.766,330.612 368.614 C 328.655 369.123,309.688 369.200,185.380 369.200 L 42.400 369.200 42.400 372.400 L 42.400 375.600 200.000 375.600 L 357.600 375.600 357.600 369.400 L 357.600 363.200 348.700 363.203 L 339.800 363.207 338.385 364.503 " stroke="none" fill="#6c6c6b" fill-rule="evenodd"></path><path id="path1" d="M370.800 203.800 L 370.800 388.000 376.800 388.000 L 382.800 388.000 382.800 203.800 L 382.800 19.600 376.800 19.600 L 370.800 19.600 370.800 203.800 M92.800 78.000 C 92.800 85.749,92.903 86.233,94.237 84.759 C 96.675 82.065,101.260 82.136,104.300 84.917 L 105.200 85.739 105.200 78.070 L 105.200 70.400 99.000 70.400 L 92.800 70.400 92.800 78.000 M194.000 78.075 L 194.000 85.750 195.100 84.724 C 196.746 83.189,197.736 82.800,200.000 82.800 C 202.264 82.800,203.254 83.189,204.900 84.724 L 206.000 85.750 206.000 78.075 L 206.000 70.400 200.000 70.400 L 194.000 70.400 194.000 78.075 M294.800 78.000 C 294.800 85.749,294.903 86.233,296.237 84.759 C 298.675 82.065,303.260 82.136,306.300 84.917 L 307.200 85.739 307.200 78.070 L 307.200 70.400 301.000 70.400 L 294.800 70.400 294.800 78.000 M42.400 137.000 L 42.400 140.000 185.194 140.000 C 289.727 140.000,328.499 139.879,329.894 139.549 C 332.603 138.908,336.430 137.010,338.246 135.405 L 339.800 134.033 191.100 134.017 L 42.400 134.000 42.400 137.000 M92.800 192.670 L 92.800 200.539 93.700 199.712 C 97.217 196.477,100.777 196.411,104.100 199.521 L 105.200 200.550 105.200 192.675 L 105.200 184.800 99.000 184.800 L 92.800 184.800 92.800 192.670 M194.000 192.678 L 194.000 200.557 195.300 199.353 C 198.356 196.524,202.111 196.547,204.978 199.414 L 206.000 200.436 206.000 192.618 L 206.000 184.800 200.000 184.800 L 194.000 184.800 194.000 192.678 M294.800 192.670 L 294.800 200.539 295.700 199.712 C 299.217 196.477,302.777 196.411,306.100 199.521 L 307.200 200.550 307.200 192.675 L 307.200 184.800 301.000 184.800 L 294.800 184.800 294.800 192.670 M42.400 251.800 L 42.400 254.800 184.267 254.800 C 285.786 254.800,326.883 254.675,328.767 254.359 C 331.804 253.850,336.389 251.771,338.354 250.012 L 339.708 248.800 191.054 248.800 L 42.400 248.800 42.400 251.800 M92.800 307.478 L 92.800 315.357 94.100 314.126 C 95.912 312.411,96.863 312.000,99.019 312.000 C 100.775 312.000,104.000 313.315,104.000 314.031 C 104.000 314.187,104.270 314.418,104.600 314.545 C 105.120 314.744,105.200 313.768,105.200 307.187 L 105.200 299.600 99.000 299.600 L 92.800 299.600 92.800 307.478 M194.000 307.461 C 194.000 314.979,194.031 315.288,194.700 314.542 C 197.641 311.264,201.593 311.045,204.900 313.975 L 206.000 314.950 206.000 307.275 L 206.000 299.600 200.000 299.600 L 194.000 299.600 194.000 307.461 M294.800 307.478 L 294.800 315.357 296.100 314.126 C 297.912 312.411,298.863 312.000,301.019 312.000 C 302.775 312.000,306.000 313.315,306.000 314.031 C 306.000 314.187,306.270 314.418,306.600 314.545 C 307.120 314.744,307.200 313.768,307.200 307.187 L 307.200 299.600 301.000 299.600 L 294.800 299.600 294.800 307.478 M42.400 366.200 L 42.400 369.200 185.380 369.200 C 309.688 369.200,328.655 369.123,330.612 368.614 C 333.866 367.766,336.134 366.567,338.385 364.503 L 339.800 363.207 191.100 363.203 L 42.400 363.200 42.400 366.200 " stroke="none" fill="#9e998d" fill-rule="evenodd"></path><path id="path2" d="M376.600 19.094 L 382.800 19.220 382.800 203.800 L 382.800 388.379 376.800 388.506 L 370.799 388.632 376.900 388.616 L 383.000 388.600 383.000 203.800 L 383.000 19.000 376.700 18.984 L 370.399 18.969 376.600 19.094 M16.998 203.800 C 16.998 305.440,17.044 346.960,17.100 296.067 C 17.156 245.174,17.156 162.014,17.100 111.267 C 17.044 60.520,16.998 102.160,16.998 203.800 M29.398 203.800 C 29.398 305.440,29.444 346.960,29.500 296.067 C 29.556 245.174,29.556 162.014,29.500 111.267 C 29.444 60.520,29.398 102.160,29.398 203.800 M96.118 69.898 C 97.833 69.973,100.533 69.972,102.118 69.897 C 103.703 69.821,102.300 69.759,99.000 69.760 C 95.700 69.761,94.403 69.822,96.118 69.898 M193.861 69.900 C 193.758 70.065,195.592 70.153,197.937 70.095 C 205.519 69.908,206.341 69.750,200.124 69.674 C 196.782 69.633,193.963 69.735,193.861 69.900 M298.118 69.898 C 299.833 69.973,302.533 69.972,304.118 69.897 C 305.703 69.821,304.300 69.759,301.000 69.760 C 297.700 69.761,296.403 69.822,298.118 69.898 M67.600 95.400 L 67.600 120.800 99.000 120.800 L 130.400 120.800 130.400 95.400 L 130.400 70.000 124.200 70.000 L 118.000 70.000 118.000 86.665 L 118.000 103.330 117.006 105.026 C 113.946 110.247,109.546 109.371,103.002 102.240 C 99.093 97.980,99.330 97.965,94.596 102.784 C 89.002 108.478,86.569 109.389,82.928 107.151 C 80.070 105.394,80.000 104.903,80.000 86.474 L 80.000 70.000 73.800 70.000 L 67.600 70.000 67.600 95.400 M92.491 77.876 C 92.389 86.942,92.460 87.162,94.816 85.033 C 95.689 84.245,96.255 83.600,96.076 83.600 C 95.897 83.600,95.232 84.140,94.600 84.800 C 92.846 86.631,92.825 86.554,92.700 77.900 L 92.582 69.800 92.491 77.876 M105.291 77.900 C 105.241 82.355,105.108 86.000,104.996 86.000 C 104.884 86.000,104.228 85.460,103.537 84.800 C 102.846 84.140,102.128 83.600,101.940 83.600 C 101.752 83.600,102.326 84.258,103.216 85.062 C 105.542 87.163,105.634 86.869,105.500 77.771 L 105.382 69.800 105.291 77.900 M168.677 70.257 C 168.525 70.409,168.400 81.843,168.400 95.667 L 168.400 120.800 200.003 120.800 L 231.606 120.800 231.503 95.500 L 231.400 70.200 225.200 70.200 L 219.000 70.200 218.800 87.218 C 218.578 106.078,218.660 105.521,215.878 107.218 C 212.391 109.345,210.176 108.486,204.608 102.845 C 199.744 97.918,200.256 97.918,195.392 102.845 C 189.824 108.486,187.609 109.345,184.122 107.218 C 181.340 105.521,181.422 106.078,181.200 87.218 L 181.000 70.200 174.977 70.090 C 171.664 70.029,168.829 70.104,168.677 70.257 M269.600 95.400 L 269.600 120.800 301.000 120.800 L 332.400 120.800 332.400 95.400 L 332.400 70.000 326.200 70.000 L 320.000 70.000 320.000 86.474 C 320.000 104.903,319.930 105.394,317.072 107.151 C 313.411 109.401,310.919 108.463,305.429 102.769 C 300.760 97.926,301.169 97.926,296.529 102.772 C 290.223 109.356,285.949 110.068,282.994 105.026 L 282.000 103.330 282.000 86.665 L 282.000 70.000 275.800 70.000 L 269.600 70.000 269.600 95.400 M294.491 77.876 C 294.389 86.942,294.460 87.162,296.816 85.033 C 297.689 84.245,298.255 83.600,298.076 83.600 C 297.897 83.600,297.232 84.140,296.600 84.800 C 294.846 86.631,294.825 86.554,294.700 77.900 L 294.582 69.800 294.491 77.876 M307.291 77.900 C 307.241 82.355,307.108 86.000,306.996 86.000 C 306.884 86.000,306.228 85.460,305.537 84.800 C 304.846 84.140,304.128 83.600,303.940 83.600 C 303.752 83.600,304.326 84.258,305.216 85.062 C 307.542 87.163,307.634 86.869,307.500 77.771 L 307.382 69.800 307.291 77.900 M97.338 83.106 C 97.084 83.268,97.832 83.400,99.000 83.400 C 100.168 83.400,100.916 83.268,100.662 83.106 C 100.408 82.944,99.660 82.812,99.000 82.812 C 98.340 82.812,97.592 82.944,97.338 83.106 M197.200 83.654 C 195.361 84.771,193.431 86.400,193.946 86.400 C 194.170 86.400,194.475 86.202,194.624 85.961 C 195.266 84.923,198.621 83.200,200.000 83.200 C 201.379 83.200,204.734 84.923,205.376 85.961 C 205.722 86.521,206.400 86.531,206.400 85.976 C 206.400 85.743,206.244 85.649,206.053 85.767 C 205.863 85.885,205.368 85.606,204.953 85.148 C 202.893 82.870,199.550 82.226,197.200 83.654 M299.338 83.106 C 299.084 83.268,299.832 83.400,301.000 83.400 C 302.168 83.400,302.916 83.268,302.662 83.106 C 302.408 82.944,301.660 82.812,301.000 82.812 C 300.340 82.812,299.592 82.944,299.338 83.106 M42.089 140.099 L 42.178 146.600 42.299 140.300 L 42.420 134.000 200.000 134.000 L 357.580 134.000 357.705 140.100 L 357.830 146.200 357.815 140.000 L 357.800 133.800 199.900 133.699 L 42.000 133.599 42.089 140.099 M92.676 184.657 C 92.274 185.059,92.337 200.714,92.742 200.964 C 92.930 201.080,93.515 200.686,94.042 200.088 L 95.000 199.000 93.900 199.970 L 92.800 200.939 92.800 192.870 L 92.800 184.800 99.000 184.800 L 105.200 184.800 105.200 192.841 L 105.200 200.883 103.786 199.641 C 103.008 198.959,102.258 198.400,102.119 198.400 C 101.980 198.400,102.572 199.015,103.433 199.766 C 105.598 201.654,105.631 201.542,105.509 192.571 L 105.400 184.600 99.176 184.490 C 95.753 184.430,92.828 184.505,92.676 184.657 M196.700 184.698 C 198.515 184.772,201.485 184.772,203.300 184.698 C 205.115 184.623,203.630 184.563,200.000 184.563 C 196.370 184.563,194.885 184.623,196.700 184.698 M294.676 184.657 C 294.274 185.059,294.337 200.714,294.742 200.964 C 294.930 201.080,295.515 200.686,296.042 200.088 L 297.000 199.000 295.900 199.970 L 294.800 200.939 294.800 192.870 L 294.800 184.800 301.000 184.800 L 307.200 184.800 307.200 192.841 L 307.200 200.883 305.786 199.641 C 305.008 198.959,304.258 198.400,304.119 198.400 C 303.980 198.400,304.572 199.015,305.433 199.766 C 307.598 201.654,307.631 201.542,307.509 192.571 L 307.400 184.600 301.176 184.490 C 297.753 184.430,294.828 184.505,294.676 184.657 M67.600 210.200 L 67.600 235.600 99.000 235.600 L 130.400 235.600 130.400 210.200 L 130.400 184.800 124.200 184.800 L 118.000 184.800 118.000 201.151 C 118.000 218.691,117.945 219.223,115.935 221.050 C 112.275 224.377,109.768 223.641,103.607 217.428 C 98.542 212.321,99.458 212.321,94.393 217.428 C 88.232 223.641,85.725 224.377,82.065 221.050 C 80.055 219.223,80.000 218.691,80.000 201.151 L 80.000 184.800 73.800 184.800 L 67.600 184.800 67.600 210.200 M168.497 210.100 L 168.600 235.400 200.000 235.400 L 231.400 235.400 231.503 210.100 L 231.606 184.800 225.203 184.800 L 218.800 184.800 218.800 201.416 C 218.800 220.328,218.793 220.371,215.611 221.995 C 212.021 223.826,209.625 222.791,204.137 217.039 C 199.705 212.395,200.337 212.408,196.091 216.862 C 190.494 222.732,187.998 223.836,184.434 222.017 C 181.168 220.351,181.200 220.555,181.200 201.577 L 181.200 184.800 174.797 184.800 L 168.394 184.800 168.497 210.100 M269.600 210.200 L 269.600 235.600 301.000 235.600 L 332.400 235.600 332.400 210.200 L 332.400 184.800 326.200 184.800 L 320.000 184.800 320.000 201.151 C 320.000 218.691,319.945 219.223,317.935 221.050 C 314.275 224.377,311.768 223.641,305.607 217.428 C 303.301 215.103,301.228 213.200,301.000 213.200 C 300.772 213.200,298.699 215.103,296.393 217.428 C 290.232 223.641,287.725 224.377,284.065 221.050 C 282.055 219.223,282.000 218.691,282.000 201.151 L 282.000 184.800 275.800 184.800 L 269.600 184.800 269.600 210.200 M195.414 199.586 C 194.789 200.238,194.097 200.660,193.877 200.524 C 193.641 200.378,193.602 200.480,193.783 200.773 C 194.038 201.185,196.800 199.123,196.800 198.522 C 196.800 198.228,196.477 198.476,195.414 199.586 M204.363 199.688 C 205.521 200.945,206.400 201.319,206.400 200.553 C 206.400 200.443,206.235 200.455,206.034 200.579 C 205.833 200.703,205.607 200.669,205.533 200.502 C 205.458 200.336,204.858 199.752,204.199 199.204 C 203.098 198.289,203.112 198.329,204.363 199.688 M42.176 248.518 C 42.067 248.802,42.028 251.727,42.089 255.018 L 42.200 261.000 200.000 261.000 L 357.800 261.000 357.910 254.700 L 358.020 248.400 349.110 248.492 L 340.200 248.584 348.900 248.700 L 357.600 248.816 357.600 254.808 L 357.600 260.800 200.000 260.800 L 42.400 260.800 42.400 254.601 L 42.400 248.401 191.100 248.300 L 339.800 248.199 191.087 248.099 C 69.723 248.018,42.338 248.095,42.176 248.518 M67.600 324.600 L 67.600 350.000 99.003 350.000 L 130.406 350.000 130.303 324.700 L 130.200 299.400 124.200 299.400 L 118.200 299.400 118.000 316.200 C 117.774 335.167,117.827 334.853,114.578 336.693 C 111.276 338.563,109.220 337.720,103.610 332.192 C 98.503 327.159,99.358 327.213,94.992 331.646 C 89.099 337.628,86.820 338.623,83.430 336.693 C 80.028 334.758,80.000 334.585,80.000 315.737 L 80.000 299.200 73.800 299.200 L 67.600 299.200 67.600 324.600 M92.491 307.076 C 92.391 315.993,92.481 316.314,94.586 314.466 C 95.335 313.809,96.333 313.148,96.804 312.999 C 97.275 312.849,97.573 312.640,97.467 312.534 C 97.172 312.239,95.092 313.414,94.237 314.359 C 92.914 315.822,92.819 315.376,92.700 307.100 L 92.582 299.000 92.491 307.076 M105.291 307.100 C 105.241 311.555,105.102 315.200,104.983 315.200 C 104.864 315.200,104.369 314.824,103.883 314.365 C 102.551 313.106,100.170 311.994,98.916 312.046 C 97.910 312.087,97.938 312.120,99.200 312.372 C 100.974 312.727,102.305 313.423,103.703 314.726 C 105.478 316.383,105.629 315.732,105.500 306.971 L 105.382 299.000 105.291 307.100 M168.677 299.457 C 168.525 299.609,168.400 311.043,168.400 324.867 L 168.400 350.000 200.003 350.000 L 231.606 350.000 231.503 324.700 L 231.400 299.400 225.200 299.400 L 219.000 299.400 218.800 316.400 C 218.690 325.750,218.438 333.670,218.240 334.000 C 215.069 339.294,211.330 338.800,204.807 332.226 C 199.705 327.084,200.295 327.084,195.193 332.226 C 188.670 338.800,184.931 339.294,181.760 334.000 C 181.562 333.670,181.310 325.750,181.200 316.400 L 181.000 299.400 174.977 299.290 C 171.664 299.229,168.829 299.304,168.677 299.457 M269.600 324.590 L 269.600 350.000 301.003 350.000 L 332.406 350.000 332.303 324.700 L 332.200 299.400 326.100 299.290 L 320.000 299.179 320.000 315.727 C 320.000 334.586,319.972 334.757,316.570 336.693 C 313.281 338.565,311.218 337.718,305.610 332.192 C 303.271 329.886,301.196 328.000,301.000 328.000 C 300.804 328.000,298.729 329.886,296.390 332.192 C 290.780 337.720,288.724 338.563,285.422 336.693 C 282.173 334.853,282.226 335.167,282.000 316.200 L 281.800 299.400 275.700 299.290 L 269.600 299.179 269.600 324.590 M294.491 307.300 C 294.394 316.140,294.516 316.661,296.237 314.759 C 297.215 313.679,299.026 312.733,300.800 312.374 C 302.064 312.119,302.092 312.088,301.084 312.046 C 299.772 311.992,297.319 313.162,296.238 314.357 C 294.913 315.822,294.819 315.377,294.700 307.100 L 294.582 299.000 294.491 307.300 M307.291 307.100 C 307.198 315.355,307.098 315.834,305.763 314.359 C 304.908 313.414,302.828 312.239,302.533 312.534 C 302.427 312.640,302.725 312.849,303.196 312.999 C 303.667 313.148,304.680 313.821,305.447 314.495 C 307.519 316.314,307.632 315.901,307.500 306.971 L 307.382 299.000 307.291 307.100 M198.538 312.306 C 198.284 312.468,198.942 312.600,200.000 312.600 C 201.058 312.600,201.716 312.468,201.462 312.306 C 201.208 312.144,200.550 312.012,200.000 312.012 C 199.450 312.012,198.792 312.144,198.538 312.306 M195.244 314.204 C 194.278 314.972,193.717 315.600,193.997 315.600 C 194.277 315.600,194.797 315.275,195.153 314.878 C 195.509 314.480,196.245 313.850,196.789 313.478 C 197.333 313.105,197.603 312.802,197.389 312.804 C 197.175 312.806,196.210 313.436,195.244 314.204 M203.211 313.478 C 203.755 313.850,204.491 314.480,204.847 314.878 C 205.203 315.275,205.723 315.600,206.003 315.600 C 206.283 315.600,205.722 314.972,204.756 314.204 C 203.790 313.436,202.825 312.806,202.611 312.804 C 202.397 312.802,202.667 313.105,203.211 313.478 M42.176 363.317 C 42.067 363.602,42.028 366.527,42.089 369.818 L 42.200 375.800 200.000 375.800 L 357.800 375.800 357.800 369.400 L 357.800 363.000 200.088 362.899 C 71.280 362.817,42.339 362.894,42.176 363.317 M357.600 369.400 L 357.600 375.600 200.000 375.600 L 42.400 375.600 42.400 369.400 L 42.400 363.200 200.000 363.200 L 357.600 363.200 357.600 369.400 " stroke="none" fill="#543d35" fill-rule="evenodd"></path><path id="path3" d="M7.200 6.400 C 7.200 6.620,6.917 6.800,6.571 6.800 C 5.763 6.800,4.800 7.763,4.800 8.571 C 4.800 8.917,4.620 9.200,4.400 9.200 C 4.134 9.200,4.000 74.333,4.000 203.800 C 4.000 333.267,4.134 398.400,4.400 398.400 C 4.620 398.400,4.800 398.683,4.800 399.029 C 4.800 399.837,5.763 400.800,6.571 400.800 C 6.917 400.800,7.200 400.980,7.200 401.200 C 7.200 401.460,12.867 401.600,23.400 401.600 C 33.933 401.600,39.600 401.460,39.600 401.200 C 39.600 400.980,39.804 400.800,40.053 400.800 C 41.712 400.800,42.795 397.525,42.798 392.500 L 42.800 388.800 200.000 388.800 L 357.200 388.800 357.200 392.813 C 357.200 397.633,358.299 400.800,359.971 400.800 C 360.207 400.800,360.400 400.980,360.400 401.200 C 360.400 401.460,366.067 401.600,376.600 401.600 C 385.510 401.600,392.800 401.463,392.800 401.295 C 392.800 401.127,393.205 400.812,393.700 400.595 C 394.195 400.378,394.778 399.795,394.995 399.300 C 395.212 398.805,395.527 398.400,395.695 398.400 C 395.863 398.400,396.000 310.830,396.000 203.800 C 396.000 74.333,395.866 9.200,395.600 9.200 C 395.380 9.200,395.200 8.917,395.200 8.571 C 395.200 7.763,394.237 6.800,393.429 6.800 C 393.083 6.800,392.800 6.620,392.800 6.400 C 392.800 6.140,387.133 6.000,376.600 6.000 C 366.067 6.000,360.400 6.140,360.400 6.400 C 360.400 6.620,360.207 6.800,359.971 6.800 C 359.307 6.800,358.428 7.834,357.785 9.373 C 357.281 10.580,357.200 18.400,357.200 65.787 L 357.200 120.800 351.400 120.800 L 345.600 120.800 345.600 90.400 C 345.600 70.400,345.463 60.000,345.200 60.000 C 344.980 60.000,344.800 59.770,344.800 59.488 C 344.800 59.207,344.418 58.712,343.951 58.388 C 343.484 58.065,342.867 57.575,342.580 57.300 C 341.988 56.734,259.600 56.540,259.600 57.105 C 259.600 57.273,259.195 57.588,258.700 57.805 C 258.205 58.022,257.622 58.605,257.405 59.100 C 257.188 59.595,256.873 60.000,256.705 60.000 C 256.537 60.000,256.400 73.680,256.400 90.400 L 256.400 120.800 250.400 120.800 L 244.400 120.800 244.400 90.400 C 244.400 70.400,244.263 60.000,244.000 60.000 C 243.780 60.000,243.600 59.739,243.600 59.420 C 243.600 59.102,242.998 58.382,242.262 57.820 L 240.924 56.800 200.000 56.800 L 159.076 56.800 157.738 57.820 C 157.002 58.382,156.400 59.102,156.400 59.420 C 156.400 59.739,156.220 60.000,156.000 60.000 C 155.737 60.000,155.600 70.400,155.600 90.400 L 155.600 120.800 149.600 120.800 L 143.600 120.800 143.600 90.400 C 143.600 73.680,143.463 60.000,143.295 60.000 C 143.127 60.000,142.812 59.595,142.595 59.100 C 142.378 58.605,141.795 58.022,141.300 57.805 C 140.805 57.588,140.400 57.273,140.400 57.105 C 140.400 56.937,121.770 56.800,99.000 56.800 C 76.230 56.800,57.600 56.937,57.600 57.105 C 57.600 57.273,57.195 57.588,56.700 57.805 C 56.205 58.022,55.622 58.605,55.405 59.100 C 55.188 59.595,54.873 60.000,54.705 60.000 C 54.537 60.000,54.400 73.680,54.400 90.400 L 54.400 120.800 48.600 120.800 L 42.800 120.800 42.798 66.100 C 42.796 30.816,42.653 10.888,42.395 9.958 C 41.961 8.394,40.778 6.800,40.053 6.800 C 39.804 6.800,39.600 6.620,39.600 6.400 C 39.600 6.140,33.933 6.000,23.400 6.000 C 12.867 6.000,7.200 6.140,7.200 6.400 M383.000 203.800 L 383.000 388.600 376.800 388.600 L 370.600 388.600 370.500 203.690 L 370.399 18.780 376.700 18.890 L 383.000 19.000 383.000 203.800 M29.600 203.800 L 29.600 388.400 23.200 388.400 L 16.800 388.400 16.800 203.800 L 16.800 19.200 23.200 19.200 L 29.600 19.200 29.600 203.800 M104.967 69.843 C 105.732 70.136,105.940 85.743,105.185 86.209 C 104.957 86.350,104.077 85.840,103.230 85.075 C 100.542 82.646,97.466 82.639,94.791 85.056 C 93.933 85.831,93.043 86.350,92.815 86.209 C 92.173 85.812,92.254 70.125,92.900 69.865 C 93.622 69.574,104.215 69.554,104.967 69.843 M206.308 78.100 C 206.409 85.829,206.229 87.342,205.376 85.961 C 203.370 82.716,196.630 82.716,194.624 85.961 C 193.801 87.293,193.600 85.783,193.600 78.267 C 193.600 73.793,193.725 70.009,193.877 69.857 C 194.029 69.704,196.864 69.629,200.177 69.690 L 206.200 69.800 206.308 78.100 M306.967 69.843 C 307.732 70.136,307.940 85.743,307.185 86.209 C 306.957 86.350,306.077 85.840,305.230 85.075 C 302.542 82.646,299.466 82.639,296.791 85.056 C 295.933 85.831,295.043 86.350,294.815 86.209 C 294.173 85.812,294.254 70.125,294.900 69.865 C 295.622 69.574,306.215 69.554,306.967 69.843 M80.000 86.474 C 80.000 104.903,80.070 105.394,82.928 107.151 C 86.569 109.389,89.002 108.478,94.596 102.784 C 99.330 97.965,99.093 97.980,103.002 102.240 C 109.546 109.371,113.946 110.247,117.006 105.026 L 118.000 103.330 118.000 86.665 L 118.000 70.000 124.200 70.000 L 130.400 70.000 130.400 95.400 L 130.400 120.800 99.000 120.800 L 67.600 120.800 67.600 95.400 L 67.600 70.000 73.800 70.000 L 80.000 70.000 80.000 86.474 M181.200 87.218 C 181.422 106.078,181.340 105.521,184.122 107.218 C 187.609 109.345,189.824 108.486,195.392 102.845 C 200.256 97.918,199.744 97.918,204.608 102.845 C 210.176 108.486,212.391 109.345,215.878 107.218 C 218.660 105.521,218.578 106.078,218.800 87.218 L 219.000 70.200 225.200 70.200 L 231.400 70.200 231.503 95.500 L 231.606 120.800 200.003 120.800 L 168.400 120.800 168.400 95.667 C 168.400 81.843,168.525 70.409,168.677 70.257 C 168.829 70.104,171.664 70.029,174.977 70.090 L 181.000 70.200 181.200 87.218 M282.000 86.665 L 282.000 103.330 282.994 105.026 C 285.949 110.068,290.223 109.356,296.529 102.772 C 301.169 97.926,300.760 97.926,305.429 102.769 C 310.919 108.463,313.411 109.401,317.072 107.151 C 319.930 105.394,320.000 104.903,320.000 86.474 L 320.000 70.000 326.200 70.000 L 332.400 70.000 332.400 95.400 L 332.400 120.800 301.000 120.800 L 269.600 120.800 269.600 95.400 L 269.600 70.000 275.800 70.000 L 282.000 70.000 282.000 86.665 M357.910 140.100 L 358.020 146.400 200.010 146.400 L 42.000 146.400 42.000 139.999 L 42.000 133.599 199.900 133.699 L 357.800 133.800 357.910 140.100 M357.200 197.400 L 357.200 235.200 351.400 235.200 L 345.600 235.200 345.600 205.000 C 345.600 188.390,345.463 174.800,345.295 174.800 C 345.127 174.800,344.812 174.395,344.595 173.900 C 344.378 173.405,343.795 172.822,343.300 172.605 C 342.805 172.388,342.400 172.073,342.400 171.905 C 342.400 171.737,323.770 171.600,301.000 171.600 C 273.667 171.600,259.600 171.736,259.600 172.000 C 259.600 172.220,259.317 172.400,258.971 172.400 C 258.163 172.400,257.200 173.363,257.200 174.171 C 257.200 174.517,257.020 174.800,256.800 174.800 C 256.537 174.800,256.400 185.133,256.400 205.000 L 256.400 235.200 250.400 235.200 L 244.400 235.200 244.400 205.000 C 244.400 185.133,244.263 174.800,244.000 174.800 C 243.780 174.800,243.600 174.517,243.600 174.171 C 243.600 173.480,243.031 172.863,241.690 172.100 C 240.406 171.370,159.594 171.370,158.310 172.100 C 156.969 172.863,156.400 173.480,156.400 174.171 C 156.400 174.517,156.220 174.800,156.000 174.800 C 155.737 174.800,155.600 185.133,155.600 205.000 L 155.600 235.200 149.600 235.200 L 143.600 235.200 143.600 205.000 C 143.600 188.390,143.464 174.800,143.298 174.800 C 143.131 174.800,142.756 174.260,142.464 173.600 C 142.141 172.869,141.633 172.400,141.166 172.400 C 140.745 172.400,140.400 172.220,140.400 172.000 C 140.400 171.736,126.333 171.600,99.000 171.600 C 71.667 171.600,57.600 171.736,57.600 172.000 C 57.600 172.220,57.317 172.400,56.971 172.400 C 56.163 172.400,55.200 173.363,55.200 174.171 C 55.200 174.517,55.020 174.800,54.800 174.800 C 54.537 174.800,54.400 185.133,54.400 205.000 L 54.400 235.200 48.600 235.200 L 42.800 235.200 42.800 197.400 L 42.800 159.600 200.000 159.600 L 357.200 159.600 357.200 197.400 M105.509 192.388 C 105.640 201.780,105.670 201.664,103.605 199.897 C 100.338 197.101,97.668 197.096,94.415 199.880 C 93.585 200.591,92.792 201.058,92.653 200.919 C 92.308 200.574,92.330 185.003,92.676 184.657 C 92.828 184.505,95.753 184.430,99.176 184.490 L 105.400 184.600 105.509 192.388 M206.400 192.576 C 206.400 201.552,206.332 201.794,204.385 199.784 C 203.647 199.023,202.729 198.400,202.345 198.400 C 201.961 198.400,201.536 198.220,201.400 198.000 C 201.264 197.780,200.634 197.600,200.000 197.600 C 199.366 197.600,198.736 197.780,198.600 198.000 C 198.464 198.220,198.039 198.400,197.655 198.400 C 197.271 198.400,196.353 199.023,195.615 199.784 C 193.668 201.794,193.600 201.552,193.600 192.576 L 193.600 184.400 200.000 184.400 L 206.400 184.400 206.400 192.576 M307.509 192.388 C 307.640 201.780,307.670 201.664,305.605 199.897 C 302.338 197.101,299.668 197.096,296.415 199.880 C 295.585 200.591,294.792 201.058,294.653 200.919 C 294.308 200.574,294.330 185.003,294.676 184.657 C 294.828 184.505,297.753 184.430,301.176 184.490 L 307.400 184.600 307.509 192.388 M80.000 201.151 C 80.000 218.691,80.055 219.223,82.065 221.050 C 85.725 224.377,88.232 223.641,94.393 217.428 C 96.699 215.103,98.772 213.200,99.000 213.200 C 99.228 213.200,101.301 215.103,103.607 217.428 C 109.768 223.641,112.275 224.377,115.935 221.050 C 117.945 219.223,118.000 218.691,118.000 201.151 L 118.000 184.800 124.200 184.800 L 130.400 184.800 130.400 210.200 L 130.400 235.600 99.000 235.600 L 67.600 235.600 67.600 210.200 L 67.600 184.800 73.800 184.800 L 80.000 184.800 80.000 201.151 M181.200 201.577 C 181.200 220.555,181.168 220.351,184.434 222.017 C 187.998 223.836,190.494 222.732,196.091 216.862 C 200.337 212.408,199.705 212.395,204.137 217.039 C 209.625 222.791,212.021 223.826,215.611 221.995 C 218.793 220.371,218.800 220.328,218.800 201.416 L 218.800 184.800 225.203 184.800 L 231.606 184.800 231.503 210.100 L 231.400 235.400 200.000 235.400 L 168.600 235.400 168.497 210.100 L 168.394 184.800 174.797 184.800 L 181.200 184.800 181.200 201.577 M282.000 201.151 C 282.000 218.691,282.055 219.223,284.065 221.050 C 287.725 224.377,290.232 223.641,296.393 217.428 C 298.699 215.103,300.772 213.200,301.000 213.200 C 301.228 213.200,303.301 215.103,305.607 217.428 C 311.768 223.641,314.275 224.377,317.935 221.050 C 319.945 219.223,320.000 218.691,320.000 201.151 L 320.000 184.800 326.200 184.800 L 332.400 184.800 332.400 210.200 L 332.400 235.600 301.000 235.600 L 269.600 235.600 269.600 210.200 L 269.600 184.800 275.800 184.800 L 282.000 184.800 282.000 201.151 M344.144 248.265 L 358.020 248.530 357.910 254.765 L 357.800 261.000 200.000 261.000 L 42.200 261.000 42.089 255.018 C 42.028 251.727,42.067 248.802,42.176 248.518 C 42.393 247.953,315.837 247.724,344.144 248.265 M357.200 312.200 L 357.200 350.000 351.400 350.000 L 345.600 350.000 345.600 319.995 C 345.600 289.539,345.588 289.270,344.200 287.810 C 342.390 285.907,344.604 286.000,301.000 286.000 C 257.396 286.000,259.610 285.907,257.800 287.810 C 256.412 289.270,256.400 289.539,256.400 319.995 L 256.400 350.000 250.400 350.000 L 244.400 350.000 244.400 319.600 C 244.400 299.600,244.263 289.200,244.000 289.200 C 243.780 289.200,243.600 289.007,243.600 288.771 C 243.600 288.274,243.000 287.644,241.611 286.684 C 240.694 286.050,237.665 286.000,200.000 286.000 C 162.335 286.000,159.306 286.050,158.389 286.684 C 157.000 287.644,156.400 288.274,156.400 288.771 C 156.400 289.007,156.220 289.200,156.000 289.200 C 155.737 289.200,155.600 299.600,155.600 319.600 L 155.600 350.000 149.600 350.000 L 143.600 350.000 143.600 319.995 C 143.600 289.539,143.588 289.270,142.200 287.810 C 140.390 285.907,142.604 286.000,99.000 286.000 C 55.396 286.000,57.610 285.907,55.800 287.810 C 54.412 289.270,54.400 289.539,54.400 319.995 L 54.400 350.000 48.600 350.000 L 42.800 350.000 42.800 312.200 L 42.800 274.400 200.000 274.400 L 357.200 274.400 357.200 312.200 M80.000 315.737 C 80.000 334.585,80.028 334.758,83.430 336.693 C 86.820 338.623,89.099 337.628,94.992 331.646 C 99.358 327.213,98.503 327.159,103.610 332.192 C 109.220 337.720,111.276 338.563,114.578 336.693 C 117.827 334.853,117.774 335.167,118.000 316.200 L 118.200 299.400 124.200 299.400 L 130.200 299.400 130.303 324.700 L 130.406 350.000 99.003 350.000 L 67.600 350.000 67.600 324.600 L 67.600 299.200 73.800 299.200 L 80.000 299.200 80.000 315.737 M105.600 307.176 C 105.600 315.805,105.457 316.362,103.667 314.689 C 102.252 313.366,100.283 312.400,99.000 312.400 C 97.717 312.400,95.748 313.366,94.333 314.689 C 92.543 316.362,92.400 315.805,92.400 307.176 L 92.400 299.200 99.000 299.200 L 105.600 299.200 105.600 307.176 M181.200 316.400 C 181.310 325.750,181.562 333.670,181.760 334.000 C 184.931 339.294,188.670 338.800,195.193 332.226 C 200.295 327.084,199.705 327.084,204.807 332.226 C 211.330 338.800,215.069 339.294,218.240 334.000 C 218.438 333.670,218.690 325.750,218.800 316.400 L 219.000 299.400 225.200 299.400 L 231.400 299.400 231.503 324.700 L 231.606 350.000 200.003 350.000 L 168.400 350.000 168.400 324.867 C 168.400 311.043,168.525 299.609,168.677 299.457 C 168.829 299.304,171.664 299.229,174.977 299.290 L 181.000 299.400 181.200 316.400 M206.400 307.400 C 206.400 316.249,206.372 316.345,204.334 314.397 C 202.610 312.749,200.452 312.138,198.462 312.734 C 197.616 312.988,196.358 313.736,195.666 314.397 C 193.628 316.345,193.600 316.249,193.600 307.400 L 193.600 299.200 200.000 299.200 L 206.400 299.200 206.400 307.400 M282.000 316.200 C 282.226 335.167,282.173 334.853,285.422 336.693 C 288.724 338.563,290.780 337.720,296.390 332.192 C 298.729 329.886,300.804 328.000,301.000 328.000 C 301.196 328.000,303.271 329.886,305.610 332.192 C 311.218 337.718,313.281 338.565,316.570 336.693 C 319.972 334.757,320.000 334.586,320.000 315.727 L 320.000 299.179 326.100 299.290 L 332.200 299.400 332.303 324.700 L 332.406 350.000 301.003 350.000 L 269.600 350.000 269.600 324.590 L 269.600 299.179 275.700 299.290 L 281.800 299.400 282.000 316.200 M307.600 307.176 C 307.600 315.805,307.457 316.362,305.667 314.689 C 302.558 311.782,298.905 311.809,296.238 314.757 C 294.530 316.646,294.400 316.127,294.400 307.400 L 294.400 299.200 301.000 299.200 L 307.600 299.200 307.600 307.176 M357.800 369.400 L 357.800 375.800 200.000 375.800 L 42.200 375.800 42.089 369.818 C 42.028 366.527,42.067 363.602,42.176 363.317 C 42.339 362.894,71.280 362.817,200.088 362.899 L 357.800 363.000 357.800 369.400 " stroke="none" fill="#040404" fill-rule="evenodd"></path><path id="path4" d="M95.919 70.298 C 97.744 70.372,100.624 70.372,102.319 70.297 C 104.014 70.222,102.520 70.161,99.000 70.162 C 95.480 70.162,94.094 70.224,95.919 70.298 M193.877 70.257 C 193.476 70.657,193.536 85.513,193.939 85.762 C 194.125 85.877,194.800 85.393,195.439 84.686 L 196.600 83.400 195.300 84.575 L 194.000 85.750 194.000 78.075 L 194.000 70.400 200.000 70.400 L 206.000 70.400 206.000 78.075 L 206.000 85.750 204.700 84.575 L 203.400 83.400 204.577 84.703 C 206.300 86.609,206.429 86.095,206.309 77.771 L 206.200 70.200 200.177 70.090 C 196.864 70.029,194.029 70.104,193.877 70.257 M297.919 70.298 C 299.744 70.372,302.624 70.372,304.319 70.297 C 306.014 70.222,304.520 70.161,301.000 70.162 C 297.480 70.162,296.094 70.224,297.919 70.298 M103.496 84.744 C 104.209 85.435,104.912 86.000,105.058 86.000 C 105.487 86.000,103.882 84.364,103.004 83.907 C 102.542 83.666,102.751 84.022,103.496 84.744 M305.496 84.744 C 306.209 85.435,306.912 86.000,307.058 86.000 C 307.487 86.000,305.882 84.364,305.004 83.907 C 304.542 83.666,304.751 84.022,305.496 84.744 M193.691 192.476 C 193.601 200.251,193.786 201.459,194.855 200.096 C 195.347 199.468,195.332 199.453,194.709 199.942 C 194.059 200.451,194.010 200.001,193.900 192.542 L 193.782 184.600 193.691 192.476 M205.999 192.681 C 205.890 197.125,205.939 200.622,206.109 200.452 C 206.279 200.282,206.368 196.645,206.308 192.371 L 206.198 184.600 205.999 192.681 M98.105 197.487 C 98.714 197.579,99.614 197.577,100.105 197.482 C 100.597 197.387,100.100 197.311,99.000 197.314 C 97.900 197.317,97.497 197.395,98.105 197.487 M199.100 197.482 C 199.595 197.578,200.405 197.578,200.900 197.482 C 201.395 197.387,200.990 197.309,200.000 197.309 C 199.010 197.309,198.605 197.387,199.100 197.482 M300.105 197.487 C 300.714 197.579,301.614 197.577,302.105 197.482 C 302.597 197.387,302.100 197.311,301.000 197.314 C 299.900 197.317,299.497 197.395,300.105 197.487 M203.927 199.000 C 204.581 199.550,205.252 200.000,205.420 200.000 C 205.587 200.000,205.201 199.550,204.562 199.000 C 203.923 198.451,203.251 198.001,203.069 198.000 C 202.887 198.000,203.273 198.450,203.927 199.000 M102.800 198.525 C 102.800 198.594,103.385 199.179,104.100 199.825 L 105.400 201.000 104.225 199.700 C 103.130 198.488,102.800 198.216,102.800 198.525 M304.800 198.525 C 304.800 198.594,305.385 199.179,306.100 199.825 L 307.400 201.000 306.225 199.700 C 305.130 198.488,304.800 198.216,304.800 198.525 M95.919 299.498 C 97.744 299.572,100.624 299.572,102.319 299.497 C 104.014 299.422,102.520 299.361,99.000 299.362 C 95.480 299.362,94.094 299.424,95.919 299.498 M193.782 299.702 C 193.672 299.989,193.635 303.639,193.700 307.812 L 193.819 315.400 193.909 307.500 L 194.000 299.600 200.000 299.600 L 206.000 299.600 206.000 307.275 L 206.000 314.950 204.878 313.875 C 204.261 313.284,203.593 312.800,203.393 312.800 C 202.966 312.800,205.654 315.160,206.108 315.184 C 206.278 315.193,206.368 311.645,206.308 307.300 L 206.200 299.400 200.091 299.290 C 195.352 299.204,193.938 299.296,193.782 299.702 M297.919 299.498 C 299.744 299.572,302.624 299.572,304.319 299.497 C 306.014 299.422,304.520 299.361,301.000 299.362 C 297.480 299.362,296.094 299.424,297.919 299.498 M94.175 314.100 L 93.000 315.400 94.300 314.225 C 95.512 313.130,95.784 312.800,95.475 312.800 C 95.406 312.800,94.821 313.385,94.175 314.100 M296.175 314.100 L 295.000 315.400 296.300 314.225 C 297.512 313.130,297.784 312.800,297.475 312.800 C 297.406 312.800,296.821 313.385,296.175 314.100 M305.375 313.915 C 306.021 314.622,306.730 315.200,306.950 315.200 C 307.354 315.200,306.463 314.295,304.995 313.215 C 304.558 312.894,304.729 313.209,305.375 313.915 " stroke="none" fill="#8f743a" fill-rule="evenodd"></path></g></svg>