<svg id="svg" version="1.1" xmlns="http://www.w3.org/2000/svg" xmlns:xlink="http://www.w3.org/1999/xlink" width="400" height="400" viewBox="0, 0, 400,400"><g id="svgg"><path id="path0" d="M77.903 244.203 C 67.873 245.890,59.682 251.314,54.958 259.400 L 53.321 262.200 37.861 262.133 C 29.357 262.096,22.400 262.209,22.400 262.383 C 22.400 262.557,21.882 262.804,21.248 262.930 C 20.615 263.057,19.818 263.440,19.477 263.780 C 19.136 264.121,18.658 264.400,18.415 264.400 C 17.847 264.400,15.200 267.037,15.200 267.603 C 15.200 267.840,14.840 268.420,14.400 268.892 C 13.960 269.364,13.600 270.167,13.600 270.675 C 13.600 271.184,13.420 271.600,13.200 271.600 C 12.980 271.600,12.800 272.129,12.800 272.776 C 12.800 273.423,12.620 274.064,12.400 274.200 C 11.871 274.527,11.871 282.000,12.400 282.000 C 12.620 282.000,12.800 282.630,12.800 283.400 C 12.800 284.170,12.980 284.800,13.200 284.800 C 13.420 284.800,13.600 285.034,13.600 285.320 C 13.600 286.056,14.541 287.993,14.900 287.997 C 15.065 287.999,15.200 288.241,15.200 288.536 C 15.200 289.150,17.763 291.600,18.406 291.600 C 18.641 291.600,19.220 291.960,19.692 292.400 C 20.164 292.840,20.967 293.200,21.475 293.200 C 21.984 293.200,22.400 293.380,22.400 293.600 C 22.400 293.860,27.733 294.000,37.600 294.000 C 52.533 294.000,52.800 294.014,52.800 294.800 C 52.800 295.240,52.980 295.600,53.200 295.600 C 53.420 295.600,53.600 295.920,53.600 296.312 C 53.600 296.703,53.960 297.283,54.400 297.600 C 54.840 297.917,55.200 298.457,55.200 298.800 C 55.200 299.143,55.560 299.683,56.000 300.000 C 56.440 300.317,56.800 300.768,56.800 301.002 C 56.800 301.539,60.797 306.000,61.277 306.000 C 61.473 306.000,62.029 306.368,62.511 306.818 C 63.531 307.768,65.484 308.800,66.261 308.800 C 66.558 308.800,66.800 308.980,66.800 309.200 C 66.800 309.420,67.160 309.600,67.600 309.600 C 68.040 309.600,68.400 309.780,68.400 310.000 C 68.400 310.220,68.760 310.400,69.200 310.400 C 69.640 310.400,70.000 310.580,70.000 310.800 C 70.000 311.020,70.540 311.200,71.200 311.200 C 71.860 311.200,72.400 311.380,72.400 311.600 C 72.400 311.820,73.120 312.000,74.000 312.000 C 74.880 312.000,75.600 312.180,75.600 312.400 C 75.600 312.655,78.800 312.800,84.400 312.800 C 90.000 312.800,93.200 312.655,93.200 312.400 C 93.200 312.180,93.920 312.000,94.800 312.000 C 95.680 312.000,96.400 311.820,96.400 311.600 C 96.400 311.380,96.940 311.200,97.600 311.200 C 98.260 311.200,98.800 311.020,98.800 310.800 C 98.800 310.580,99.160 310.400,99.600 310.400 C 100.040 310.400,100.400 310.220,100.400 310.000 C 100.400 309.780,100.760 309.600,101.200 309.600 C 101.640 309.600,102.000 309.420,102.000 309.200 C 102.000 308.980,102.249 308.800,102.554 308.800 C 104.375 308.800,112.000 302.532,112.000 301.035 C 112.000 300.783,112.360 300.317,112.800 300.000 C 113.240 299.683,113.600 299.143,113.600 298.800 C 113.600 298.457,113.960 297.917,114.400 297.600 C 114.840 297.283,115.200 296.703,115.200 296.312 C 115.200 295.920,115.380 295.600,115.600 295.600 C 115.820 295.600,116.000 295.240,116.000 294.800 C 116.000 294.003,116.267 294.000,200.000 294.000 C 283.733 294.000,284.000 294.003,284.000 294.800 C 284.000 295.240,284.180 295.600,284.400 295.600 C 284.620 295.600,284.800 295.920,284.800 296.312 C 284.800 296.703,285.160 297.283,285.600 297.600 C 286.040 297.917,286.400 298.457,286.400 298.800 C 286.400 299.143,286.760 299.683,287.200 300.000 C 287.640 300.317,288.000 300.783,288.000 301.035 C 288.000 301.590,292.178 306.000,292.703 306.000 C 292.908 306.000,293.403 306.361,293.803 306.803 C 294.612 307.697,296.632 308.800,297.461 308.800 C 297.758 308.800,298.000 308.980,298.000 309.200 C 298.000 309.420,298.360 309.600,298.800 309.600 C 299.240 309.600,299.600 309.780,299.600 310.000 C 299.600 310.220,299.960 310.400,300.400 310.400 C 300.840 310.400,301.200 310.580,301.200 310.800 C 301.200 311.020,301.740 311.200,302.400 311.200 C 303.060 311.200,303.600 311.380,303.600 311.600 C 303.600 311.820,304.320 312.000,305.200 312.000 C 306.080 312.000,306.800 312.180,306.800 312.400 C 306.800 312.655,310.000 312.800,315.600 312.800 C 321.200 312.800,324.400 312.655,324.400 312.400 C 324.400 312.180,325.120 312.000,326.000 312.000 C 326.880 312.000,327.600 311.820,327.600 311.600 C 327.600 311.380,328.140 311.200,328.800 311.200 C 329.460 311.200,330.000 311.020,330.000 310.800 C 330.000 310.580,330.360 310.400,330.800 310.400 C 331.240 310.400,331.600 310.220,331.600 310.000 C 331.600 309.780,331.960 309.600,332.400 309.600 C 332.840 309.600,333.200 309.420,333.200 309.200 C 333.200 308.980,333.449 308.800,333.754 308.800 C 335.619 308.800,343.200 302.603,343.200 301.079 C 343.200 300.803,343.560 300.317,344.000 300.000 C 344.440 299.683,344.800 299.143,344.800 298.800 C 344.800 298.457,345.160 297.917,345.600 297.600 C 346.040 297.283,346.400 296.703,346.400 296.312 C 346.400 295.920,346.580 295.600,346.800 295.600 C 347.020 295.600,347.200 295.240,347.200 294.800 C 347.200 294.014,347.467 294.000,362.400 294.000 C 372.267 294.000,377.600 293.860,377.600 293.600 C 377.600 293.380,378.016 293.200,378.525 293.200 C 379.033 293.200,379.836 292.840,380.308 292.400 C 380.780 291.960,381.372 291.600,381.623 291.600 C 382.509 291.600,384.861 288.793,386.062 286.300 C 386.248 285.915,386.580 285.242,386.800 284.805 C 387.020 284.368,387.200 283.659,387.200 283.229 C 387.200 282.799,387.380 282.336,387.600 282.200 C 387.821 282.064,388.000 280.270,388.000 278.200 C 388.000 276.130,387.821 274.336,387.600 274.200 C 387.380 274.064,387.200 273.423,387.200 272.776 C 387.200 272.129,387.020 271.600,386.800 271.600 C 386.580 271.600,386.400 271.184,386.400 270.675 C 386.400 270.167,386.040 269.364,385.600 268.892 C 385.160 268.420,384.800 267.840,384.800 267.603 C 384.800 266.946,382.108 264.400,381.413 264.400 C 381.076 264.400,380.800 264.242,380.800 264.049 C 380.800 263.855,380.305 263.512,379.700 263.286 C 379.095 263.060,378.240 262.726,377.800 262.543 C 377.360 262.361,370.178 262.209,361.839 262.206 L 346.678 262.200 345.039 259.400 C 338.188 247.696,324.266 241.776,309.301 244.203 C 298.456 245.962,287.463 253.839,284.994 261.620 C 284.749 262.390,283.689 262.400,200.047 262.400 L 115.348 262.400 114.635 260.900 C 108.773 248.570,93.424 241.593,77.903 244.203 M88.400 262.955 C 96.733 264.949,101.732 273.661,99.453 282.217 C 94.785 299.746,68.769 296.327,68.805 278.189 C 68.826 267.505,77.908 260.444,88.400 262.955 M319.600 262.955 C 334.513 266.524,335.172 288.781,320.492 293.049 C 313.128 295.189,304.716 291.888,301.783 285.707 C 295.697 272.882,306.017 259.704,319.600 262.955 " stroke="none" fill="#55555e" fill-rule="evenodd"></path><path id="path1" d="M262.586 106.500 C 262.482 106.775,262.353 133.550,262.299 166.000 L 262.200 225.000 146.500 225.101 L 30.800 225.201 30.800 243.807 L 30.800 262.412 42.064 262.306 L 53.328 262.200 54.961 259.400 C 67.586 237.754,104.068 238.671,114.635 260.900 L 115.348 262.400 200.047 262.400 C 283.689 262.400,284.749 262.390,284.994 261.620 C 286.166 257.925,292.857 250.726,297.563 248.094 C 307.620 242.470,321.208 242.157,332.000 247.301 C 336.982 249.675,342.164 254.484,345.036 259.400 L 346.672 262.200 357.936 262.306 L 369.200 262.412 369.200 253.006 L 369.200 243.600 356.215 243.600 C 338.460 243.600,335.914 242.491,332.344 233.200 C 330.522 228.456,332.376 220.389,336.149 216.641 C 340.005 212.812,341.997 212.405,356.900 212.402 L 369.200 212.400 369.200 203.424 C 369.200 197.871,369.047 194.353,368.800 194.200 C 368.580 194.064,368.400 193.513,368.400 192.976 C 368.400 192.439,368.220 192.000,368.000 192.000 C 367.780 192.000,367.600 191.640,367.600 191.200 C 367.600 190.760,367.420 190.400,367.200 190.400 C 366.980 190.400,366.800 190.139,366.800 189.819 C 366.800 189.063,360.937 183.200,360.181 183.200 C 359.861 183.200,359.600 183.020,359.600 182.800 C 359.600 182.580,359.240 182.400,358.800 182.400 C 358.360 182.400,358.000 182.232,358.000 182.027 C 358.000 181.821,357.523 181.596,356.940 181.527 C 356.358 181.457,355.756 181.130,355.603 180.800 C 355.450 180.470,355.116 179.797,354.862 179.305 C 354.608 178.813,354.400 178.084,354.400 177.685 C 354.400 177.286,354.253 176.789,354.072 176.580 C 353.892 176.371,353.153 174.310,352.431 172.000 C 351.708 169.690,350.956 167.487,350.759 167.105 C 350.561 166.723,350.400 166.048,350.400 165.605 C 350.400 165.162,350.220 164.800,350.000 164.800 C 349.780 164.800,349.600 164.260,349.600 163.600 C 349.600 162.940,349.420 162.400,349.200 162.400 C 348.980 162.400,348.800 161.961,348.800 161.424 C 348.800 160.887,348.620 160.336,348.400 160.200 C 348.180 160.064,348.000 159.524,348.000 159.000 C 348.000 158.476,347.820 157.936,347.600 157.800 C 347.380 157.664,347.200 157.124,347.200 156.600 C 347.200 156.076,347.020 155.536,346.800 155.400 C 346.580 155.264,346.400 154.724,346.400 154.200 C 346.400 153.676,346.220 153.136,346.000 153.000 C 345.780 152.864,345.600 152.324,345.600 151.800 C 345.600 151.276,345.420 150.736,345.200 150.600 C 344.980 150.464,344.800 149.924,344.800 149.400 C 344.800 148.876,344.620 148.336,344.400 148.200 C 344.180 148.064,344.000 147.513,344.000 146.976 C 344.000 146.439,343.820 146.000,343.600 146.000 C 343.380 146.000,343.200 145.460,343.200 144.800 C 343.200 144.140,343.020 143.600,342.800 143.600 C 342.580 143.600,342.400 143.060,342.400 142.400 C 342.400 141.740,342.220 141.200,342.000 141.200 C 341.780 141.200,341.597 140.795,341.594 140.300 C 341.587 139.277,340.305 134.972,339.880 134.547 C 339.726 134.393,339.600 133.857,339.600 133.357 C 339.600 132.857,339.420 132.336,339.200 132.200 C 338.980 132.064,338.800 131.524,338.800 131.000 C 338.800 130.476,338.620 129.936,338.400 129.800 C 338.180 129.664,338.000 129.201,338.000 128.771 C 338.000 128.341,337.826 127.677,337.614 127.295 C 337.402 126.913,336.675 124.890,336.000 122.800 C 335.325 120.710,334.598 118.687,334.386 118.305 C 334.174 117.923,334.000 117.248,334.000 116.805 C 334.000 116.362,333.820 116.000,333.600 116.000 C 333.380 116.000,333.200 115.764,333.200 115.475 C 333.200 115.187,332.840 114.564,332.400 114.092 C 331.960 113.620,331.600 113.108,331.600 112.954 C 331.600 112.144,326.930 108.400,325.919 108.400 C 325.523 108.400,325.200 108.264,325.200 108.098 C 325.200 107.931,324.615 107.560,323.900 107.271 C 323.185 106.983,322.287 106.579,321.905 106.374 C 320.764 105.759,262.819 105.883,262.586 106.500 M315.600 125.872 C 317.710 127.187,317.895 127.638,324.789 148.305 C 332.304 170.833,332.378 171.408,328.112 174.060 L 326.600 175.000 301.800 175.124 C 271.432 175.276,271.599 175.293,269.559 171.800 C 268.497 169.981,268.483 130.040,269.544 128.232 C 271.508 124.886,271.757 124.853,294.600 124.932 C 313.989 124.999,314.215 125.009,315.600 125.872 " stroke="none" fill="#24a3fa" fill-rule="evenodd"></path><path id="path2" d="M273.649 125.192 C 271.944 125.606,270.425 126.731,269.544 128.232 C 268.483 130.040,268.497 169.981,269.559 171.800 C 271.599 175.293,271.432 175.276,301.800 175.124 L 326.600 175.000 328.112 174.060 C 332.378 171.408,332.304 170.833,324.789 148.305 C 317.895 127.638,317.710 127.187,315.600 125.872 C 314.114 124.946,277.133 124.347,273.649 125.192 M191.536 138.138 C 187.884 139.761,187.600 140.861,187.600 153.371 L 187.600 163.843 188.744 165.622 C 193.028 172.278,199.233 175.957,202.798 173.953 C 207.130 171.519,207.038 167.453,202.546 162.800 L 200.036 160.200 199.918 151.400 C 199.813 143.542,199.714 142.429,199.000 141.004 C 197.620 138.250,194.220 136.945,191.536 138.138 M350.325 212.699 C 353.914 212.766,359.674 212.766,363.125 212.699 C 366.576 212.633,363.640 212.578,356.600 212.578 C 349.560 212.579,346.736 212.633,350.325 212.699 M88.500 225.100 C 120.345 225.156,172.455 225.156,204.300 225.100 C 236.145 225.044,210.090 224.997,146.400 224.997 C 82.710 224.997,56.655 225.044,88.500 225.100 M331.720 228.000 C 331.720 229.210,331.795 229.705,331.887 229.100 C 331.978 228.495,331.978 227.505,331.887 226.900 C 331.795 226.295,331.720 226.790,331.720 228.000 M342.200 243.200 C 342.640 243.389,343.270 243.544,343.600 243.544 C 343.978 243.544,343.904 243.417,343.400 243.200 C 342.960 243.011,342.330 242.856,342.000 242.856 C 341.622 242.856,341.696 242.983,342.200 243.200 M80.200 262.982 C 65.425 266.626,64.915 288.806,79.508 293.049 C 86.872 295.189,95.284 291.888,98.217 285.707 C 104.325 272.836,93.844 259.616,80.200 262.982 M311.400 262.980 C 303.211 264.995,298.285 273.725,300.547 282.217 C 305.207 299.716,331.200 296.339,331.200 278.235 C 331.200 267.551,321.911 260.395,311.400 262.980 " stroke="none" fill="#eaebeb" fill-rule="evenodd"></path><path id="path3" d="M44.200 87.600 C 44.340 87.826,44.012 88.000,43.447 88.000 C 42.897 88.000,42.336 88.180,42.200 88.400 C 42.064 88.620,41.643 88.800,41.265 88.800 C 40.886 88.800,40.317 89.160,40.000 89.600 C 39.683 90.040,39.185 90.400,38.894 90.400 C 38.602 90.400,37.933 90.805,37.407 91.300 C 36.881 91.795,35.904 92.650,35.237 93.200 C 34.570 93.750,34.019 94.425,34.012 94.700 C 34.005 94.975,33.820 95.200,33.600 95.200 C 33.380 95.200,33.200 95.526,33.200 95.925 C 33.200 96.323,32.875 96.998,32.478 97.425 C 31.646 98.317,31.600 98.443,31.600 99.824 C 31.600 100.417,31.429 100.741,31.192 100.595 C 30.919 100.426,30.820 103.348,30.892 109.472 L 31.000 118.600 60.200 118.800 C 92.392 119.020,90.890 118.893,92.685 121.559 C 93.948 123.435,93.948 126.565,92.685 128.441 C 90.890 131.107,92.392 130.980,60.200 131.200 L 31.000 131.400 30.890 137.500 L 30.779 143.600 72.105 143.600 L 113.430 143.600 115.214 144.500 C 117.287 145.546,118.787 147.855,118.787 150.000 C 118.787 152.145,117.287 154.454,115.214 155.500 L 113.430 156.400 72.105 156.400 L 30.779 156.400 30.890 162.500 L 31.000 168.600 72.800 168.800 C 96.411 168.913,114.861 169.156,115.200 169.360 C 117.237 170.580,118.800 173.029,118.800 175.000 C 118.800 176.971,117.237 179.420,115.200 180.640 C 114.861 180.844,96.411 181.087,72.800 181.200 L 31.000 181.400 30.890 187.500 L 30.779 193.600 59.330 193.600 C 79.617 193.600,88.274 193.732,89.240 194.055 C 95.066 196.007,95.066 203.993,89.240 205.945 C 88.274 206.268,79.619 206.400,59.340 206.400 L 30.800 206.400 30.800 215.600 L 30.800 224.800 146.583 224.800 L 262.367 224.800 262.483 162.700 C 262.548 128.545,262.465 100.540,262.300 100.467 C 262.135 100.393,262.000 99.798,262.000 99.143 C 262.000 98.451,261.832 98.056,261.600 98.200 C 261.373 98.340,261.200 98.004,261.200 97.424 C 261.200 96.861,261.020 96.400,260.800 96.400 C 260.580 96.400,260.400 96.130,260.400 95.800 C 260.400 95.470,260.220 95.200,260.000 95.200 C 259.780 95.200,259.600 95.020,259.600 94.799 C 259.600 94.333,256.361 91.200,255.879 91.200 C 255.699 91.200,255.664 91.020,255.800 90.800 C 255.936 90.580,255.812 90.396,255.524 90.391 C 255.236 90.386,254.550 90.030,254.000 89.600 C 253.450 89.170,252.674 88.814,252.276 88.809 C 251.878 88.804,251.664 88.620,251.800 88.400 C 251.944 88.167,251.537 88.000,250.824 88.000 C 250.151 88.000,249.600 87.820,249.600 87.600 C 249.600 87.334,215.059 87.200,146.776 87.200 C 78.329 87.200,44.035 87.334,44.200 87.600 M202.200 119.404 C 206.091 120.120,207.600 120.496,210.200 121.400 C 243.764 133.067,247.185 184.701,215.501 201.418 C 202.914 208.060,183.121 207.926,171.482 201.121 C 170.428 200.505,169.469 200.000,169.352 200.000 C 165.777 200.000,153.680 184.137,152.271 177.600 C 152.153 177.050,151.859 175.880,151.620 175.000 C 149.227 166.222,149.547 156.062,152.489 147.400 C 157.399 132.939,168.890 122.565,183.006 119.848 C 184.763 119.509,186.560 119.156,187.000 119.063 C 189.032 118.631,199.247 118.860,202.200 119.404 M190.608 138.115 C 187.395 139.935,187.214 140.718,187.207 152.851 C 187.199 165.528,187.020 164.883,191.919 169.896 C 197.012 175.106,199.487 176.193,202.659 174.610 C 207.387 172.252,207.650 167.114,203.260 162.838 C 202.448 162.047,201.382 160.881,200.892 160.246 C 200.399 159.609,200.000 159.346,200.000 159.659 C 200.000 159.970,201.092 161.299,202.428 162.613 C 206.998 167.107,207.142 171.512,202.798 173.953 C 199.233 175.957,193.028 172.278,188.744 165.622 L 187.600 163.843 187.600 153.341 C 187.600 146.109,187.748 142.489,188.076 141.719 C 190.396 136.270,197.359 136.346,199.373 141.842 C 199.834 143.102,199.949 143.213,199.972 142.425 C 200.080 138.681,194.303 136.022,190.608 138.115 M341.632 213.457 C 329.684 217.640,328.379 236.434,339.658 241.871 C 342.966 243.465,344.314 243.600,356.946 243.600 L 369.200 243.600 369.200 228.200 L 369.200 212.800 356.300 212.819 C 345.722 212.835,343.082 212.950,341.632 213.457 " stroke="none" fill="#fbd34b" fill-rule="evenodd"></path><path id="path4" d="M15.200 118.854 C 15.200 119.044,15.022 119.200,14.805 119.200 C 14.196 119.200,12.800 120.515,12.800 121.089 C 12.800 121.370,12.620 121.600,12.400 121.600 C 12.165 121.600,12.000 123.000,12.000 125.000 C 12.000 127.000,12.165 128.400,12.400 128.400 C 12.620 128.400,12.801 128.625,12.801 128.900 C 12.802 129.175,13.341 129.760,14.000 130.200 C 14.659 130.640,15.198 131.111,15.199 131.246 C 15.202 131.890,88.976 131.107,90.386 130.448 C 94.716 128.424,94.716 121.576,90.386 119.552 C 88.832 118.826,15.200 118.142,15.200 118.854 M187.000 119.063 C 186.560 119.156,184.763 119.509,183.006 119.848 C 159.453 124.382,144.828 150.081,151.620 175.000 C 151.859 175.880,152.153 177.050,152.271 177.600 C 153.680 184.137,165.777 200.000,169.352 200.000 C 169.469 200.000,170.428 200.505,171.482 201.121 C 183.121 207.926,202.914 208.060,215.501 201.418 C 247.185 184.701,243.764 133.067,210.200 121.400 C 203.991 119.242,191.893 118.023,187.000 119.063 M196.574 137.994 C 199.820 139.579,200.000 140.225,200.000 150.271 C 200.000 160.139,199.835 159.502,203.260 162.838 C 208.505 167.947,206.564 175.200,199.951 175.200 C 197.182 175.200,189.291 168.507,187.771 164.869 C 186.695 162.293,186.973 142.624,188.115 140.608 C 189.852 137.541,193.400 136.445,196.574 137.994 M26.945 144.314 C 26.205 144.817,25.600 145.492,25.600 145.814 C 25.600 146.136,25.420 146.400,25.200 146.400 C 24.963 146.400,24.800 147.867,24.800 150.000 C 24.800 152.133,24.963 153.600,25.200 153.600 C 25.420 153.600,25.600 153.793,25.600 154.029 C 25.600 154.460,26.039 154.957,27.272 155.924 C 27.815 156.350,35.993 156.443,70.670 156.415 L 113.400 156.382 115.200 155.491 C 117.290 154.456,118.787 152.165,118.787 150.000 C 118.787 147.835,117.290 145.544,115.200 144.509 L 113.400 143.619 70.845 143.509 L 28.291 143.400 26.945 144.314 M26.312 170.038 L 24.800 171.476 24.800 175.002 L 24.800 178.528 26.300 179.914 L 27.800 181.299 70.954 181.235 C 101.130 181.189,114.363 181.039,114.954 180.735 C 119.269 178.516,119.983 173.277,116.384 170.248 C 114.577 168.727,116.923 168.806,70.612 168.699 L 27.823 168.600 26.312 170.038 M14.946 193.756 C 14.705 194.000,14.123 194.465,13.654 194.788 C 13.184 195.112,12.800 195.607,12.800 195.888 C 12.800 196.170,12.620 196.400,12.400 196.400 C 12.163 196.400,12.000 197.867,12.000 200.000 C 12.000 202.133,12.163 203.600,12.400 203.600 C 12.620 203.600,12.800 203.881,12.800 204.224 C 12.800 204.567,12.980 204.736,13.200 204.600 C 13.420 204.464,13.600 204.663,13.600 205.043 C 13.600 205.423,13.709 205.624,13.843 205.491 C 13.976 205.357,14.432 205.571,14.856 205.966 C 15.589 206.649,17.412 206.676,51.714 206.511 C 88.977 206.332,89.723 206.297,91.538 204.651 C 95.157 201.368,93.852 195.469,89.200 194.081 C 87.156 193.471,15.537 193.158,14.946 193.756 " stroke="none" fill="#fca404" fill-rule="evenodd"></path></g></svg>