<?xml version="1.0" encoding="UTF-8"?>
<!DOCTYPE svg PUBLIC "-//W3C//DTD SVG 1.1//EN" "http://www.w3.org/Graphics/SVG/1.1/DTD/svg11.dtd">
<svg xmlns="http://www.w3.org/2000/svg" version="1.1" width="758px" height="499px" style="shape-rendering:geometricPrecision; text-rendering:geometricPrecision; image-rendering:optimizeQuality; fill-rule:evenodd; clip-rule:evenodd" xmlns:xlink="http://www.w3.org/1999/xlink">
<g><path style="opacity:1" fill="#c5ad67" d="M 401.5,89.5 C 401.5,90.1667 401.167,90.5 400.5,90.5C 397.833,90.8333 397.833,91.1667 400.5,91.5C 401.209,92.404 402.209,92.7373 403.5,92.5C 404.167,92.5 404.833,92.5 405.5,92.5C 405.842,93.3382 406.508,93.6716 407.5,93.5C 408.5,93.5 409.5,93.5 410.5,93.5C 410.5,94.1667 410.833,94.5 411.5,94.5C 412.5,94.5 413.5,94.5 414.5,94.5C 414.5,95.1667 414.833,95.5 415.5,95.5C 416.167,95.5 416.833,95.5 417.5,95.5C 417.5,96.1667 417.833,96.5 418.5,96.5C 419.5,96.5 420.5,96.5 421.5,96.5C 421.5,97.1667 421.833,97.5 422.5,97.5C 425.167,97.1667 425.167,96.8333 422.5,96.5C 422.5,95.8333 422.833,95.5 423.5,95.5C 469.41,110.571 502.243,140.238 522,184.5C 532.339,212.408 535.506,241.075 531.5,270.5C 530.262,272.214 529.595,274.214 529.5,276.5C 529.5,276.833 529.5,277.167 529.5,277.5C 529.167,278.167 528.833,278.833 528.5,279.5C 528.5,280.5 528.5,281.5 528.5,282.5C 527.833,282.5 527.5,282.833 527.5,283.5C 527.5,284.167 527.5,284.833 527.5,285.5C 527.167,286.167 526.833,286.833 526.5,287.5C 526.328,288.492 526.662,289.158 527.5,289.5C 527.5,290.5 527.5,291.5 527.5,292.5C 526.778,292.082 526.278,291.416 526,290.5C 524.029,294.74 522.695,299.073 522,303.5C 522.333,302.833 522.667,302.167 523,301.5C 523.399,301.728 523.565,302.062 523.5,302.5C 521.559,309.71 518.559,316.376 514.5,322.5C 514.34,318.764 513.507,318.764 512,322.5C 511.536,321.906 511.369,321.239 511.5,320.5C 525.983,290.942 531.983,259.942 529.5,227.5C 529.5,226.833 529.5,226.167 529.5,225.5C 529.5,225.167 529.5,224.833 529.5,224.5C 529.672,223.508 529.338,222.842 528.5,222.5C 528.5,221.5 528.5,220.5 528.5,219.5C 528.567,218.041 528.234,216.708 527.5,215.5C 527.167,214.167 526.833,214.167 526.5,215.5C 526.649,216.552 526.483,217.552 526,218.5C 525.802,216.618 525.302,214.952 524.5,213.5C 524.624,218.049 525.291,222.382 526.5,226.5C 526.5,227.167 526.5,227.833 526.5,228.5C 526.216,230.415 526.549,232.081 527.5,233.5C 529.111,276.155 516.944,313.821 491,346.5C 478.611,360.745 464.111,372.078 447.5,380.5C 447.5,380.167 447.5,379.833 447.5,379.5C 462.629,369.882 476.129,358.216 488,344.5C 488.635,343.034 489.469,341.7 490.5,340.5C 490.03,339.537 489.363,339.537 488.5,340.5C 487.833,340.5 487.167,340.5 486.5,340.5C 514.059,304.081 524.726,263.581 518.5,219C 507.241,162.775 474.908,124.442 421.5,104C 361.164,86.5403 309.33,100.374 266,145.5C 253.341,160.482 243.508,177.149 236.5,195.5C 236.167,191.5 235.833,191.5 235.5,195.5C 234.596,196.209 234.263,197.209 234.5,198.5C 233.596,199.209 233.263,200.209 233.5,201.5C 229.245,213.686 226.911,226.353 226.5,239.5C 225.549,238.081 225.216,236.415 225.5,234.5C 227.472,180.531 252.472,138.365 300.5,108C 332.065,90.4057 365.732,84.239 401.5,89.5 Z M 363.5,197.5 C 365.384,197.712 366.717,198.712 367.5,200.5C 362.416,209.003 357.083,217.336 351.5,225.5C 350.618,224.24 349.618,223.074 348.5,222C 353.386,213.722 358.386,205.555 363.5,197.5 Z M 345.5,206.5 C 347.2,207.016 348.533,208.016 349.5,209.5C 347.8,212.039 346.3,214.705 345,217.5C 341.564,213.534 341.731,209.867 345.5,206.5 Z"/></g>
<g><path style="opacity:1" fill="#9e8c57" d="M 401.5,89.5 C 402.492,89.3284 403.158,89.6618 403.5,90.5C 402.167,90.8333 402.167,91.1667 403.5,91.5C 403.5,91.8333 403.5,92.1667 403.5,92.5C 402.209,92.7373 401.209,92.404 400.5,91.5C 400.5,91.1667 400.5,90.8333 400.5,90.5C 401.167,90.5 401.5,90.1667 401.5,89.5 Z"/></g>
<g><path style="opacity:1" fill="#a18f58" d="M 405.5,91.5 C 406.492,91.3284 407.158,91.6618 407.5,92.5C 407.5,92.8333 407.5,93.1667 407.5,93.5C 406.508,93.6716 405.842,93.3382 405.5,92.5C 405.5,92.1667 405.5,91.8333 405.5,91.5 Z"/></g>
<g><path style="opacity:1" fill="#c8af68" d="M 403.5,90.5 C 406.206,90.5751 408.873,90.9084 411.5,91.5C 411.5,92.1667 411.167,92.5 410.5,92.5C 409.5,92.5 408.5,92.5 407.5,92.5C 407.158,91.6618 406.492,91.3284 405.5,91.5C 404.833,91.5 404.167,91.5 403.5,91.5C 402.167,91.1667 402.167,90.8333 403.5,90.5 Z"/></g>
<g><path style="opacity:1" fill="#b29c5f" d="M 411.5,91.5 C 415.785,92.2616 419.785,93.5949 423.5,95.5C 422.833,95.5 422.5,95.8333 422.5,96.5C 422.5,96.8333 422.5,97.1667 422.5,97.5C 421.833,97.5 421.5,97.1667 421.5,96.5C 420.5,95.1667 419.5,95.1667 418.5,96.5C 417.833,96.5 417.5,96.1667 417.5,95.5C 416.833,94.1667 416.167,94.1667 415.5,95.5C 414.833,95.5 414.5,95.1667 414.5,94.5C 413.5,93.1667 412.5,93.1667 411.5,94.5C 410.833,94.5 410.5,94.1667 410.5,93.5C 410.5,93.1667 410.5,92.8333 410.5,92.5C 411.167,92.5 411.5,92.1667 411.5,91.5 Z"/></g>
<g><path style="opacity:1" fill="#8c7c50" d="M 466.5,119.5 C 467.5,119.833 468.167,120.5 468.5,121.5C 467.167,121.5 466.5,120.833 466.5,119.5 Z"/></g>
<g><path style="opacity:1" fill="#8e7e51" d="M 471.5,123.5 C 472.833,124.167 473.833,125.167 474.5,126.5C 472.5,126.5 471.5,125.5 471.5,123.5 Z"/></g>
<g><path style="opacity:1" fill="#ac985d" d="M 492.5,145.5 C 494.757,146.562 495.923,148.228 496,150.5C 494.198,149.211 493.031,147.544 492.5,145.5 Z"/></g>
<g><path style="opacity:1" fill="#c7ae68" d="M 383.5,150.5 C 391.039,150.457 397.705,152.79 403.5,157.5C 413.514,153.337 421.014,156.003 426,165.5C 428.367,174.109 425.7,180.776 418,185.5C 416.326,203.739 406.492,211.572 388.5,209C 384.809,207.31 384.643,205.476 388,203.5C 404.43,206.068 412.43,199.068 412,182.5C 422.66,177.505 424.16,170.672 416.5,162C 411.98,160.373 407.647,160.873 403.5,163.5C 399.871,161.349 396.204,159.182 392.5,157C 384.274,154.926 377.274,156.926 371.5,163C 358.084,163.322 352.251,170.155 354,183.5C 351.546,185.013 349.879,184.346 349,181.5C 347.876,166.28 355.043,158.113 370.5,157C 374.394,153.72 378.727,151.553 383.5,150.5 Z"/></g>
<g><path style="opacity:1" fill="#9c8a57" d="M 501.5,157.5 C 499.915,156.998 499.415,155.998 500,154.5C 501.039,155.244 501.539,156.244 501.5,157.5 Z"/></g>
<g><path style="opacity:1" fill="#9f8c58" d="M 501.5,157.5 C 503.085,158.002 503.585,159.002 503,160.5C 501.961,159.756 501.461,158.756 501.5,157.5 Z"/></g>
<g><path style="opacity:1" fill="#c9b069" d="M 366.5,190.5 C 362.396,187.283 362.729,184.783 367.5,183C 366.149,180.875 366.815,179.708 369.5,179.5C 373.451,182.277 377.284,185.277 381,188.5C 381.49,189.793 381.657,191.127 381.5,192.5C 380.5,192.5 379.5,192.5 378.5,192.5C 378.884,194.665 378.217,196.332 376.5,197.5C 373.131,195.116 369.797,192.783 366.5,190.5 Z"/></g>
<g><path style="opacity:1" fill="#9e8b55" d="M 234.5,187.5 C 234.987,186.527 235.487,185.527 236,184.5C 236.725,186.157 236.225,187.157 234.5,187.5 Z"/></g>
<g><path style="opacity:1" fill="#c8af68" d="M 366.5,190.5 C 368.461,192.963 370.628,195.297 373,197.5C 373.167,198.333 373.333,199.167 373.5,200C 370.148,206.206 366.982,212.373 364,218.5C 364.689,219.357 365.522,220.023 366.5,220.5C 371.386,219.375 375.719,217.209 379.5,214C 386.581,212.805 392.914,214.471 398.5,219C 407.793,227.085 413.293,237.252 415,249.5C 419,252.167 422.333,255.5 425,259.5C 425.738,263.261 425.405,266.928 424,270.5C 420.616,277.213 416.45,283.38 411.5,289C 404.126,296.322 396.792,296.322 389.5,289C 380.339,288.502 371.673,286.169 363.5,282C 360.964,281.661 358.464,281.161 356,280.5C 350.918,282.032 345.751,282.532 340.5,282C 334.975,279.081 333.142,274.581 335,268.5C 337.312,264.42 340.812,261.92 345.5,261C 350.833,260.667 356.167,260.333 361.5,260C 353.659,254.913 345.992,249.58 338.5,244C 330.754,238.011 327.254,230.178 328,220.5C 330.096,216.865 333.263,214.865 337.5,214.5C 336.228,207.118 339.228,202.785 346.5,201.5C 349.111,201.556 351.278,202.556 353,204.5C 355.949,199.062 359.449,194.062 363.5,189.5C 364.417,190.127 365.417,190.461 366.5,190.5 Z M 363.5,197.5 C 358.386,205.555 353.386,213.722 348.5,222C 349.618,223.074 350.618,224.24 351.5,225.5C 357.083,217.336 362.416,209.003 367.5,200.5C 366.717,198.712 365.384,197.712 363.5,197.5 Z M 345.5,206.5 C 341.731,209.867 341.564,213.534 345,217.5C 346.3,214.705 347.8,212.039 349.5,209.5C 348.533,208.016 347.2,207.016 345.5,206.5 Z M 381.5,218.5 C 389.397,219.032 395.897,222.366 401,228.5C 408.636,239.404 411.302,251.404 409,264.5C 410.333,265.833 411.667,265.833 413,264.5C 413.939,261.879 414.772,259.212 415.5,256.5C 419.171,259.283 420.338,262.95 419,267.5C 416.09,275.081 411.59,281.581 405.5,287C 401.596,290.315 397.93,290.148 394.5,286.5C 398.229,284.06 401.395,281.06 404,277.5C 404.854,275.393 404.188,274.059 402,273.5C 399.216,275.28 396.716,277.447 394.5,280C 391.551,281.761 388.384,282.928 385,283.5C 376.978,281.604 369.145,279.104 361.5,276C 354.839,276.12 348.173,276.12 341.5,276C 338.96,272.039 339.96,269.039 344.5,267C 347.743,265.982 351.076,265.482 354.5,265.5C 358.85,265.955 363.184,266.121 367.5,266C 369.41,265.592 370.41,264.425 370.5,262.5C 369.103,259.594 367.103,257.094 364.5,255C 354.351,249.506 345.185,242.673 337,234.5C 335.355,231.378 333.855,228.212 332.5,225C 333.696,220.401 336.362,219.068 340.5,221C 347.166,231.329 356.166,238.829 367.5,243.5C 368.91,243.132 369.91,242.299 370.5,241C 365.5,237.333 360.5,233.667 355.5,230C 356.874,227.417 358.374,224.917 360,222.5C 364.801,226.299 369.301,230.466 373.5,235C 374.793,235.49 376.127,235.657 377.5,235.5C 376.65,231.45 374.65,227.95 371.5,225C 372,224.5 372.5,224 373,223.5C 377.826,225.149 382.326,227.482 386.5,230.5C 387.833,229.833 388.833,228.833 389.5,227.5C 386.671,224.841 383.671,222.341 380.5,220C 381.056,219.617 381.389,219.117 381.5,218.5 Z"/></g>
<g><path style="opacity:1" fill="#b49e5f" d="M 235.5,195.5 C 235.833,195.5 236.167,195.5 236.5,195.5C 234.788,203.68 232.788,211.68 230.5,219.5C 231.18,213.447 232.18,207.447 233.5,201.5C 234.404,200.791 234.737,199.791 234.5,198.5C 235.404,197.791 235.737,196.791 235.5,195.5 Z"/></g>
<g><path style="opacity:1" fill="#968454" d="M 524.5,213.5 C 522.734,209.761 521.901,205.761 522,201.5C 523.47,205.378 524.303,209.378 524.5,213.5 Z"/></g>
<g><path style="opacity:1" fill="#a08e59" d="M 524.5,204.5 C 526.326,206.455 526.826,208.788 526,211.5C 525.338,209.187 524.838,206.854 524.5,204.5 Z"/></g>
<g><path style="opacity:1" fill="#b9a261" d="M 230.5,219.5 C 230.662,221.527 230.495,223.527 230,225.5C 229.211,223.288 229.378,221.288 230.5,219.5 Z"/></g>
<g><path style="opacity:1" fill="#a08d58" d="M 524.5,213.5 C 525.302,214.952 525.802,216.618 526,218.5C 526.483,217.552 526.649,216.552 526.5,215.5C 526.833,215.5 527.167,215.5 527.5,215.5C 528.234,216.708 528.567,218.041 528.5,219.5C 527.231,221.257 527.231,222.257 528.5,222.5C 529.338,222.842 529.672,223.508 529.5,224.5C 528.833,224.5 528.5,224.833 528.5,225.5C 527.833,225.5 527.5,225.833 527.5,226.5C 527.167,226.5 526.833,226.5 526.5,226.5C 525.291,222.382 524.624,218.049 524.5,213.5 Z"/></g>
<g><path style="opacity:1" fill="#908052" d="M 528.5,225.5 C 528.833,225.5 529.167,225.5 529.5,225.5C 529.5,226.167 529.5,226.833 529.5,227.5C 528.833,227.833 528.167,228.167 527.5,228.5C 527.5,227.833 527.5,227.167 527.5,226.5C 528.167,226.5 528.5,226.167 528.5,225.5 Z"/></g>
<g><path style="opacity:1" fill="#b49e5f" d="M 228.5,226.5 C 229.638,229.304 229.805,232.304 229,235.5C 228.502,232.518 228.335,229.518 228.5,226.5 Z"/></g>
<g><path style="opacity:1" fill="#9f8c58" d="M 526.5,228.5 C 526.833,228.5 527.167,228.5 527.5,228.5C 528.071,229.973 528.071,231.64 527.5,233.5C 526.549,232.081 526.216,230.415 526.5,228.5 Z"/></g>
<g><path style="opacity:1" fill="#9a8853" d="M 225.5,234.5 C 225.216,236.415 225.549,238.081 226.5,239.5C 226.067,242.166 225.567,244.832 225,247.5C 224.186,242.98 224.353,238.646 225.5,234.5 Z"/></g>
<g><path style="opacity:1" fill="#948453" d="M 531.5,270.5 C 531.946,273.01 531.28,275.01 529.5,276.5C 529.595,274.214 530.262,272.214 531.5,270.5 Z"/></g>
<g><path style="opacity:1" fill="#8d7d50" d="M 529.5,277.5 C 530.573,278.251 530.74,279.251 530,280.5C 529.617,279.944 529.117,279.611 528.5,279.5C 528.833,278.833 529.167,278.167 529.5,277.5 Z"/></g>
<g><path style="opacity:1" fill="#9b8956" d="M 527.5,283.5 C 527.5,282.833 527.833,282.5 528.5,282.5C 529.833,283.5 529.833,284.5 528.5,285.5C 528.672,284.508 528.338,283.842 527.5,283.5 Z"/></g>
<g><path style="opacity:1" fill="#9f8d58" d="M 527.5,285.5 C 527.833,285.5 528.167,285.5 528.5,285.5C 528.768,287.099 528.434,288.432 527.5,289.5C 527.672,288.508 527.338,287.842 526.5,287.5C 526.833,286.833 527.167,286.167 527.5,285.5 Z"/></g>
<g><path style="opacity:1" fill="#b49e60" d="M 527.5,292.5 C 526.343,295.984 525.01,299.317 523.5,302.5C 523.565,302.062 523.399,301.728 523,301.5C 522.667,302.167 522.333,302.833 522,303.5C 522.695,299.073 524.029,294.74 526,290.5C 526.278,291.416 526.778,292.082 527.5,292.5 Z"/></g>
<g><path style="opacity:1" fill="#c8af68" d="M 287.5,314.5 C 289.213,315.635 289.88,317.302 289.5,319.5C 287.167,319.5 284.833,319.5 282.5,319.5C 282.5,321.5 282.5,323.5 282.5,325.5C 284.527,325.338 286.527,325.505 288.5,326C 289.833,327 289.833,328 288.5,329C 286.527,329.495 284.527,329.662 282.5,329.5C 282.5,332.167 282.5,334.833 282.5,337.5C 284.527,337.338 286.527,337.505 288.5,338C 289.833,339.333 289.833,340.667 288.5,342C 284.909,342.789 281.409,342.622 278,341.5C 277.5,332.84 277.334,324.173 277.5,315.5C 281.042,315.813 284.375,315.479 287.5,314.5 Z"/></g>
<g><path style="opacity:1" fill="#cab169" d="M 293.5,315.5 C 294.833,315.5 296.167,315.5 297.5,315.5C 297.334,322.841 297.5,330.174 298,337.5C 300.041,338.423 302.208,338.756 304.5,338.5C 304.5,339.833 304.5,341.167 304.5,342.5C 300.833,342.5 297.167,342.5 293.5,342.5C 293.5,333.5 293.5,324.5 293.5,315.5 Z"/></g>
<g><path style="opacity:1" fill="#c8af68" d="M 318.5,314.5 C 320.213,315.635 320.88,317.302 320.5,319.5C 318.167,319.5 315.833,319.5 313.5,319.5C 313.5,321.5 313.5,323.5 313.5,325.5C 315.5,325.5 317.5,325.5 319.5,325.5C 319.5,326.833 319.5,328.167 319.5,329.5C 317.5,329.5 315.5,329.5 313.5,329.5C 313.666,333.514 313.499,337.514 313,341.5C 311.667,342.833 310.333,342.833 309,341.5C 308.5,332.84 308.334,324.173 308.5,315.5C 312.042,315.813 315.375,315.479 318.5,314.5 Z"/></g>
<g><path style="opacity:1" fill="#c4ac66" d="M 324.5,315.5 C 331.023,313.78 335.023,316.113 336.5,322.5C 335.627,324.413 334.627,326.247 333.5,328C 338.938,333.326 338.271,337.993 331.5,342C 328.901,342.769 326.401,342.602 324,341.5C 323.225,332.785 323.392,324.119 324.5,315.5 Z M 328.5,318.5 C 332.255,320.877 332.421,323.544 329,326.5C 328.503,323.854 328.336,321.187 328.5,318.5 Z M 328.5,330.5 C 332.139,331.112 333.139,333.112 331.5,336.5C 330.675,337.386 329.675,337.719 328.5,337.5C 328.5,335.167 328.5,332.833 328.5,330.5 Z"/></g>
<g><path style="opacity:1" fill="#c9b069" d="M 346.5,315.5 C 348.167,315.5 349.833,315.5 351.5,315.5C 353.185,324.427 355.185,333.26 357.5,342C 355.866,342.494 354.199,342.66 352.5,342.5C 351.925,338.527 349.758,337.527 346,339.5C 345.517,340.448 345.351,341.448 345.5,342.5C 343.801,342.66 342.134,342.494 340.5,342C 342.815,333.26 344.815,324.427 346.5,315.5 Z M 348.5,326.5 C 350.04,328.838 350.706,331.505 350.5,334.5C 349.5,334.5 348.5,334.5 347.5,334.5C 347.833,331.833 348.167,329.167 348.5,326.5 Z"/></g>
<g><path style="opacity:1" fill="#c7af68" d="M 361.5,315.5 C 371.15,313.367 375.317,317.034 374,326.5C 373.215,328.286 372.049,329.786 370.5,331C 372.864,334.559 374.531,338.392 375.5,342.5C 373.712,342.785 372.045,342.452 370.5,341.5C 369,338.5 367.5,335.5 366,332.5C 365.502,335.817 365.335,339.15 365.5,342.5C 363.833,342.5 362.167,342.5 360.5,342.5C 361.266,333.521 361.599,324.521 361.5,315.5 Z M 365.5,319.5 C 371.681,321.593 372.014,324.593 366.5,328.5C 365.516,325.572 365.183,322.572 365.5,319.5 Z"/></g>
<g><path style="opacity:1" fill="#c7ae68" d="M 389.5,315.5 C 396.031,313.779 400.031,316.112 401.5,322.5C 401.152,324.697 400.152,326.53 398.5,328C 403.724,332.194 403.724,336.528 398.5,341C 395.649,342.289 392.649,342.789 389.5,342.5C 389.5,333.5 389.5,324.5 389.5,315.5 Z M 393.5,319.5 C 395.722,319.559 396.722,320.725 396.5,323C 396.231,324.607 395.397,325.774 394,326.5C 393.503,324.19 393.337,321.857 393.5,319.5 Z M 393.5,330.5 C 397.139,331.112 398.139,333.112 396.5,336.5C 395.675,337.386 394.675,337.719 393.5,337.5C 393.5,335.167 393.5,332.833 393.5,330.5 Z"/></g>
<g><path style="opacity:1" fill="#c8af68" d="M 405.5,315.5 C 407.167,315.5 408.833,315.5 410.5,315.5C 410.334,322.841 410.5,330.174 411,337.5C 413.041,338.423 415.208,338.756 417.5,338.5C 417.5,339.833 417.5,341.167 417.5,342.5C 413.833,342.5 410.167,342.5 406.5,342.5C 406.499,333.485 406.166,324.485 405.5,315.5 Z"/></g>
<g><path style="opacity:1" fill="#c8b068" d="M 426.5,315.5 C 428.467,315.261 430.301,315.594 432,316.5C 433.9,325.167 435.733,333.834 437.5,342.5C 434.05,343.244 432.384,341.91 432.5,338.5C 430.5,338.5 428.5,338.5 426.5,338.5C 426.616,341.91 424.95,343.244 421.5,342.5C 423.296,333.522 424.962,324.522 426.5,315.5 Z M 428.5,327.5 C 430.011,328.958 431.011,330.791 431.5,333C 430.289,334.578 428.955,334.745 427.5,333.5C 428.348,331.591 428.682,329.591 428.5,327.5 Z"/></g>
<g><path style="opacity:1" fill="#c8af68" d="M 452.5,314.5 C 454.759,315.344 455.759,317.011 455.5,319.5C 448.863,318.966 445.53,322.132 445.5,329C 445.53,335.868 448.863,339.034 455.5,338.5C 455.5,339.833 455.5,341.167 455.5,342.5C 449.043,343.025 444.543,340.358 442,334.5C 439.547,324.394 443.047,317.728 452.5,314.5 Z"/></g>
<g><path style="opacity:1" fill="#c8b069" d="M 459.5,315.5 C 461.167,315.5 462.833,315.5 464.5,315.5C 464.335,318.85 464.502,322.183 465,325.5C 466.96,322.415 468.793,319.248 470.5,316C 472.259,315.202 473.926,315.369 475.5,316.5C 473.11,320.113 471.11,323.946 469.5,328C 471.953,332.406 474.287,336.906 476.5,341.5C 474.833,342.833 473.167,342.833 471.5,341.5C 469.333,337.833 467.167,334.167 465,330.5C 464.501,334.486 464.334,338.486 464.5,342.5C 462.833,342.5 461.167,342.5 459.5,342.5C 459.5,333.5 459.5,324.5 459.5,315.5 Z"/></g>
<g><path style="opacity:1" fill="#9c8a53" d="M 241.5,321.5 C 242.833,322.167 242.833,322.167 241.5,321.5 Z"/></g>
<g><path style="opacity:1" fill="#cab269" d="M 244.5,326.5 C 245.833,327.167 245.833,327.167 244.5,326.5 Z"/></g>
<g><path style="opacity:1" fill="#cab269" d="M 246.5,329.5 C 245.833,328.167 245.833,328.167 246.5,329.5 Z"/></g>
<g><path style="opacity:1" fill="#cab269" d="M 246.5,329.5 C 247.833,330.167 247.833,330.167 246.5,329.5 Z"/></g>
<g><path style="opacity:1" fill="#cab269" d="M 248.5,332.5 C 247.833,331.167 247.833,331.167 248.5,332.5 Z"/></g>
<g><path style="opacity:1" fill="#cab269" d="M 248.5,332.5 C 249.833,333.167 249.833,333.167 248.5,332.5 Z"/></g>
<g><path style="opacity:1" fill="#cab269" d="M 250.5,335.5 C 249.833,334.167 249.833,334.167 250.5,335.5 Z"/></g>
<g><path style="opacity:1" fill="#cab269" d="M 250.5,335.5 C 251.833,336.167 251.833,336.167 250.5,335.5 Z"/></g>
<g><path style="opacity:1" fill="#cab269" d="M 252.5,338.5 C 251.833,337.167 251.833,337.167 252.5,338.5 Z"/></g>
<g><path style="opacity:1" fill="#cab269" d="M 252.5,338.5 C 253.167,338.5 253.5,338.833 253.5,339.5C 253.167,339.167 252.833,338.833 252.5,338.5 Z"/></g>
<g><path style="opacity:1" fill="#9c8a53" d="M 253.5,339.5 C 254.833,340.167 254.833,340.167 253.5,339.5 Z"/></g>
<g><path style="opacity:1" fill="#cab269" d="M 255.5,342.5 C 254.833,341.167 254.833,341.167 255.5,342.5 Z"/></g>
<g><path style="opacity:1" fill="#b19c5e" d="M 486.5,340.5 C 487.167,340.5 487.833,340.5 488.5,340.5C 486.1,343.903 483.1,346.57 479.5,348.5C 481.862,345.808 484.196,343.141 486.5,340.5 Z"/></g>
<g><path style="opacity:1" fill="#cab269" d="M 255.5,342.5 C 256.167,342.5 256.5,342.833 256.5,343.5C 256.167,343.167 255.833,342.833 255.5,342.5 Z"/></g>
<g><path style="opacity:1" fill="#cab269" d="M 256.5,343.5 C 257.167,343.5 257.5,343.833 257.5,344.5C 257.167,344.167 256.833,343.833 256.5,343.5 Z"/></g>
<g><path style="opacity:1" fill="#cab269" d="M 257.5,344.5 C 258.833,345.167 258.833,345.167 257.5,344.5 Z"/></g>
<g><path style="opacity:1" fill="#cab269" d="M 259.5,347.5 C 258.833,346.167 258.833,346.167 259.5,347.5 Z"/></g>
<g><path style="opacity:1" fill="#cab269" d="M 259.5,347.5 C 260.167,347.5 260.5,347.833 260.5,348.5C 260.167,348.167 259.833,347.833 259.5,347.5 Z"/></g>
<g><path style="opacity:1" fill="#cab269" d="M 260.5,348.5 C 261.167,348.5 261.5,348.833 261.5,349.5C 261.167,349.167 260.833,348.833 260.5,348.5 Z"/></g>
<g><path style="opacity:1" fill="#aa965b" d="M 479.5,348.5 C 478.833,349.167 478.833,349.167 479.5,348.5 Z"/></g>
<g><path style="opacity:1" fill="#cab269" d="M 261.5,349.5 C 262.833,350.167 262.833,350.167 261.5,349.5 Z"/></g>
<g><path style="opacity:1" fill="#a08e57" d="M 478.5,349.5 C 477.833,350.167 477.833,350.167 478.5,349.5 Z"/></g>
<g><path style="opacity:1" fill="#8a7c4d" d="M 477.5,350.5 C 476.833,351.167 476.833,351.167 477.5,350.5 Z"/></g>
<g><path style="opacity:1" fill="#9f8d56" d="M 469.5,355.5 C 470.833,356.167 470.833,356.167 469.5,355.5 Z"/></g>
<g><path style="opacity:1" fill="#9c8a53" d="M 268.5,357.5 C 267.833,356.167 267.833,356.167 268.5,357.5 Z"/></g>
<g><path style="opacity:1" fill="#9c8a53" d="M 268.5,357.5 C 269.167,357.5 269.5,357.833 269.5,358.5C 269.167,358.167 268.833,357.833 268.5,357.5 Z"/></g>
<g><path style="opacity:1" fill="#9c8a53" d="M 269.5,358.5 C 270.167,358.5 270.5,358.833 270.5,359.5C 270.167,359.167 269.833,358.833 269.5,358.5 Z"/></g>
<g><path style="opacity:1" fill="#9c8a53" d="M 270.5,359.5 C 271.833,360.167 271.833,360.167 270.5,359.5 Z"/></g>
<g><path style="opacity:1" fill="#cab269" d="M 276.5,364.5 C 275.833,363.167 275.833,363.167 276.5,364.5 Z"/></g>
<g><path style="opacity:1" fill="#cab269" d="M 276.5,364.5 C 277.167,364.5 277.5,364.833 277.5,365.5C 277.167,365.167 276.833,364.833 276.5,364.5 Z"/></g>
<g><path style="opacity:1" fill="#cab269" d="M 277.5,365.5 C 278.167,365.5 278.5,365.833 278.5,366.5C 278.167,366.167 277.833,365.833 277.5,365.5 Z"/></g>
<g><path style="opacity:1" fill="#cab269" d="M 278.5,366.5 C 279.833,367.167 279.833,367.167 278.5,366.5 Z"/></g>
<g><path style="opacity:1" fill="#9c8a53" d="M 281.5,368.5 C 280.833,367.167 280.833,367.167 281.5,368.5 Z"/></g>
<g><path style="opacity:1" fill="#cab269" d="M 281.5,368.5 C 282.167,368.5 282.5,368.833 282.5,369.5C 282.167,369.167 281.833,368.833 281.5,368.5 Z"/></g>
<g><path style="opacity:1" fill="#cab269" d="M 282.5,369.5 C 283.167,369.5 283.5,369.833 283.5,370.5C 283.167,370.167 282.833,369.833 282.5,369.5 Z"/></g>
<g><path style="opacity:1" fill="#9c8a53" d="M 283.5,370.5 C 284.833,371.167 284.833,371.167 283.5,370.5 Z"/></g>
<g><path style="opacity:1" fill="#cab269" d="M 287.5,373.5 C 286.833,372.167 286.833,372.167 287.5,373.5 Z"/></g>
<g><path style="opacity:1" fill="#bca563" d="M 514.5,322.5 C 494.852,359.303 465.185,384.469 425.5,398C 409.89,403.158 393.89,405.491 377.5,405C 387.095,404.255 396.429,402.755 405.5,400.5C 408.781,400.58 411.781,399.913 414.5,398.5C 414.833,398.5 415.167,398.5 415.5,398.5C 416.167,398.5 416.833,398.5 417.5,398.5C 418.492,398.672 419.158,398.338 419.5,397.5C 419.833,397.5 420.167,397.5 420.5,397.5C 425.644,396.128 430.644,394.295 435.5,392C 434.584,391.722 433.918,391.222 433.5,390.5C 467.456,375.883 493.456,352.55 511.5,320.5C 511.369,321.239 511.536,321.906 512,322.5C 513.507,318.764 514.34,318.764 514.5,322.5 Z M 479.5,364.5 C 478.738,366.262 477.404,367.262 475.5,367.5C 476.262,365.738 477.596,364.738 479.5,364.5 Z M 494.5,348.5 C 494.573,350.027 493.906,351.027 492.5,351.5C 492.427,349.973 493.094,348.973 494.5,348.5 Z M 502.5,338.5 C 502.573,340.027 501.906,341.027 500.5,341.5C 500.427,339.973 501.094,338.973 502.5,338.5 Z M 469.5,372.5 C 469.027,373.906 468.027,374.573 466.5,374.5C 466.973,373.094 467.973,372.427 469.5,372.5 Z M 465.5,375.5 C 465.027,376.906 464.027,377.573 462.5,377.5C 462.973,376.094 463.973,375.427 465.5,375.5 Z"/></g>
<g><path style="opacity:1" fill="#9c8a53" d="M 287.5,373.5 C 288.833,374.167 288.833,374.167 287.5,373.5 Z"/></g>
<g><path style="opacity:1" fill="#9c8a53" d="M 290.5,375.5 C 289.833,374.167 289.833,374.167 290.5,375.5 Z"/></g>
<g><path style="opacity:1" fill="#9c8a53" d="M 290.5,375.5 C 291.833,376.167 291.833,376.167 290.5,375.5 Z"/></g>
<g><path style="opacity:1" fill="#cab269" d="M 293.5,377.5 C 292.833,376.167 292.833,376.167 293.5,377.5 Z"/></g>
<g><path style="opacity:1" fill="#9c8a53" d="M 293.5,377.5 C 294.833,378.167 294.833,378.167 293.5,377.5 Z"/></g>
<g><path style="opacity:1" fill="#cab269" d="M 295.5,378.5 C 296.833,379.167 296.833,379.167 295.5,378.5 Z"/></g>
<g><path style="opacity:1" fill="#897b4c" d="M 447.5,379.5 C 446.833,378.167 446.833,378.167 447.5,379.5 Z"/></g>
<g><path style="opacity:1" fill="#cab269" d="M 298.5,380.5 C 299.833,381.167 299.833,381.167 298.5,380.5 Z"/></g>
<g><path style="opacity:1" fill="#a18e57" d="M 447.5,380.5 C 446.341,382.25 444.674,383.25 442.5,383.5C 443.659,381.75 445.326,380.75 447.5,380.5 Z"/></g>
<g><path style="opacity:1" fill="#907f4f" d="M 442.5,383.5 C 442.103,384.525 441.437,384.692 440.5,384C 441.094,383.536 441.761,383.369 442.5,383.5 Z"/></g>
<g><path style="opacity:1" fill="#9d8b54" d="M 305.5,384.5 C 306.833,385.167 306.833,385.167 305.5,384.5 Z"/></g>
<g><path style="opacity:1" fill="#948451" d="M 438.5,384.5 C 439.833,385.167 439.833,385.167 438.5,384.5 Z"/></g>
<g><path style="opacity:1" fill="#9c8a53" d="M 307.5,385.5 C 308.833,386.167 308.833,386.167 307.5,385.5 Z"/></g>
<g><path style="opacity:1" fill="#948451" d="M 436.5,385.5 C 437.833,386.167 437.833,386.167 436.5,385.5 Z"/></g>
<g><path style="opacity:1" fill="#9d8b54" d="M 309.5,386.5 C 310.833,387.167 310.833,387.167 309.5,386.5 Z"/></g>
<g><path style="opacity:1" fill="#9d8b54" d="M 311.5,387.5 C 312.833,388.167 312.833,388.167 311.5,387.5 Z"/></g>
<g><path style="opacity:1" fill="#cab269" d="M 320.5,391.5 C 321.833,392.167 321.833,392.167 320.5,391.5 Z"/></g>
<g><path style="opacity:1" fill="#9d8b54" d="M 322.5,392.5 C 323.833,393.167 323.833,393.167 322.5,392.5 Z"/></g>
<g><path style="opacity:1" fill="#bba462" d="M 324.5,394.5 C 324.897,393.475 325.563,393.308 326.5,394C 325.906,394.464 325.239,394.631 324.5,394.5 Z"/></g>
<g><path style="opacity:1" fill="#af9a5d" d="M 433.5,390.5 C 433.918,391.222 434.584,391.722 435.5,392C 430.644,394.295 425.644,396.128 420.5,397.5C 420.167,396.167 419.833,396.167 419.5,397.5C 419.158,398.338 418.492,398.672 417.5,398.5C 416.833,397.167 416.167,397.167 415.5,398.5C 415.167,398.5 414.833,398.5 414.5,398.5C 413.127,398.657 411.793,398.49 410.5,398C 418.429,396.19 426.096,393.69 433.5,390.5 Z"/></g>
<g><path style="opacity:1" fill="#cab269" d="M 327.5,394.5 C 328.833,395.167 328.833,395.167 327.5,394.5 Z"/></g>
<g><path style="opacity:1" fill="#cab269" d="M 330.5,395.5 C 331.833,396.167 331.833,396.167 330.5,395.5 Z"/></g>
<g><path style="opacity:1" fill="#9e8c55" d="M 411.5,395.5 C 412.833,396.167 412.833,396.167 411.5,395.5 Z"/></g>
<g><path style="opacity:1" fill="#cab269" d="M 333.5,397.5 C 333.897,396.475 334.563,396.308 335.5,397C 334.906,397.464 334.239,397.631 333.5,397.5 Z"/></g>
<g><path style="opacity:1" fill="#cab269" d="M 337.5,397.5 C 338.833,398.167 338.833,398.167 337.5,397.5 Z"/></g>
<g><path style="opacity:1" fill="#9e8c55" d="M 400.5,397.5 C 401.833,398.167 401.833,398.167 400.5,397.5 Z"/></g>
<g><path style="opacity:1" fill="#cab269" d="M 341.5,398.5 C 342.833,399.167 342.833,399.167 341.5,398.5 Z"/></g>
<g><path style="opacity:1" fill="#9e8c55" d="M 392.5,399.5 C 393.601,398.402 394.934,398.235 396.5,399C 395.207,399.49 393.873,399.657 392.5,399.5 Z"/></g>
<g><path style="opacity:1" fill="#b8a261" d="M 372.5,400.5 C 376.311,399.355 380.311,399.188 384.5,400C 380.514,400.499 376.514,400.666 372.5,400.5 Z"/></g>
<g><path style="opacity:1" fill="#b9a262" d="M 405.5,400.5 C 403.801,400.66 402.134,400.494 400.5,400C 402.387,399.22 404.054,399.387 405.5,400.5 Z"/></g>
<g><path style="opacity:1" fill="#b59f60" d="M 393.5,401.5 C 395.288,400.378 397.288,400.211 399.5,401C 397.527,401.495 395.527,401.662 393.5,401.5 Z"/></g>
<g><path style="opacity:1" fill="#9a8753" d="M 367.5,402.5 C 367.897,401.475 368.563,401.308 369.5,402C 368.906,402.464 368.239,402.631 367.5,402.5 Z"/></g>
<g><path style="opacity:1" fill="#a79259" d="M 380.5,402.5 C 383.64,401.359 386.973,401.192 390.5,402C 387.183,402.498 383.85,402.665 380.5,402.5 Z"/></g>
</svg>
