<svg width="117" height="118" viewBox="0 0 117 118" fill="none" xmlns="http://www.w3.org/2000/svg">
<g clip-path="url(#clip0_26_2)">
<path fill-rule="evenodd" clip-rule="evenodd" d="M68.3117 0.556622C68.3117 0.804013 68.1884 0.927691 67.9414 0.927691C66.954 1.05137 66.954 1.17508 67.9414 1.29876C68.2039 1.63421 68.5742 1.75788 69.0522 1.66983C69.2992 1.66983 69.5457 1.66983 69.7927 1.66983C69.9193 1.98086 70.1659 2.10457 70.5332 2.0409C70.9035 2.0409 71.2737 2.0409 71.644 2.0409C71.644 2.28829 71.7673 2.41197 72.0142 2.41197C72.3845 2.41197 72.7547 2.41197 73.125 2.41197C73.125 2.65936 73.2483 2.78304 73.4952 2.78304C73.7422 2.78304 73.9888 2.78304 74.2357 2.78304C74.2357 3.03043 74.359 3.15411 74.606 3.15411C74.9762 3.15411 75.3465 3.15411 75.7167 3.15411C75.7167 3.4015 75.84 3.52518 76.087 3.52518C77.0745 3.4015 77.0745 3.27778 76.087 3.15411C76.087 2.90671 76.2103 2.78304 76.4573 2.78304C93.4556 8.37542 105.612 19.3839 112.927 35.8082C116.755 46.164 117.928 56.8014 116.445 67.7201C115.986 68.3562 115.739 69.0983 115.704 69.9466C115.704 70.0701 115.704 70.1941 115.704 70.3176C115.581 70.5651 115.457 70.8123 115.334 71.0598C115.334 71.4308 115.334 71.8019 115.334 72.173C115.087 72.173 114.964 72.2965 114.964 72.544C114.964 72.7915 114.964 73.0387 114.964 73.2862C114.84 73.5337 114.717 73.7808 114.593 74.0283C114.53 74.3964 114.653 74.6436 114.964 74.7705C114.964 75.1415 114.964 75.5126 114.964 75.8837C114.696 75.7286 114.511 75.4814 114.408 75.1415C113.678 76.7149 113.185 78.3227 112.927 79.9654C113.05 79.7179 113.174 79.4708 113.297 79.2233C113.445 79.3079 113.507 79.4318 113.483 79.5944C112.764 82.2698 111.653 84.7433 110.15 87.0157C110.091 85.6294 109.783 85.6294 109.225 87.0157C109.053 86.7953 108.991 86.5478 109.04 86.2736C114.402 75.3055 116.623 63.8024 115.704 51.7642C115.704 51.5167 115.704 51.2695 115.704 51.022C115.704 50.8985 115.704 50.7745 115.704 50.651C115.768 50.2829 115.644 50.0357 115.334 49.9088C115.334 49.5378 115.334 49.1667 115.334 48.7956C115.359 48.2542 115.235 47.7596 114.964 47.3113C114.84 46.8167 114.717 46.8167 114.593 47.3113C114.648 47.7017 114.587 48.0728 114.408 48.4245C114.335 47.7262 114.15 47.108 113.853 46.5692C113.899 48.2572 114.146 49.865 114.593 51.3931C114.593 51.6406 114.593 51.8877 114.593 52.1352C114.488 52.8458 114.611 53.464 114.964 53.9906C115.56 69.8185 111.055 83.7952 101.449 95.9214C96.8623 101.207 91.4936 105.413 85.3433 108.538C85.3433 108.414 85.3433 108.29 85.3433 108.167C90.9449 104.598 95.9433 100.269 100.339 95.1793C100.574 94.6353 100.882 94.1403 101.264 93.695C101.09 93.3376 100.843 93.3376 100.524 93.695C100.277 93.695 100.03 93.695 99.7832 93.695C109.987 80.181 113.937 65.1527 111.631 48.6101C107.463 27.7467 95.4912 13.5225 75.7167 5.93713C53.3772 -0.541632 34.1855 4.59163 18.1424 21.3365C13.4554 26.8959 9.81465 33.0805 7.21992 39.89C7.09663 38.4057 6.97296 38.4057 6.84967 39.89C6.51496 40.153 6.39166 40.5241 6.47941 41.0032C6.14471 41.2663 6.02141 41.6373 6.10916 42.1164C4.53373 46.6382 3.66956 51.3386 3.51739 56.217C3.16528 55.6905 3.04198 55.0723 3.14714 54.3617C3.87727 34.3354 13.1336 18.6889 30.9161 7.4214C42.6032 0.892699 55.0685 -1.39557 68.3117 0.556622ZM54.2421 40.6321C54.9396 40.7108 55.4332 41.0818 55.7231 41.7453C53.8407 44.9005 51.8662 47.9926 49.799 51.022C49.4725 50.5545 49.1022 50.1218 48.6883 49.7233C50.4973 46.6516 52.3486 43.6211 54.2421 40.6321ZM47.5775 43.9717C48.2069 44.1632 48.7005 44.5343 49.0585 45.0849C48.4291 46.0271 47.8737 47.0163 47.3924 48.0535C46.1202 46.5818 46.182 45.2211 47.5775 43.9717Z" fill="#C5AD67"/>
<path fill-rule="evenodd" clip-rule="evenodd" d="M68.3117 0.556633C68.679 0.492958 68.9256 0.616672 69.0522 0.927703C68.5587 1.05138 68.5587 1.17509 69.0522 1.29877C69.0522 1.42245 69.0522 1.54616 69.0522 1.66984C68.5742 1.7579 68.204 1.63422 67.9415 1.29877C67.9415 1.17509 67.9415 1.05138 67.9415 0.927703C68.1884 0.927703 68.3117 0.804025 68.3117 0.556633Z" fill="#9E8C57"/>
<path fill-rule="evenodd" clip-rule="evenodd" d="M69.7927 1.29876C70.16 1.23508 70.4066 1.3588 70.5332 1.66983C70.5332 1.79351 70.5332 1.91722 70.5332 2.0409C70.1659 2.10457 69.9194 1.98086 69.7927 1.66983C69.7927 1.54615 69.7927 1.42244 69.7927 1.29876Z" fill="#A18F58"/>
<path fill-rule="evenodd" clip-rule="evenodd" d="M69.0522 0.927673C70.0541 0.955541 71.0416 1.07922 72.0143 1.29874C72.0143 1.54613 71.891 1.66981 71.644 1.66981C71.2737 1.66981 70.9035 1.66981 70.5332 1.66981C70.4066 1.35878 70.16 1.23507 69.7927 1.29874C69.5458 1.29874 69.2992 1.29874 69.0522 1.29874C68.5587 1.17507 68.5587 1.05135 69.0522 0.927673Z" fill="#C8AF68"/>
<path fill-rule="evenodd" clip-rule="evenodd" d="M72.0142 1.29877C73.6008 1.58137 75.0818 2.07612 76.4573 2.78304C76.2103 2.78304 76.087 2.90672 76.087 3.15411C76.087 3.27779 76.087 3.4015 76.087 3.52518C75.8401 3.52518 75.7168 3.4015 75.7168 3.15411C75.3465 2.65937 74.9763 2.65937 74.606 3.15411C74.359 3.15411 74.2358 3.03044 74.2358 2.78304C73.9888 2.2883 73.7422 2.2883 73.4952 2.78304C73.2483 2.78304 73.125 2.65937 73.125 2.41197C72.7547 1.91723 72.3845 1.91723 72.0142 2.41197C71.7673 2.41197 71.644 2.2883 71.644 2.04091C71.644 1.91723 71.644 1.79351 71.644 1.66984C71.8909 1.66984 72.0142 1.54616 72.0142 1.29877Z" fill="#B29C5F"/>
<path fill-rule="evenodd" clip-rule="evenodd" d="M92.3782 11.6887C92.7484 11.8122 92.9954 12.0597 93.1187 12.4308C92.6251 12.4308 92.3782 12.1833 92.3782 11.6887Z" fill="#8C7C50"/>
<path fill-rule="evenodd" clip-rule="evenodd" d="M94.2294 13.173C94.723 13.4205 95.0932 13.7915 95.3402 14.2862C94.5997 14.2862 94.2294 13.9151 94.2294 13.173Z" fill="#8E7E51"/>
<path fill-rule="evenodd" clip-rule="evenodd" d="M102.005 21.3365C102.84 21.7306 103.272 22.3488 103.301 23.1918C102.633 22.7135 102.201 22.095 102.005 21.3365Z" fill="#AC985D"/>
<path fill-rule="evenodd" clip-rule="evenodd" d="M61.6472 23.1918C64.4385 23.1758 66.9066 24.0416 69.0522 25.7893C72.7599 24.2445 75.5368 25.2338 77.3829 28.7578C78.2593 31.9524 77.2718 34.4263 74.4209 36.1792C73.8011 42.9472 70.16 45.8537 63.4984 44.8994C62.1318 44.2722 62.0704 43.5917 63.3133 42.8585C69.3966 43.8114 72.3586 41.2139 72.1994 35.066C76.1463 33.2125 76.7017 30.677 73.8655 27.4591C72.192 26.8554 70.5877 27.0409 69.0522 28.0157C67.7086 27.2175 66.3509 26.4134 64.9794 25.6038C61.9337 24.8342 59.342 25.5763 57.2041 27.8302C52.2368 27.9497 50.0771 30.4852 50.7247 35.4371C49.8161 35.9985 49.1989 35.751 48.8734 34.695C48.4573 29.0473 51.1109 26.0168 56.8339 25.6038C58.2756 24.3866 59.8799 23.5825 61.6472 23.1918Z" fill="#C7AE68"/>
<path fill-rule="evenodd" clip-rule="evenodd" d="M105.337 25.7893C104.75 25.603 104.565 25.2319 104.782 24.6761C105.166 24.9522 105.351 25.3232 105.337 25.7893Z" fill="#9C8A57"/>
<path fill-rule="evenodd" clip-rule="evenodd" d="M105.337 25.7893C105.924 25.9756 106.109 26.3467 105.892 26.9025C105.508 26.6264 105.323 26.2554 105.337 25.7893Z" fill="#9F8C58"/>
<path fill-rule="evenodd" clip-rule="evenodd" d="M55.3528 38.0346C53.8333 36.8409 53.9566 35.9132 55.7231 35.2516C55.2229 34.463 55.4695 34.03 56.4636 33.9528C57.9265 34.9833 59.3456 36.0965 60.7215 37.2924C60.9029 37.7722 60.9648 38.2672 60.9066 38.7767C60.5364 38.7767 60.1661 38.7767 59.7959 38.7767C59.9381 39.5801 59.6911 40.1987 59.0554 40.6321C57.808 39.7474 56.5736 38.8817 55.3528 38.0346Z" fill="#C9B069"/>
<path fill-rule="evenodd" clip-rule="evenodd" d="M6.47943 36.9214C6.65974 36.5603 6.84487 36.1893 7.03481 35.8082C7.30324 36.423 7.11812 36.7941 6.47943 36.9214Z" fill="#9E8B55"/>
<path fill-rule="evenodd" clip-rule="evenodd" d="M55.3528 38.0346C56.0789 38.9485 56.8813 39.8146 57.7595 40.6321C57.8213 40.9412 57.8828 41.2506 57.9446 41.5597C56.7035 43.8626 55.5313 46.151 54.4272 48.4245C54.6823 48.7425 54.9907 48.9897 55.3528 49.1667C57.1619 48.7492 58.7662 47.9455 60.1661 46.7547C62.7879 46.3113 65.1327 46.9295 67.201 48.6101C70.6417 51.6101 72.6781 55.3828 73.3101 59.9277C74.7911 60.9173 76.0252 62.1541 77.0127 63.6384C77.2859 65.0339 77.1626 66.3947 76.6424 67.7201C75.3895 70.2111 73.847 72.4995 72.0142 74.5849C69.284 77.3019 66.5686 77.3019 63.8687 74.5849C60.4768 74.4001 57.2682 73.5344 54.2421 71.9874C53.3031 71.8616 52.3775 71.6761 51.4652 71.4308C49.5836 71.9993 47.6705 72.1848 45.7263 71.9874C43.6806 70.9043 43.0019 69.2345 43.6899 66.978C44.5459 65.464 45.8418 64.5363 47.5775 64.195C49.5521 64.0714 51.527 63.9475 53.5016 63.8239C50.5984 61.9363 47.7597 59.9574 44.9858 57.8868C42.1178 55.6645 40.8219 52.7579 41.0981 49.1667C41.8742 47.8178 43.0467 47.0757 44.6155 46.9402C44.1445 44.201 45.2553 42.5932 47.9478 42.1163C48.9145 42.1371 49.7169 42.5082 50.3544 43.2296C51.4463 41.2117 52.7422 39.3563 54.2421 37.6635C54.5816 37.8962 54.9519 38.0201 55.3528 38.0346ZM54.2421 40.6321C52.3486 43.621 50.4973 46.6516 48.6883 49.7233C49.1022 50.1218 49.4725 50.5545 49.7991 51.022C51.8662 47.9926 53.8407 44.9005 55.7231 41.7453C55.4332 41.0818 54.9396 40.7107 54.2421 40.6321ZM47.5775 43.9717C46.182 45.2211 46.1202 46.5818 47.3924 48.0535C47.8737 47.0163 48.4291 46.027 49.0585 45.0849C48.7005 44.5342 48.207 44.1632 47.5775 43.9717ZM60.9066 48.4245C63.8305 48.6219 66.2372 49.8591 68.1266 52.1352C70.9538 56.1814 71.9409 60.6342 71.0886 65.4937C71.5822 65.9883 72.0761 65.9883 72.5696 65.4937C72.9173 64.5211 73.2257 63.5315 73.4953 62.5251C74.8545 63.5578 75.2865 64.9185 74.7911 66.6069C73.7137 69.42 72.0476 71.8319 69.7927 73.8428C68.3473 75.0729 66.9899 75.0109 65.7199 73.6572C67.1006 72.7518 68.2728 71.6386 69.2373 70.3176C69.5535 69.5358 69.307 69.0408 68.4968 68.8333C67.4661 69.4938 66.5404 70.2979 65.7199 71.2453C64.6281 71.8987 63.4555 72.3318 62.2025 72.544C59.2324 71.8405 56.3322 70.9128 53.5016 69.761C51.0353 69.8055 48.5672 69.8055 46.0965 69.761C45.1561 68.2912 45.5263 67.178 47.2073 66.4214C48.408 66.0436 49.6421 65.8581 50.9098 65.8648C52.5204 66.0336 54.1251 66.0952 55.7231 66.0503C56.4303 65.8989 56.8005 65.4659 56.8339 64.7516C56.3166 63.6732 55.5761 62.7456 54.6123 61.9685C50.8546 59.9299 47.4609 57.3944 44.4304 54.3616C43.8213 53.2031 43.2659 52.0283 42.7642 50.8365C43.2071 49.1299 44.1942 48.6353 45.7263 49.3522C48.1944 53.185 51.5267 55.968 55.7231 57.7012C56.2452 57.5647 56.6154 57.2556 56.8339 56.7736C54.9826 55.4129 53.1313 54.0525 51.2801 52.6918C51.7888 51.7333 52.3442 50.8057 52.9462 49.9088C54.7238 51.3185 56.3899 52.8647 57.9446 54.5472C58.4234 54.729 58.9173 54.791 59.4256 54.7327C59.1109 53.2299 58.3704 51.9311 57.2041 50.8365C57.3892 50.6509 57.5744 50.4654 57.7595 50.2799C59.5463 50.8918 61.2125 51.7575 62.7579 52.8774C63.2515 52.6298 63.6217 52.2588 63.8687 51.7641C62.8212 50.7775 61.7105 49.8498 60.5364 48.9811C60.7423 48.839 60.8655 48.6535 60.9066 48.4245Z" fill="#C8AF68"/>
<path fill-rule="evenodd" clip-rule="evenodd" d="M6.84968 39.89C6.97297 39.89 7.09664 39.89 7.21993 39.89C6.58606 42.9253 5.84555 45.8939 4.99841 48.7956C5.25019 46.5495 5.62044 44.3231 6.10917 42.1164C6.44388 41.8533 6.56718 41.4822 6.47943 41.0032C6.81413 40.7401 6.93743 40.369 6.84968 39.89Z" fill="#B49E5F"/>
<path fill-rule="evenodd" clip-rule="evenodd" d="M113.853 46.5692C113.199 45.1817 112.891 43.6975 112.927 42.1163C113.472 43.5553 113.78 45.0396 113.853 46.5692Z" fill="#968454"/>
<path fill-rule="evenodd" clip-rule="evenodd" d="M113.853 43.2296C114.529 43.955 114.714 44.8207 114.408 45.827C114.163 44.9688 113.978 44.1031 113.853 43.2296Z" fill="#A08E59"/>
<path fill-rule="evenodd" clip-rule="evenodd" d="M4.99842 48.7956C5.0584 49.5478 4.99657 50.2899 4.8133 51.022C4.52117 50.2012 4.583 49.4591 4.99842 48.7956Z" fill="#B9A261"/>
<path fill-rule="evenodd" clip-rule="evenodd" d="M113.853 46.5692C114.15 47.1079 114.335 47.7261 114.408 48.4245C114.587 48.0727 114.649 47.7017 114.593 47.3113C114.717 47.3113 114.84 47.3113 114.964 47.3113C115.235 47.7595 115.359 48.2542 115.334 48.7956C114.864 49.4475 114.864 49.8186 115.334 49.9088C115.644 50.0357 115.768 50.2828 115.704 50.6509C115.457 50.6509 115.334 50.7745 115.334 51.022C115.087 51.022 114.964 51.1455 114.964 51.3931C114.84 51.3931 114.717 51.3931 114.593 51.3931C114.146 49.865 113.899 48.2571 113.853 46.5692Z" fill="#A08D58"/>
<path fill-rule="evenodd" clip-rule="evenodd" d="M115.334 51.022C115.457 51.022 115.581 51.022 115.704 51.022C115.704 51.2695 115.704 51.5167 115.704 51.7642C115.457 51.8877 115.211 52.0117 114.964 52.1352C114.964 51.8877 114.964 51.6406 114.964 51.3931C115.211 51.3931 115.334 51.2695 115.334 51.022Z" fill="#908052"/>
<path fill-rule="evenodd" clip-rule="evenodd" d="M4.25788 51.3931C4.67923 52.4335 4.74106 53.5468 4.44301 54.7327C4.25863 53.6262 4.19679 52.513 4.25788 51.3931Z" fill="#B49E5F"/>
<path fill-rule="evenodd" clip-rule="evenodd" d="M114.593 52.1352C114.717 52.1352 114.84 52.1352 114.964 52.1352C115.175 52.6818 115.175 53.3004 114.964 53.9905C114.612 53.464 114.488 52.8458 114.593 52.1352Z" fill="#9F8C58"/>
<path fill-rule="evenodd" clip-rule="evenodd" d="M3.14713 54.3616C3.04198 55.0722 3.16527 55.6904 3.51738 56.217C3.35706 57.2062 3.17193 58.1955 2.962 59.1855C2.66061 57.5083 2.72245 55.9001 3.14713 54.3616Z" fill="#9A8853"/>
<path fill-rule="evenodd" clip-rule="evenodd" d="M116.445 67.7201C116.61 68.6515 116.363 69.3936 115.704 69.9465C115.739 69.0982 115.986 68.3561 116.445 67.7201Z" fill="#948453"/>
<path fill-rule="evenodd" clip-rule="evenodd" d="M115.704 70.3176C116.101 70.5963 116.163 70.9674 115.889 71.4308C115.747 71.2245 115.562 71.101 115.334 71.0598C115.457 70.8123 115.581 70.5651 115.704 70.3176Z" fill="#8D7D50"/>
<path fill-rule="evenodd" clip-rule="evenodd" d="M114.964 72.544C114.964 72.2965 115.087 72.173 115.334 72.173C115.827 72.544 115.827 72.9151 115.334 73.2862C115.398 72.9181 115.274 72.6709 114.964 72.544Z" fill="#9B8956"/>
<path fill-rule="evenodd" clip-rule="evenodd" d="M114.964 73.2861C115.087 73.2861 115.211 73.2861 115.334 73.2861C115.433 73.8795 115.309 74.3741 114.964 74.7704C115.027 74.4023 114.904 74.1552 114.593 74.0283C114.717 73.7808 114.84 73.5336 114.964 73.2861Z" fill="#9F8D58"/>
<path fill-rule="evenodd" clip-rule="evenodd" d="M114.964 75.8836C114.535 77.1764 114.042 78.4132 113.483 79.5943C113.507 79.4318 113.445 79.3078 113.297 79.2232C113.174 79.4707 113.051 79.7179 112.927 79.9654C113.185 78.3227 113.678 76.7148 114.408 75.1415C114.511 75.4814 114.696 75.7285 114.964 75.8836Z" fill="#B49E60"/>
<path fill-rule="evenodd" clip-rule="evenodd" d="M26.1028 84.0472C26.7371 84.4683 26.984 85.0869 26.8433 85.9025C25.9795 85.9025 25.1154 85.9025 24.2516 85.9025C24.2516 86.6447 24.2516 87.3868 24.2516 88.1289C25.0021 88.0688 25.7426 88.1308 26.4731 88.3145C26.9666 88.6855 26.9666 89.0566 26.4731 89.4277C25.7426 89.6114 25.0021 89.6733 24.2516 89.6132C24.2516 90.6029 24.2516 91.5921 24.2516 92.5818C25.0021 92.5217 25.7426 92.5836 26.4731 92.7673C26.9666 93.2619 26.9666 93.7569 26.4731 94.2516C25.1435 94.5444 23.8476 94.4824 22.5854 94.066C22.4003 90.8526 22.3388 87.6365 22.4003 84.4182C23.7117 84.5344 24.9458 84.4105 26.1028 84.0472Z" fill="#C8AF68"/>
<path fill-rule="evenodd" clip-rule="evenodd" d="M28.3243 84.4182C28.8179 84.4182 29.3118 84.4182 29.8054 84.4182C29.7439 87.1423 29.8054 89.8633 29.9905 92.5818C30.7462 92.9243 31.5485 93.0478 32.3971 92.9528C32.3971 93.4475 32.3971 93.9425 32.3971 94.4371C31.0394 94.4371 29.6821 94.4371 28.3243 94.4371C28.3243 91.0975 28.3243 87.7579 28.3243 84.4182Z" fill="#CAB169"/>
<path fill-rule="evenodd" clip-rule="evenodd" d="M37.5807 84.0472C38.2149 84.4683 38.4619 85.0869 38.3212 85.9025C37.4574 85.9025 36.5932 85.9025 35.7294 85.9025C35.7294 86.6447 35.7294 87.3868 35.7294 88.1289C36.4699 88.1289 37.2104 88.1289 37.9509 88.1289C37.9509 88.6236 37.9509 89.1186 37.9509 89.6132C37.2104 89.6132 36.4699 89.6132 35.7294 89.6132C35.7909 91.1027 35.729 92.587 35.5443 94.066C35.0507 94.5607 34.5568 94.5607 34.0633 94.066C33.8781 90.8526 33.8167 87.6365 33.8781 84.4182C35.1896 84.5344 36.4236 84.4105 37.5807 84.0472Z" fill="#C8AF68"/>
<path fill-rule="evenodd" clip-rule="evenodd" d="M39.8022 84.4182C42.2174 83.78 43.6984 84.6457 44.2452 87.0157C43.922 87.7256 43.5518 88.4061 43.1345 89.0566C45.1479 91.0329 44.901 92.7647 42.394 94.2516C41.4317 94.5369 40.5061 94.4749 39.6171 94.066C39.3301 90.8322 39.392 87.6165 39.8022 84.4182ZM41.2832 85.5314C42.6735 86.4135 42.735 87.4031 41.4684 88.5C41.2843 87.5181 41.2225 86.5285 41.2832 85.5314ZM41.2832 89.9843C42.6306 90.2114 43.0008 90.9535 42.394 92.2107C42.0885 92.5394 41.7183 92.663 41.2832 92.5817C41.2832 91.716 41.2832 90.85 41.2832 89.9843Z" fill="#C4AC66"/>
<path fill-rule="evenodd" clip-rule="evenodd" d="M47.9478 84.4182C48.565 84.4182 49.1818 84.4182 49.799 84.4182C50.4229 87.7308 51.1634 91.0084 52.0206 94.2516C51.4156 94.4349 50.7984 94.4965 50.1693 94.4371C49.9564 92.9629 49.1541 92.5918 47.7626 93.3239C47.5838 93.6757 47.5224 94.0467 47.5775 94.4371C46.9485 94.4965 46.3313 94.4349 45.7263 94.2516C46.5834 91.0084 47.3239 87.7308 47.9478 84.4182ZM48.6883 88.5C49.2585 89.3676 49.5051 90.3572 49.4288 91.4686C49.0585 91.4686 48.6883 91.4686 48.318 91.4686C48.4413 90.4789 48.565 89.4896 48.6883 88.5Z" fill="#C9B069"/>
<path fill-rule="evenodd" clip-rule="evenodd" d="M53.5016 84.4183C57.0745 83.6268 58.6174 84.9875 58.1298 88.5C57.8391 89.1628 57.4074 89.7194 56.8339 90.1698C57.7092 91.4905 58.3264 92.9128 58.6851 94.4371C58.0231 94.5429 57.4059 94.4193 56.8339 94.0661C56.2785 92.9529 55.7231 91.8396 55.1677 90.7264C54.9834 91.9573 54.9215 93.194 54.9826 94.4371C54.3654 94.4371 53.7486 94.4371 53.1313 94.4371C53.415 91.1053 53.5383 87.7657 53.5016 84.4183ZM54.9826 85.9025C57.2711 86.6792 57.3944 87.7924 55.3529 89.2422C54.9885 88.1557 54.8652 87.0425 54.9826 85.9025Z" fill="#C7AF68"/>
<path fill-rule="evenodd" clip-rule="evenodd" d="M63.8687 84.4182C66.2868 83.7796 67.7678 84.6453 68.3117 87.0157C68.1828 87.831 67.8126 88.5111 67.2009 89.0566C69.1351 90.6129 69.1351 92.2211 67.2009 93.8805C66.1453 94.3588 65.0346 94.5443 63.8687 94.4371C63.8687 91.0975 63.8687 87.7579 63.8687 84.4182ZM65.3497 85.9025C66.1724 85.9244 66.5426 86.3571 66.4604 87.2012C66.3608 87.7976 66.052 88.2306 65.5348 88.5C65.3508 87.6428 65.2893 86.7771 65.3497 85.9025ZM65.3497 89.9843C66.697 90.2114 67.0673 90.9535 66.4604 92.2107C66.155 92.5394 65.7847 92.663 65.3497 92.5817C65.3497 91.716 65.3497 90.85 65.3497 89.9843Z" fill="#C7AE68"/>
<path fill-rule="evenodd" clip-rule="evenodd" d="M69.7927 84.4182C70.4099 84.4182 71.0268 84.4182 71.644 84.4182C71.5825 87.1423 71.644 89.8633 71.8291 92.5818C72.5848 92.9243 73.3871 93.0478 74.2358 92.9528C74.2358 93.4475 74.2358 93.9425 74.2358 94.4371C72.878 94.4371 71.5207 94.4371 70.163 94.4371C70.1626 91.0919 70.0393 87.7523 69.7927 84.4182Z" fill="#C8AF68"/>
<path fill-rule="evenodd" clip-rule="evenodd" d="M77.5681 84.4182C78.2964 84.3295 78.9754 84.4531 79.6045 84.7893C80.3079 88.0054 80.9866 91.2214 81.6408 94.4371C80.3635 94.7132 79.7466 94.2182 79.7896 92.9528C79.0491 92.9528 78.3086 92.9528 77.5681 92.9528C77.611 94.2182 76.9942 94.7132 75.7168 94.4371C76.3818 91.1056 76.9986 87.766 77.5681 84.4182ZM78.3086 88.8711C78.868 89.4121 79.2383 90.0922 79.4193 90.9119C78.971 91.4975 78.477 91.5595 77.9383 91.0975C78.2523 90.3891 78.376 89.647 78.3086 88.8711Z" fill="#C8B068"/>
<path fill-rule="evenodd" clip-rule="evenodd" d="M87.1946 84.0472C88.0311 84.3604 88.4013 84.9789 88.3054 85.9025C85.848 85.7044 84.614 86.8792 84.6029 89.4277C84.614 91.9762 85.848 93.151 88.3054 92.9528C88.3054 93.4475 88.3054 93.9425 88.3054 94.4371C85.9147 94.6319 84.2485 93.6423 83.307 91.4686C82.3988 87.7185 83.6946 85.245 87.1946 84.0472Z" fill="#C8AF68"/>
<path fill-rule="evenodd" clip-rule="evenodd" d="M89.7864 84.4182C90.4036 84.4182 91.0204 84.4182 91.6376 84.4182C91.5766 85.6613 91.6384 86.8981 91.8228 88.1289C92.5485 86.9842 93.2271 85.809 93.8592 84.6038C94.5104 84.3077 95.1276 84.3696 95.7104 84.7893C94.8255 86.13 94.085 87.5523 93.4889 89.0566C94.3971 90.6915 95.2613 92.3614 96.0807 94.066C95.4635 94.5607 94.8466 94.5607 94.2294 94.066C93.4271 92.7053 92.6251 91.345 91.8228 89.9843C91.638 91.4634 91.5762 92.9476 91.6376 94.4371C91.0204 94.4371 90.4036 94.4371 89.7864 94.4371C89.7864 91.0975 89.7864 87.7579 89.7864 84.4182Z" fill="#C8B069"/>
<path fill-rule="evenodd" clip-rule="evenodd" d="M9.07123 86.6447C9.56478 86.8922 9.56478 86.8922 9.07123 86.6447V86.6447Z" fill="#9C8A53"/>
<path fill-rule="evenodd" clip-rule="evenodd" d="M10.1819 88.5C10.6755 88.7475 10.6755 88.7475 10.1819 88.5V88.5Z" fill="#CAB269"/>
<path fill-rule="evenodd" clip-rule="evenodd" d="M10.9225 89.6132C10.6755 89.1186 10.6755 89.1186 10.9225 89.6132V89.6132Z" fill="#CAB269"/>
<path fill-rule="evenodd" clip-rule="evenodd" d="M10.9225 89.6132C11.416 89.8607 11.416 89.8607 10.9225 89.6132V89.6132Z" fill="#CAB269"/>
<path fill-rule="evenodd" clip-rule="evenodd" d="M11.663 90.7264C11.416 90.2318 11.416 90.2318 11.663 90.7264V90.7264Z" fill="#CAB269"/>
<path fill-rule="evenodd" clip-rule="evenodd" d="M11.663 90.7264C12.1565 90.9739 12.1565 90.9739 11.663 90.7264V90.7264Z" fill="#CAB269"/>
<path fill-rule="evenodd" clip-rule="evenodd" d="M12.4035 91.8396C12.1565 91.345 12.1565 91.345 12.4035 91.8396V91.8396Z" fill="#CAB269"/>
<path fill-rule="evenodd" clip-rule="evenodd" d="M12.4035 91.8396C12.8971 92.0871 12.8971 92.0871 12.4035 91.8396V91.8396Z" fill="#CAB269"/>
<path fill-rule="evenodd" clip-rule="evenodd" d="M13.144 92.9528C12.897 92.4582 12.897 92.4582 13.144 92.9528V92.9528Z" fill="#CAB269"/>
<path fill-rule="evenodd" clip-rule="evenodd" d="M13.144 92.9528C13.3909 92.9528 13.5142 93.0764 13.5142 93.3239C13.3909 93.2003 13.2673 93.0764 13.144 92.9528Z" fill="#CAB269"/>
<path fill-rule="evenodd" clip-rule="evenodd" d="M13.5142 93.3239C14.0078 93.5714 14.0078 93.5714 13.5142 93.3239V93.3239Z" fill="#9C8A53"/>
<path fill-rule="evenodd" clip-rule="evenodd" d="M14.2547 94.4371C14.0078 93.9425 14.0078 93.9425 14.2547 94.4371V94.4371Z" fill="#CAB269"/>
<path fill-rule="evenodd" clip-rule="evenodd" d="M99.7832 93.695C100.03 93.695 100.277 93.695 100.524 93.695C99.6351 94.9577 98.5244 95.9474 97.1915 96.6635C98.066 95.6646 98.9302 94.675 99.7832 93.695Z" fill="#B19C5E"/>
<path fill-rule="evenodd" clip-rule="evenodd" d="M14.2548 94.4371C14.5017 94.4371 14.625 94.5607 14.625 94.8082C14.5017 94.6846 14.3781 94.5607 14.2548 94.4371Z" fill="#CAB269"/>
<path fill-rule="evenodd" clip-rule="evenodd" d="M14.625 94.8082C14.872 94.8082 14.9953 94.9317 14.9953 95.1792C14.872 95.0557 14.7483 94.9317 14.625 94.8082Z" fill="#CAB269"/>
<path fill-rule="evenodd" clip-rule="evenodd" d="M14.9952 95.1793C15.4888 95.4268 15.4888 95.4268 14.9952 95.1793V95.1793Z" fill="#CAB269"/>
<path fill-rule="evenodd" clip-rule="evenodd" d="M15.7358 96.2925C15.4888 95.7978 15.4888 95.7978 15.7358 96.2925V96.2925Z" fill="#CAB269"/>
<path fill-rule="evenodd" clip-rule="evenodd" d="M15.7358 96.2924C15.9827 96.2924 16.106 96.416 16.106 96.6635C15.9827 96.54 15.8591 96.416 15.7358 96.2924Z" fill="#CAB269"/>
<path fill-rule="evenodd" clip-rule="evenodd" d="M16.106 96.6635C16.353 96.6635 16.4763 96.7871 16.4763 97.0346C16.353 96.911 16.2293 96.7871 16.106 96.6635Z" fill="#CAB269"/>
<path fill-rule="evenodd" clip-rule="evenodd" d="M97.1914 96.6635C96.9445 96.911 96.9445 96.911 97.1914 96.6635V96.6635Z" fill="#AA965B"/>
<path fill-rule="evenodd" clip-rule="evenodd" d="M16.4763 97.0346C16.9698 97.2821 16.9698 97.2821 16.4763 97.0346V97.0346Z" fill="#CAB269"/>
<path fill-rule="evenodd" clip-rule="evenodd" d="M96.8212 97.0346C96.5742 97.2821 96.5742 97.2821 96.8212 97.0346V97.0346Z" fill="#A08E57"/>
<path fill-rule="evenodd" clip-rule="evenodd" d="M96.451 97.4057C96.204 97.6532 96.204 97.6532 96.451 97.4057V97.4057Z" fill="#8A7C4D"/>
<path fill-rule="evenodd" clip-rule="evenodd" d="M93.4889 99.261C93.9824 99.5085 93.9824 99.5085 93.4889 99.261V99.261Z" fill="#9F8D56"/>
<path fill-rule="evenodd" clip-rule="evenodd" d="M19.068 100.003C18.8211 99.5085 18.8211 99.5085 19.068 100.003V100.003Z" fill="#9C8A53"/>
<path fill-rule="evenodd" clip-rule="evenodd" d="M19.0681 100.003C19.315 100.003 19.4383 100.127 19.4383 100.374C19.315 100.251 19.1913 100.127 19.0681 100.003Z" fill="#9C8A53"/>
<path fill-rule="evenodd" clip-rule="evenodd" d="M19.4383 100.374C19.6853 100.374 19.8085 100.498 19.8085 100.745C19.6853 100.622 19.5616 100.498 19.4383 100.374Z" fill="#9C8A53"/>
<path fill-rule="evenodd" clip-rule="evenodd" d="M19.8085 100.745C20.3021 100.993 20.3021 100.993 19.8085 100.745V100.745Z" fill="#9C8A53"/>
<path fill-rule="evenodd" clip-rule="evenodd" d="M22.0301 102.601C21.7831 102.106 21.7831 102.106 22.0301 102.601V102.601Z" fill="#CAB269"/>
<path fill-rule="evenodd" clip-rule="evenodd" d="M22.0301 102.601C22.277 102.601 22.4003 102.724 22.4003 102.972C22.277 102.848 22.1534 102.724 22.0301 102.601Z" fill="#CAB269"/>
<path fill-rule="evenodd" clip-rule="evenodd" d="M22.4003 102.972C22.6473 102.972 22.7706 103.095 22.7706 103.343C22.6473 103.219 22.5236 103.095 22.4003 102.972Z" fill="#CAB269"/>
<path fill-rule="evenodd" clip-rule="evenodd" d="M22.7706 103.343C23.2641 103.59 23.2641 103.59 22.7706 103.343V103.343Z" fill="#CAB269"/>
<path fill-rule="evenodd" clip-rule="evenodd" d="M23.8813 104.085C23.6344 103.59 23.6344 103.59 23.8813 104.085V104.085Z" fill="#9C8A53"/>
<path fill-rule="evenodd" clip-rule="evenodd" d="M23.8813 104.085C24.1283 104.085 24.2516 104.208 24.2516 104.456C24.1283 104.332 24.0046 104.208 23.8813 104.085Z" fill="#CAB269"/>
<path fill-rule="evenodd" clip-rule="evenodd" d="M24.2516 104.456C24.4985 104.456 24.6218 104.58 24.6218 104.827C24.4985 104.703 24.3749 104.58 24.2516 104.456Z" fill="#CAB269"/>
<path fill-rule="evenodd" clip-rule="evenodd" d="M24.6218 104.827C25.1154 105.075 25.1154 105.075 24.6218 104.827V104.827Z" fill="#9C8A53"/>
<path fill-rule="evenodd" clip-rule="evenodd" d="M26.1028 105.94C25.8559 105.446 25.8559 105.446 26.1028 105.94V105.94Z" fill="#CAB269"/>
<path fill-rule="evenodd" clip-rule="evenodd" d="M110.15 87.0157C102.876 100.672 91.8913 110.011 77.1978 115.031C71.4182 116.945 65.4941 117.811 59.4257 117.629C62.9782 117.352 66.4342 116.796 69.7927 115.959C71.0075 115.989 72.1183 115.741 73.125 115.217C73.2483 115.217 73.372 115.217 73.4953 115.217C73.7422 115.217 73.9888 115.217 74.2358 115.217C74.6031 115.281 74.8497 115.157 74.9763 114.846C75.0996 114.846 75.2233 114.846 75.3465 114.846C77.2511 114.337 79.1024 113.657 80.9003 112.805C80.5612 112.702 80.3146 112.516 80.1598 112.248C92.7322 106.825 102.359 98.1663 109.04 86.2736C108.991 86.5478 109.053 86.7953 109.225 87.0157C109.783 85.6294 110.091 85.6294 110.15 87.0157ZM97.1915 102.601C96.9094 103.254 96.4154 103.626 95.7105 103.714C95.9926 103.06 96.4865 102.689 97.1915 102.601ZM102.745 96.6635C102.772 97.2301 102.525 97.6012 102.005 97.7767C101.978 97.2101 102.225 96.839 102.745 96.6635ZM105.707 92.9528C105.734 93.5194 105.487 93.8905 104.967 94.066C104.94 93.4994 105.187 93.1283 105.707 92.9528ZM93.489 105.569C93.3138 106.091 92.9436 106.338 92.3782 106.311C92.5533 105.79 92.9236 105.542 93.489 105.569ZM92.0079 106.682C91.8328 107.204 91.4626 107.452 90.8972 107.425C91.0723 106.903 91.4426 106.655 92.0079 106.682Z" fill="#BCA563"/>
<path fill-rule="evenodd" clip-rule="evenodd" d="M26.1028 105.94C26.5964 106.188 26.5964 106.188 26.1028 105.94V105.94Z" fill="#9C8A53"/>
<path fill-rule="evenodd" clip-rule="evenodd" d="M27.2136 106.682C26.9666 106.188 26.9666 106.188 27.2136 106.682V106.682Z" fill="#9C8A53"/>
<path fill-rule="evenodd" clip-rule="evenodd" d="M27.2136 106.682C27.7072 106.93 27.7072 106.93 27.2136 106.682V106.682Z" fill="#9C8A53"/>
<path fill-rule="evenodd" clip-rule="evenodd" d="M28.3244 107.425C28.0774 106.93 28.0774 106.93 28.3244 107.425V107.425Z" fill="#CAB269"/>
<path fill-rule="evenodd" clip-rule="evenodd" d="M28.3243 107.425C28.8179 107.672 28.8179 107.672 28.3243 107.425V107.425Z" fill="#9C8A53"/>
<path fill-rule="evenodd" clip-rule="evenodd" d="M29.0649 107.796C29.5584 108.043 29.5584 108.043 29.0649 107.796V107.796Z" fill="#CAB269"/>
<path fill-rule="evenodd" clip-rule="evenodd" d="M85.3434 108.167C85.0964 107.672 85.0964 107.672 85.3434 108.167V108.167Z" fill="#897B4C"/>
<path fill-rule="evenodd" clip-rule="evenodd" d="M30.1757 108.538C30.6692 108.785 30.6692 108.785 30.1757 108.538V108.538Z" fill="#CAB269"/>
<path fill-rule="evenodd" clip-rule="evenodd" d="M85.3433 108.538C84.9142 109.187 84.297 109.558 83.4921 109.651C83.9212 109.002 84.5384 108.63 85.3433 108.538Z" fill="#A18E57"/>
<path fill-rule="evenodd" clip-rule="evenodd" d="M83.4921 109.651C83.3451 110.031 83.0985 110.093 82.7516 109.836C82.9715 109.664 83.2185 109.602 83.4921 109.651Z" fill="#907F4F"/>
<path fill-rule="evenodd" clip-rule="evenodd" d="M32.7674 110.022C33.2609 110.27 33.2609 110.27 32.7674 110.022V110.022Z" fill="#9D8B54"/>
<path fill-rule="evenodd" clip-rule="evenodd" d="M82.0111 110.022C82.5047 110.27 82.5047 110.27 82.0111 110.022V110.022Z" fill="#948451"/>
<path fill-rule="evenodd" clip-rule="evenodd" d="M33.5079 110.393C34.0015 110.641 34.0015 110.641 33.5079 110.393V110.393Z" fill="#9C8A53"/>
<path fill-rule="evenodd" clip-rule="evenodd" d="M81.2706 110.393C81.7641 110.641 81.7641 110.641 81.2706 110.393V110.393Z" fill="#948451"/>
<path fill-rule="evenodd" clip-rule="evenodd" d="M34.2484 110.764C34.742 111.012 34.742 111.012 34.2484 110.764V110.764Z" fill="#9D8B54"/>
<path fill-rule="evenodd" clip-rule="evenodd" d="M34.989 111.135C35.4825 111.383 35.4825 111.383 34.989 111.135V111.135Z" fill="#9D8B54"/>
<path fill-rule="evenodd" clip-rule="evenodd" d="M38.3212 112.62C38.8148 112.867 38.8148 112.867 38.3212 112.62V112.62Z" fill="#CAB269"/>
<path fill-rule="evenodd" clip-rule="evenodd" d="M39.0617 112.991C39.5553 113.238 39.5553 113.238 39.0617 112.991V112.991Z" fill="#9D8B54"/>
<path fill-rule="evenodd" clip-rule="evenodd" d="M39.8022 113.733C39.9492 113.352 40.1958 113.29 40.5428 113.547C40.3228 113.719 40.0759 113.781 39.8022 113.733Z" fill="#BBA462"/>
<path fill-rule="evenodd" clip-rule="evenodd" d="M80.1598 112.248C80.3146 112.516 80.5612 112.702 80.9003 112.805C79.1024 113.657 77.2511 114.337 75.3465 114.846C75.2232 114.351 75.0996 114.351 74.9763 114.846C74.8496 115.157 74.603 115.281 74.2358 115.217C73.9888 114.722 73.7422 114.722 73.4952 115.217C73.372 115.217 73.2483 115.217 73.125 115.217C72.6166 115.275 72.1227 115.213 71.644 115.031C74.5797 114.36 77.4185 113.432 80.1598 112.248Z" fill="#AF9A5D"/>
<path fill-rule="evenodd" clip-rule="evenodd" d="M40.913 113.733C41.4065 113.98 41.4065 113.98 40.913 113.733V113.733Z" fill="#CAB269"/>
<path fill-rule="evenodd" clip-rule="evenodd" d="M42.0237 114.104C42.5173 114.351 42.5173 114.351 42.0237 114.104V114.104Z" fill="#CAB269"/>
<path fill-rule="evenodd" clip-rule="evenodd" d="M72.0142 114.104C72.5078 114.351 72.5078 114.351 72.0142 114.104V114.104Z" fill="#9E8C55"/>
<path fill-rule="evenodd" clip-rule="evenodd" d="M43.1345 114.846C43.2815 114.466 43.5281 114.404 43.875 114.66C43.6551 114.833 43.4081 114.895 43.1345 114.846Z" fill="#CAB269"/>
<path fill-rule="evenodd" clip-rule="evenodd" d="M44.6155 114.846C45.109 115.093 45.109 115.093 44.6155 114.846V114.846Z" fill="#CAB269"/>
<path fill-rule="evenodd" clip-rule="evenodd" d="M67.9415 114.846C68.435 115.093 68.435 115.093 67.9415 114.846V114.846Z" fill="#9E8C55"/>
<path fill-rule="evenodd" clip-rule="evenodd" d="M46.0965 115.217C46.59 115.464 46.59 115.464 46.0965 115.217V115.217Z" fill="#CAB269"/>
<path fill-rule="evenodd" clip-rule="evenodd" d="M64.9794 115.588C65.3871 115.181 65.8806 115.119 66.4604 115.403C65.9817 115.584 65.4878 115.646 64.9794 115.588Z" fill="#9E8C55"/>
<path fill-rule="evenodd" clip-rule="evenodd" d="M57.5743 115.959C58.9854 115.534 60.4664 115.472 62.0174 115.774C60.5415 115.959 59.0605 116.021 57.5743 115.959Z" fill="#B8A261"/>
<path fill-rule="evenodd" clip-rule="evenodd" d="M69.7927 115.959C69.1637 116.019 68.5465 115.957 67.9415 115.774C68.6401 115.484 69.2573 115.546 69.7927 115.959Z" fill="#B9A262"/>
<path fill-rule="evenodd" clip-rule="evenodd" d="M65.3497 116.33C66.0117 115.914 66.7522 115.852 67.5712 116.145C66.8407 116.328 66.1002 116.39 65.3497 116.33Z" fill="#B59F60"/>
<path fill-rule="evenodd" clip-rule="evenodd" d="M55.7231 116.701C55.8701 116.321 56.1167 116.259 56.4636 116.516C56.2437 116.688 55.9967 116.75 55.7231 116.701Z" fill="#9A8753"/>
<path fill-rule="evenodd" clip-rule="evenodd" d="M60.5364 116.701C61.699 116.278 62.933 116.216 64.2389 116.516C63.0108 116.701 61.7767 116.762 60.5364 116.701Z" fill="#A79259"/>
</g>
<defs>
<clipPath id="clip0_26_2">
<rect width="117" height="118" fill="white"/>
</clipPath>
</defs>
</svg>
